<svg width="12" height="12" viewBox="0 0 12 12" fill="none" xmlns="http://www.w3.org/2000/svg">
<g style="mix-blend-mode:darken">
<path d="M0.818189 7.32643L0.874963 7.01159C0.981535 6.42059 1.70484 6.18828 2.13561 6.60669L3.63295 8.06106C3.93304 8.35252 4.41356 8.34215 4.70079 8.03801L10.4204 1.98141C10.6628 1.72473 11.0746 1.73596 11.3026 2.00547C11.4889 2.22556 11.4894 2.5478 11.304 2.76855L4.71366 10.6131C4.42752 10.9537 3.90951 10.9719 3.60027 10.6521L1.01714 7.9809C0.849408 7.80745 0.775369 7.56389 0.818189 7.32643Z" fill="#262626"/>
<path fill-rule="evenodd" clip-rule="evenodd" d="M11.0164 2.2477C10.9328 2.14894 10.7819 2.14482 10.6931 2.23888L4.97343 8.29548C4.5426 8.7517 3.82181 8.76726 3.37168 8.33006L1.87434 6.87569C1.65895 6.66649 1.2973 6.78264 1.24402 7.07814L1.18724 7.39298C1.16583 7.51171 1.20285 7.63349 1.28672 7.72022L3.86984 10.3914C4.02446 10.5513 4.28347 10.5422 4.42654 10.3719L11.0169 2.52733C11.0848 2.44644 11.0846 2.32835 11.0164 2.2477ZM10.1478 1.72394C10.5438 1.30465 11.2164 1.32299 11.5889 1.76324C11.8931 2.12276 11.894 2.64917 11.5911 3.00976L5.00079 10.8544C4.57158 11.3653 3.79456 11.3924 3.3307 10.9128L0.747575 8.24158C0.495975 7.98141 0.384916 7.61607 0.449146 7.25988L0.50592 6.94504C0.665778 6.05855 1.75073 5.71008 2.39689 6.33769L3.89424 7.79206C4.04428 7.93779 4.28454 7.93261 4.42815 7.78054L10.1478 1.72394Z" fill="#262626"/>
</g>
</svg>
