<svg width="55" height="24" viewBox="0 0 55 24" fill="none" xmlns="http://www.w3.org/2000/svg">
<path fill-rule="evenodd" clip-rule="evenodd" d="M8 3H4V4H3V20H4V21H8V20V4V3Z" fill="#DDDDDD"/>
<rect x="2" y="4" width="1" height="16" fill="#262626"/>
<rect y="3" width="1" height="18" fill="#262626"/>
<rect x="3" y="3" width="1" height="1" fill="#262626"/>
<rect opacity="0.6" x="5" y="3" width="3" height="1" fill="white"/>
<rect opacity="0.6" x="5" y="4" width="1" height="1" fill="white"/>
<rect x="4" y="2" width="4" height="1" fill="#262626"/>
<rect x="3" y="20" width="1" height="1" fill="#262626"/>
<rect x="3" y="21" width="1" height="1" fill="#9D9D9D"/>
<rect x="2" y="20" width="1" height="2" fill="#848484"/>
<rect x="2" y="22" width="1" height="1" fill="#848484"/>
<rect x="2" y="1" width="1" height="1" fill="#848484"/>
<rect x="2" y="1" width="6" height="0.5" fill="#B7B7B7"/>
<rect x="2" y="1.5" width="6" height="0.5" fill="#D0D0D0"/>
<rect x="4" y="21" width="4" height="1" fill="#262626"/>
<rect x="3" y="4" width="1" height="16" fill="white"/>
<rect opacity="0.6" x="4" y="3" width="1" height="18" fill="white"/>
<rect y="2" width="1" height="1" fill="#262626"/>
<rect y="21" width="1" height="1" fill="#262626"/>
<rect x="1" y="1" width="1" height="1" fill="#262626"/>
<rect x="2" width="6" height="1" fill="#262626"/>
<rect x="2" y="23" width="6" height="1" fill="#262626"/>
<rect x="3" y="22" width="5" height="1" fill="#9D9D9D"/>
<rect x="2" y="22.5" width="6" height="0.5" fill="#848484"/>
<rect x="2" y="2" width="20" height="1" transform="rotate(90 2 2)" fill="#D0D0D0"/>
<rect x="1.5" y="2" width="20" height="0.5" transform="rotate(90 1.5 2)" fill="#B7B7B7"/>
<rect x="1" y="21" width="1" height="1" fill="#B7B7B7"/>
<rect x="1" y="2" width="1" height="1" fill="#B7B7B7"/>
<rect x="2" y="1" width="1" height="1" fill="#B7B7B7"/>
<rect x="1" y="22" width="1" height="1" fill="#262626"/>
<rect opacity="0.5" x="4" y="20" width="4" height="1" fill="#808080"/>
<rect width="39" height="24" transform="translate(8)" fill="#DDDDDD"/>
<rect x="8" width="39" height="1" fill="#262626"/>
<rect x="8" y="2" width="39" height="1" fill="#262626"/>
<rect x="8" y="1" width="39" height="0.5" fill="#B7B7B7"/>
<rect x="8" y="1.5" width="39" height="0.5" fill="#D0D0D0"/>
<rect opacity="0.6" x="8" y="3" width="39" height="1" fill="white"/>
<path d="M12.225 9.8125V9H13.0375V9.8125H12.225ZM11.4125 14.6875H12.225V15.5H11.4125H10.6H9.7875H8.975V14.6875H8.1625V13.875V13.0625V12.25V11.4375V10.625V9.8125V9H8.975V8.1875H9.7875H10.6H11.4125H12.225V9H11.4125H10.6H9.7875V9.8125V10.625V11.4375V12.25V13.0625V13.875V14.6875H10.6H11.4125ZM12.225 14.6875V13.875H13.0375V14.6875H12.225ZM15.93 15.5H15.1175V14.6875V13.875V13.0625V12.25V11.4375V10.625V9.8125H15.93H16.7425V10.625H17.555V9.8125H18.3675H19.18V10.625V11.4375H18.3675H17.555H16.7425V12.25V13.0625V13.875V14.6875V15.5H15.93ZM24.51 14.6875H25.3225V15.5H24.51H23.6975H22.885H22.0725V14.6875H21.26V13.875V13.0625V12.25V11.4375V10.625H22.0725V9.8125H22.885H23.6975H24.51H25.3225V10.625H26.135V11.4375V12.25V13.0625H25.3225H24.51H23.6975H22.885V13.875V14.6875H23.6975H24.51ZM25.3225 14.6875V13.875H26.135V14.6875H25.3225ZM23.6975 12.25H24.51V11.4375V10.625H23.6975H22.885V11.4375V12.25H23.6975ZM32.2775 15.5H31.465H30.6525H29.84H29.0275V14.6875H28.215V13.875V13.0625V12.25H29.0275V11.4375H28.215V10.625H29.0275V9.8125H29.84H30.6525H31.465H32.2775V10.625H33.09V11.4375V12.25V13.0625V13.875V14.6875V15.5H32.2775ZM30.6525 14.6875H31.465V13.875V13.0625V12.25H30.6525H29.84V13.0625V13.875V14.6875H30.6525ZM30.6525 11.4375H31.465V10.625H30.6525H29.84H29.0275V11.4375H29.84H30.6525ZM37.6075 15.5H36.795V14.6875H35.9825V13.875V13.0625V12.25V11.4375V10.625H35.17V9.8125H35.9825V9V8.1875H36.795H37.6075V9V9.8125H38.42V10.625H37.6075V11.4375V12.25V13.0625V13.875V14.6875H38.42V15.5H37.6075ZM43.75 14.6875H44.5625V15.5H43.75H42.9375H42.125H41.3125V14.6875H40.5V13.875V13.0625V12.25V11.4375V10.625H41.3125V9.8125H42.125H42.9375H43.75H44.5625V10.625H45.375V11.4375V12.25V13.0625H44.5625H43.75H42.9375H42.125V13.875V14.6875H42.9375H43.75ZM44.5625 14.6875V13.875H45.375V14.6875H44.5625ZM42.9375 12.25H43.75V11.4375V10.625H42.9375H42.125V11.4375V12.25H42.9375Z" fill="#262626"/>
<rect x="8" y="21" width="39" height="1" fill="#262626"/>
<rect opacity="0.5" x="8" y="20" width="39" height="1" fill="#808080"/>
<rect x="8" y="23" width="39" height="1" fill="#262626"/>
<rect x="8" y="22" width="39" height="0.5" fill="#9D9D9D"/>
<rect x="8" y="22.5" width="39" height="0.5" fill="#848484"/>
<path fill-rule="evenodd" clip-rule="evenodd" d="M47.0396 21L51.0198 21L51.0198 20L52.0149 20L52.0149 4L51.0198 4L51.0198 3L47.0396 3L47.0396 21Z" fill="#DDDDDD"/>
<rect x="53" y="20" width="0.99505" height="16" transform="rotate(-180 53 20)" fill="#262626"/>
<rect x="55" y="21" width="1" height="18" transform="rotate(-180 55 21)" fill="#262626"/>
<rect x="52" y="21" width="0.99505" height="1" transform="rotate(-180 52 21)" fill="#262626"/>
<rect opacity="0.5" x="50" y="21" width="3" height="1" transform="rotate(-180 50 21)" fill="#808080"/>
<rect opacity="0.5" x="50" y="20" width="0.99505" height="1" transform="rotate(-180 50 20)" fill="#808080"/>
<rect x="51" y="22" width="4" height="1" transform="rotate(-180 51 22)" fill="#262626"/>
<rect x="52" y="4" width="0.99505" height="1" transform="rotate(-180 52 4)" fill="#262626"/>
<rect x="51" y="3" width="4" height="1" transform="rotate(-180 51 3)" fill="#262626"/>
<rect x="52" y="20" width="0.99505" height="16" transform="rotate(-180 52 20)" fill="#808080"/>
<rect opacity="0.5" x="51" y="21" width="0.99505" height="18" transform="rotate(-180 51 21)" fill="#808080"/>
<rect x="55" y="22" width="1" height="1" transform="rotate(-180 55 22)" fill="#262626"/>
<rect x="55" y="3" width="1" height="1" transform="rotate(-180 55 3)" fill="#262626"/>
<rect x="54" y="23" width="1" height="1" transform="rotate(-180 54 23)" fill="#262626"/>
<rect x="53" y="24" width="6" height="1" transform="rotate(-180 53 24)" fill="#262626"/>
<rect x="47" y="22" width="6" height="0.5" fill="#9D9D9D"/>
<rect x="47" y="22.5" width="6" height="0.5" fill="#848484"/>
<rect x="53" y="1" width="6" height="1" transform="rotate(-180 53 1)" fill="#262626"/>
<rect x="54" y="2" width="1" height="1" transform="rotate(-180 54 2)" fill="#262626"/>
<rect x="53" y="1.5" width="5.99017" height="0.5" transform="rotate(-180 53 1.5)" fill="#B7B7B7"/>
<rect x="53" y="2" width="5.99017" height="0.5" transform="rotate(-180 53 2)" fill="#D0D0D0"/>
<rect opacity="0.6" x="51.0198" y="4" width="3.9802" height="1" transform="rotate(-180 51.0198 4)" fill="white"/>
<rect width="1" height="1" transform="matrix(-1 0 0 1 53 22)" fill="#848484"/>
<rect width="1" height="2" transform="matrix(-1 0 0 1 54 20)" fill="#848484"/>
<rect width="18" height="0.999999" transform="matrix(4.37114e-08 1 1 -4.37114e-08 53 2)" fill="#9D9D9D"/>
<rect width="19" height="0.5" transform="matrix(4.37114e-08 1 1 -4.37114e-08 53.5 2)" fill="#848484"/>
<rect width="1" height="2" transform="matrix(-1 0 0 1 53 20)" fill="#848484"/>
<rect width="1" height="1" transform="matrix(-1 0 0 1 52 21)" fill="#9D9D9D"/>
<rect width="1" height="1" transform="matrix(-1 0 0 1 54 2)" fill="#848484"/>
<rect width="1" height="1" transform="matrix(-1 0 0 1 53 1)" fill="#848484"/>
<rect width="1" height="1" transform="matrix(-1 0 0 1 52 2)" fill="#D0D0D0"/>
<rect width="1" height="1" transform="matrix(-1 0 0 1 53 2)" fill="#9D9D9D"/>
<rect width="1" height="1" transform="matrix(-1 0 0 1 53 3)" fill="#9D9D9D"/>
</svg>
