<svg width="24" height="26" viewBox="0 0 24 26" fill="none" xmlns="http://www.w3.org/2000/svg">
<path d="M20.2114 6.31713V20.2114H21.4798V6.31713H24V5.05702H22.7399V3.78863H17.6829V1.26013H16.4228V3.78863H7.5772V1.26013H6.3171V3.78863H1.26839V5.05702H0V6.31713H2.5285V20.2114H3.7886V6.31713H20.2114Z" fill="#000001"/>
<path d="M20.2113 20.2113H18.9512V23.9999H20.2113V20.2113Z" fill="#000001"/>
<path d="M18.9509 24H5.05664V25.2684H18.9509V24Z" fill="#000001"/>
<path d="M17.683 8.8457H16.4229V18.9514H17.683V8.8457Z" fill="#000001"/>
<path d="M16.4227 18.9513H15.1626V21.4715H16.4227V18.9513Z" fill="#000001"/>
<path d="M12.6336 8.8457H11.3735V21.4716H12.6336V8.8457Z" fill="#000001"/>
<path d="M16.4227 0H7.57715V1.2601H16.4227V0Z" fill="#000001"/>
<path d="M8.84554 18.9513H7.57715V21.4715H8.84554V18.9513Z" fill="#000001"/>
<path d="M7.577 8.8457H6.31689V18.9514H7.577V8.8457Z" fill="#000001"/>
<path d="M5.05697 20.2113H3.78857V23.9999H5.05697V20.2113Z" fill="#000001"/>
</svg>
