<svg width="16" height="14" viewBox="0 0 16 14" fill="none" xmlns="http://www.w3.org/2000/svg">
<rect x="3" y="5" width="2" height="2" fill="#1E1E1E"/>
<rect x="4" y="6" width="2" height="2" fill="#1E1E1E"/>
<rect x="5" y="8" width="2" height="1" fill="#1E1E1E"/>
<rect x="6" y="9" width="1" height="1" fill="#1E1E1E"/>
<rect x="9" y="9" width="1" height="1" fill="#1E1E1E"/>
<rect x="9" y="7" width="1" height="1" fill="#1E1E1E"/>
<rect x="6" y="7" width="1" height="1" fill="#1E1E1E"/>
<rect x="7" y="9" width="2" height="2" fill="#1E1E1E"/>
<rect x="11" y="5" width="2" height="2" fill="#1E1E1E"/>
<rect x="10" y="6" width="2" height="2" fill="#1E1E1E"/>
<rect x="9" y="8" width="2" height="1" fill="#1E1E1E"/>
<rect x="7" width="2" height="2" fill="#1E1E1E"/>
<rect x="7" y="2" width="2" height="2" fill="#1E1E1E"/>
<rect x="7" y="4" width="2" height="2" fill="#1E1E1E"/>
<rect x="7" y="8" width="2" height="1" fill="#1E1E1E"/>
<rect x="14" y="12" width="2" height="2" fill="#1E1E1E"/>
<rect x="8" y="12" width="2" height="2" fill="#1E1E1E"/>
<rect x="6" y="12" width="2" height="2" fill="#1E1E1E"/>
<rect x="4" y="12" width="2" height="2" fill="#1E1E1E"/>
<rect x="10" y="12" width="2" height="2" fill="#1E1E1E"/>
<rect x="2" y="12" width="2" height="2" fill="#1E1E1E"/>
<rect x="12" y="12" width="2" height="2" fill="#1E1E1E"/>
<rect y="12" width="2" height="2" fill="#1E1E1E"/>
</svg>
