<svg width="25" height="28" viewBox="0 0 25 28" fill="none" xmlns="http://www.w3.org/2000/svg">
<path d="M23.6874 19.7323H1.32124V6.58032H0V22.3662H1.32124V23.6874H9.21416V25H10.5268V23.6874H14.4732V25H15.7945V23.6874H23.6874V22.3662H25V6.58032H23.6874V19.7323Z" fill="#000001"/>
<path d="M23.6877 5.25903H17.1074V6.58028H23.6877V5.25903Z" fill="#000001"/>
<path d="M9.21397 26.3126V25H7.90137V27.6339H17.1069V25H15.7943V26.3126H9.21397Z" fill="#000001"/>
<path d="M14.4733 2.63391H10.5269V3.94652H14.4733V2.63391Z" fill="#000001"/>
<path d="M14.4733 0H10.5269V1.31261H14.4733V0Z" fill="#000001"/>
<path d="M13.1604 17.107V15.7858H14.473V14.4732H15.7943V13.1606H17.1069V11.8393H14.473V5.25903H10.5266V11.8393H7.90137V13.1606H9.21397V14.4732H10.5266V15.7858H11.8478V17.107H13.1604Z" fill="#000001"/>
<path d="M7.9016 5.25903H1.32129V6.58028H7.9016V5.25903Z" fill="#000001"/>
</svg>
