<svg width="88" height="20" viewBox="0 0 88 20" fill="none" xmlns="http://www.w3.org/2000/svg">
<path fill-rule="evenodd" clip-rule="evenodd" d="M82 19L87 19L87 2L82 2L69 2L69 19L82 19Z" fill="#666666"/>
<rect opacity="0.5" x="84" y="17" width="1" height="1" fill="#808080"/>
<rect opacity="0.5" x="69" y="18" width="16" height="1" fill="#808080"/>
<rect x="88" y="18" width="1" height="16" transform="rotate(-180 88 18)" fill="#262626"/>
<rect x="87" y="19" width="1" height="1" transform="rotate(-180 87 19)" fill="#262626"/>
<rect x="86" y="20" width="17" height="0.999999" transform="rotate(-180 86 20)" fill="#262626"/>
<rect x="87" y="2" width="1" height="1" transform="rotate(-180 87 2)" fill="#262626"/>
<rect x="86" y="1" width="17" height="0.999999" transform="rotate(-180 86 1)" fill="#262626"/>
<rect x="87" y="18" width="1" height="16" transform="rotate(-180 87 18)" fill="#808080"/>
<rect opacity="0.5" x="86" y="19" width="1" height="18" transform="rotate(-180 86 19)" fill="#808080"/>
<rect opacity="0.8" x="69" y="1" width="17" height="1" fill="#262626"/>
<path fill-rule="evenodd" clip-rule="evenodd" d="M77.5 6.5H76.5V7H76V7.5H75.5V8H75V8.5H74.5V9H79.5V8.5H79V8H78.5V7.5H78V7H77.5V6.5Z" fill="white"/>
<rect opacity="0.8" x="76.5" y="6" width="1" height="0.5" fill="white"/>
<rect opacity="0.8" x="76" y="6.5" width="0.5" height="0.5" fill="white"/>
<rect opacity="0.8" x="77.5" y="6.5" width="0.5" height="0.5" fill="white"/>
<rect opacity="0.8" x="78" y="7" width="0.5" height="0.5" fill="white"/>
<rect opacity="0.8" x="75.5" y="7" width="0.5" height="0.5" fill="white"/>
<rect opacity="0.8" x="75" y="7.5" width="0.5" height="0.5" fill="white"/>
<rect opacity="0.8" x="78.5" y="7.5" width="0.5" height="0.5" fill="white"/>
<rect opacity="0.8" x="79" y="8" width="0.5" height="0.5" fill="white"/>
<rect opacity="0.8" x="74.5" y="8" width="0.5" height="0.5" fill="white"/>
<rect opacity="0.8" x="74" y="8.5" width="0.5" height="0.5" fill="white"/>
<rect opacity="0.8" x="79.5" y="8.5" width="0.5" height="0.5" fill="white"/>
<rect opacity="0.7" x="80" y="8.5" width="0.5" height="1" fill="white"/>
<rect opacity="0.7" x="73.5" y="8.5" width="0.5" height="1" fill="white"/>
<rect opacity="0.7" x="74" y="9" width="6" height="0.5" fill="white"/>
<rect opacity="0.7" x="74" y="8" width="0.5" height="0.5" fill="white"/>
<rect opacity="0.2" x="76.5" y="5" width="1" height="0.5" fill="white"/>
<rect opacity="0.2" x="76" y="5.5" width="0.5" height="0.5" fill="white"/>
<rect opacity="0.2" x="77.5" y="5.5" width="0.5" height="0.5" fill="white"/>
<rect opacity="0.2" x="78" y="6" width="0.5" height="0.5" fill="white"/>
<rect opacity="0.2" x="75.5" y="6" width="0.5" height="0.5" fill="white"/>
<rect opacity="0.2" x="75" y="6.5" width="0.5" height="0.5" fill="white"/>
<rect opacity="0.2" x="78.5" y="6.5" width="0.5" height="0.5" fill="white"/>
<rect opacity="0.2" x="79" y="7" width="0.5" height="0.5" fill="white"/>
<rect opacity="0.2" x="74.5" y="7" width="0.5" height="0.5" fill="white"/>
<rect opacity="0.2" x="74" y="7.5" width="0.5" height="0.5" fill="white"/>
<rect opacity="0.2" x="79.5" y="7.5" width="0.5" height="0.5" fill="white"/>
<rect opacity="0.2" x="80" y="8" width="0.5" height="0.5" fill="white"/>
<rect opacity="0.05" x="80.5" y="8" width="0.5" height="0.5" fill="white"/>
<rect opacity="0.05" x="73" y="8" width="0.5" height="0.5" fill="white"/>
<rect opacity="0.05" x="74" y="7" width="0.5" height="0.5" fill="white"/>
<rect opacity="0.05" x="75" y="6" width="0.5" height="0.5" fill="white"/>
<rect opacity="0.05" x="76" y="5" width="0.5" height="0.5" fill="white"/>
<rect opacity="0.05" x="77.5" y="5" width="0.5" height="0.5" fill="white"/>
<rect opacity="0.05" x="78.5" y="6" width="0.5" height="0.5" fill="white"/>
<rect opacity="0.05" x="79.5" y="7" width="0.5" height="0.5" fill="white"/>
<rect opacity="0.2" x="73.5" y="8" width="0.5" height="0.5" fill="white"/>
<rect opacity="0.2" x="73" y="8.5" width="0.5" height="1" fill="white"/>
<rect opacity="0.2" x="80.5" y="8.5" width="0.5" height="1" fill="white"/>
<rect opacity="0.7" x="74.5" y="7.5" width="0.5" height="0.5" fill="white"/>
<rect opacity="0.7" x="75" y="7" width="0.5" height="0.5" fill="white"/>
<rect opacity="0.7" x="75.5" y="6.5" width="0.5" height="0.5" fill="white"/>
<rect opacity="0.7" x="76" y="6" width="0.5" height="0.5" fill="white"/>
<rect opacity="0.7" x="77.5" y="6" width="0.5" height="0.5" fill="white"/>
<rect opacity="0.7" x="78" y="6.5" width="0.5" height="0.5" fill="white"/>
<rect opacity="0.7" x="78.5" y="7" width="0.5" height="0.5" fill="white"/>
<rect opacity="0.7" x="79" y="7.5" width="0.5" height="0.5" fill="white"/>
<rect opacity="0.7" x="79.5" y="8" width="0.5" height="0.5" fill="white"/>
<rect opacity="0.7" x="76.5" y="5.5" width="1" height="0.5" fill="white"/>
<path fill-rule="evenodd" clip-rule="evenodd" d="M76.5 14L77.5 14L77.5 13.5L78 13.5L78 13L78.5 13L78.5 12.5L79 12.5L79 12L79.5 12L79.5 11.5L74.5 11.5L74.5 12L75 12L75 12.5L75.5 12.5L75.5 13L76 13L76 13.5L76.5 13.5L76.5 14Z" fill="white"/>
<rect opacity="0.8" x="77.5" y="14.5" width="1" height="0.5" transform="rotate(-180 77.5 14.5)" fill="white"/>
<rect opacity="0.8" x="78" y="14" width="0.5" height="0.5" transform="rotate(-180 78 14)" fill="white"/>
<rect opacity="0.8" x="76.5" y="14" width="0.5" height="0.5" transform="rotate(-180 76.5 14)" fill="white"/>
<rect opacity="0.8" x="76" y="13.5" width="0.5" height="0.5" transform="rotate(-180 76 13.5)" fill="white"/>
<rect opacity="0.8" x="78.5" y="13.5" width="0.5" height="0.5" transform="rotate(-180 78.5 13.5)" fill="white"/>
<rect opacity="0.8" x="79" y="13" width="0.5" height="0.5" transform="rotate(-180 79 13)" fill="white"/>
<rect opacity="0.8" x="75.5" y="13" width="0.5" height="0.5" transform="rotate(-180 75.5 13)" fill="white"/>
<rect opacity="0.8" x="75" y="12.5" width="0.5" height="0.5" transform="rotate(-180 75 12.5)" fill="white"/>
<rect opacity="0.8" x="79.5" y="12.5" width="0.5" height="0.5" transform="rotate(-180 79.5 12.5)" fill="white"/>
<rect opacity="0.8" x="80" y="12" width="0.5" height="0.5" transform="rotate(-180 80 12)" fill="white"/>
<rect opacity="0.8" x="74.5" y="12" width="0.5" height="0.5" transform="rotate(-180 74.5 12)" fill="white"/>
<rect opacity="0.7" x="74" y="12" width="0.5" height="1" transform="rotate(-180 74 12)" fill="white"/>
<rect opacity="0.7" x="80.5" y="12" width="0.5" height="1" transform="rotate(-180 80.5 12)" fill="white"/>
<rect opacity="0.7" x="80" y="11.5" width="6" height="0.5" transform="rotate(-180 80 11.5)" fill="white"/>
<rect opacity="0.7" x="80" y="12.5" width="0.5" height="0.5" transform="rotate(-180 80 12.5)" fill="white"/>
<rect opacity="0.4" x="80" y="11" width="6" height="0.5" transform="rotate(-180 80 11)" fill="white"/>
<rect opacity="0.2" x="77.5" y="15.5" width="1" height="0.5" transform="rotate(-180 77.5 15.5)" fill="white"/>
<rect opacity="0.2" x="78" y="15" width="0.5" height="0.5" transform="rotate(-180 78 15)" fill="white"/>
<rect opacity="0.2" x="76.5" y="15" width="0.5" height="0.5" transform="rotate(-180 76.5 15)" fill="white"/>
<rect opacity="0.2" x="76" y="14.5" width="0.5" height="0.5" transform="rotate(-180 76 14.5)" fill="white"/>
<rect opacity="0.2" x="78.5" y="14.5" width="0.5" height="0.5" transform="rotate(-180 78.5 14.5)" fill="white"/>
<rect opacity="0.2" x="79" y="14" width="0.5" height="0.5" transform="rotate(-180 79 14)" fill="white"/>
<rect opacity="0.2" x="75.5" y="14" width="0.5" height="0.5" transform="rotate(-180 75.5 14)" fill="white"/>
<rect opacity="0.2" x="75" y="13.5" width="0.5" height="0.5" transform="rotate(-180 75 13.5)" fill="white"/>
<rect opacity="0.2" x="79.5" y="13.5" width="0.5" height="0.5" transform="rotate(-180 79.5 13.5)" fill="white"/>
<rect opacity="0.2" x="80" y="13" width="0.5" height="0.5" transform="rotate(-180 80 13)" fill="white"/>
<rect opacity="0.2" x="74.5" y="13" width="0.5" height="0.5" transform="rotate(-180 74.5 13)" fill="white"/>
<rect opacity="0.2" x="74" y="12.5" width="0.5" height="0.5" transform="rotate(-180 74 12.5)" fill="white"/>
<rect opacity="0.2" x="74" y="11" width="0.5" height="0.5" transform="rotate(-180 74 11)" fill="white"/>
<rect opacity="0.05" x="73.5" y="11" width="0.5" height="0.5" transform="rotate(-180 73.5 11)" fill="white"/>
<rect opacity="0.05" x="81" y="11" width="0.5" height="0.5" transform="rotate(-180 81 11)" fill="white"/>
<rect opacity="0.05" x="73.5" y="12.5" width="0.5" height="0.5" transform="rotate(-180 73.5 12.5)" fill="white"/>
<rect opacity="0.05" x="81" y="12.5" width="0.5" height="0.5" transform="rotate(-180 81 12.5)" fill="white"/>
<rect opacity="0.05" x="80" y="13.5" width="0.5" height="0.5" transform="rotate(-180 80 13.5)" fill="white"/>
<rect opacity="0.05" x="79" y="14.5" width="0.5" height="0.5" transform="rotate(-180 79 14.5)" fill="white"/>
<rect opacity="0.05" x="78" y="15.5" width="0.5" height="0.5" transform="rotate(-180 78 15.5)" fill="white"/>
<rect opacity="0.05" x="76.5" y="15.5" width="0.5" height="0.5" transform="rotate(-180 76.5 15.5)" fill="white"/>
<rect opacity="0.05" x="75.5" y="14.5" width="0.5" height="0.5" transform="rotate(-180 75.5 14.5)" fill="white"/>
<rect opacity="0.05" x="74.5" y="13.5" width="0.5" height="0.5" transform="rotate(-180 74.5 13.5)" fill="white"/>
<rect opacity="0.2" x="80.5" y="12.5" width="0.5" height="0.5" transform="rotate(-180 80.5 12.5)" fill="white"/>
<rect opacity="0.2" x="80.5" y="11" width="0.5" height="0.5" transform="rotate(-180 80.5 11)" fill="white"/>
<rect opacity="0.2" x="81" y="12" width="0.5" height="1" transform="rotate(-180 81 12)" fill="white"/>
<rect opacity="0.2" x="73.5" y="12" width="0.5" height="1" transform="rotate(-180 73.5 12)" fill="white"/>
<rect opacity="0.7" x="79.5" y="13" width="0.5" height="0.5" transform="rotate(-180 79.5 13)" fill="white"/>
<rect opacity="0.7" x="79" y="13.5" width="0.5" height="0.5" transform="rotate(-180 79 13.5)" fill="white"/>
<rect opacity="0.7" x="78.5" y="14" width="0.5" height="0.5" transform="rotate(-180 78.5 14)" fill="white"/>
<rect opacity="0.7" x="78" y="14.5" width="0.5" height="0.5" transform="rotate(-180 78 14.5)" fill="white"/>
<rect opacity="0.7" x="76.5" y="14.5" width="0.5" height="0.5" transform="rotate(-180 76.5 14.5)" fill="white"/>
<rect opacity="0.7" x="76" y="14" width="0.5" height="0.5" transform="rotate(-180 76 14)" fill="white"/>
<rect opacity="0.7" x="75.5" y="13.5" width="0.5" height="0.5" transform="rotate(-180 75.5 13.5)" fill="white"/>
<rect opacity="0.7" x="75" y="13" width="0.5" height="0.5" transform="rotate(-180 75 13)" fill="white"/>
<rect opacity="0.7" x="74.5" y="12.5" width="0.5" height="0.5" transform="rotate(-180 74.5 12.5)" fill="white"/>
<rect opacity="0.7" x="77.5" y="15" width="1" height="0.5" transform="rotate(-180 77.5 15)" fill="white"/>
<rect width="1" height="1" transform="matrix(1 0 0 -1 66 1)" fill="#262626"/>
<rect width="1" height="18" transform="matrix(1 0 0 -1 66 19)" fill="#808080"/>
<rect width="1" height="1" transform="matrix(1 0 0 -1 66 20)" fill="#262626"/>
<rect width="1" height="1" transform="matrix(1 0 0 -1 67 1)" fill="#262626"/>
<rect width="1" height="18" transform="matrix(1 0 0 -1 67 19)" fill="#262626"/>
<rect width="1" height="1" transform="matrix(1 0 0 -1 67 20)" fill="#262626"/>
<rect width="1" height="1" transform="matrix(1 0 0 -1 68 1)" fill="#262626"/>
<rect opacity="0.8" width="1" height="18" transform="matrix(1 0 0 -1 68 19)" fill="#262626"/>
<rect width="1" height="1" transform="matrix(1 0 0 -1 68 20)" fill="#262626"/>
<path fill-rule="evenodd" clip-rule="evenodd" d="M6 1H2V2H1V18H2V19H6V18V2V1Z" fill="#666666"/>
<rect y="2" width="1" height="16" fill="#262626"/>
<rect x="1" y="1" width="1" height="1" fill="#262626"/>
<rect opacity="0.8" x="2" y="1" width="4" height="1" fill="#262626"/>
<rect x="2" width="4" height="1" fill="#262626"/>
<rect x="1" y="18" width="1" height="1" fill="#262626"/>
<rect x="2" y="19" width="4" height="1" fill="#262626"/>
<rect x="1" y="2" width="1" height="16" fill="#808080"/>
<rect opacity="0.2" x="2" y="2" width="1" height="16" fill="white"/>
<rect opacity="0.2" x="2" y="18" width="4" height="1" fill="white"/>
<path d="M66 0H6V18H66V0Z" fill="#666666"/>
<g filter="url(#filter0_d_616_26169)">
<path d="M66 0H6V1H66V0Z" fill="#262626"/>
</g>
<g filter="url(#filter1_d_616_26169)">
<path d="M66 19H6V20H66V19Z" fill="#262626"/>
</g>
<defs>
<filter id="filter0_d_616_26169" x="6" y="0" width="60" height="2" filterUnits="userSpaceOnUse" color-interpolation-filters="sRGB">
<feFlood flood-opacity="0" result="BackgroundImageFix"/>
<feColorMatrix in="SourceAlpha" type="matrix" values="0 0 0 0 0 0 0 0 0 0 0 0 0 0 0 0 0 0 127 0" result="hardAlpha"/>
<feOffset dy="1"/>
<feColorMatrix type="matrix" values="0 0 0 0 0.2 0 0 0 0 0.2 0 0 0 0 0.2 0 0 0 1 0"/>
<feBlend mode="normal" in2="BackgroundImageFix" result="effect1_dropShadow_616_26169"/>
<feBlend mode="normal" in="SourceGraphic" in2="effect1_dropShadow_616_26169" result="shape"/>
</filter>
<filter id="filter1_d_616_26169" x="6" y="18" width="60" height="2" filterUnits="userSpaceOnUse" color-interpolation-filters="sRGB">
<feFlood flood-opacity="0" result="BackgroundImageFix"/>
<feColorMatrix in="SourceAlpha" type="matrix" values="0 0 0 0 0 0 0 0 0 0 0 0 0 0 0 0 0 0 127 0" result="hardAlpha"/>
<feOffset dy="-1"/>
<feColorMatrix type="matrix" values="0 0 0 0 0.521569 0 0 0 0 0.521569 0 0 0 0 0.521569 0 0 0 1 0"/>
<feBlend mode="normal" in2="BackgroundImageFix" result="effect1_dropShadow_616_26169"/>
<feBlend mode="normal" in="SourceGraphic" in2="effect1_dropShadow_616_26169" result="shape"/>
</filter>
</defs>
</svg>
