<svg width="128" height="20" viewBox="0 0 128 20" fill="none" xmlns="http://www.w3.org/2000/svg">
<path fill-rule="evenodd" clip-rule="evenodd" d="M122 19L127 19L127 2L122 2L109 2L109 19L122 19Z" fill="#666666"/>
<rect opacity="0.5" x="124" y="17" width="1" height="1" fill="#808080"/>
<rect opacity="0.5" x="109" y="18" width="16" height="1" fill="#808080"/>
<rect x="128" y="18" width="1" height="16" transform="rotate(-180 128 18)" fill="#262626"/>
<rect x="127" y="19" width="1" height="1" transform="rotate(-180 127 19)" fill="#262626"/>
<rect x="126" y="20" width="17" height="0.999999" transform="rotate(-180 126 20)" fill="#262626"/>
<rect x="127" y="2" width="1" height="1" transform="rotate(-180 127 2)" fill="#262626"/>
<rect x="126" y="1" width="17" height="0.999999" transform="rotate(-180 126 1)" fill="#262626"/>
<rect x="127" y="18" width="1" height="16" transform="rotate(-180 127 18)" fill="#808080"/>
<rect opacity="0.5" x="126" y="19" width="1" height="18" transform="rotate(-180 126 19)" fill="#808080"/>
<rect opacity="0.8" x="109" y="1" width="17" height="1" fill="#262626"/>
<path fill-rule="evenodd" clip-rule="evenodd" d="M117.5 6.5H116.5V7H116V7.5H115.5V8H115V8.5H114.5V9H119.5V8.5H119V8H118.5V7.5H118V7H117.5V6.5Z" fill="white"/>
<rect opacity="0.8" x="116.5" y="6" width="1" height="0.5" fill="white"/>
<rect opacity="0.8" x="116" y="6.5" width="0.5" height="0.5" fill="white"/>
<rect opacity="0.8" x="117.5" y="6.5" width="0.5" height="0.5" fill="white"/>
<rect opacity="0.8" x="118" y="7" width="0.5" height="0.5" fill="white"/>
<rect opacity="0.8" x="115.5" y="7" width="0.5" height="0.5" fill="white"/>
<rect opacity="0.8" x="115" y="7.5" width="0.5" height="0.5" fill="white"/>
<rect opacity="0.8" x="118.5" y="7.5" width="0.5" height="0.5" fill="white"/>
<rect opacity="0.8" x="119" y="8" width="0.5" height="0.5" fill="white"/>
<rect opacity="0.8" x="114.5" y="8" width="0.5" height="0.5" fill="white"/>
<rect opacity="0.8" x="114" y="8.5" width="0.5" height="0.5" fill="white"/>
<rect opacity="0.8" x="119.5" y="8.5" width="0.5" height="0.5" fill="white"/>
<rect opacity="0.7" x="120" y="8.5" width="0.5" height="1" fill="white"/>
<rect opacity="0.7" x="113.5" y="8.5" width="0.5" height="1" fill="white"/>
<rect opacity="0.7" x="114" y="9" width="6" height="0.5" fill="white"/>
<rect opacity="0.7" x="114" y="8" width="0.5" height="0.5" fill="white"/>
<rect opacity="0.2" x="116.5" y="5" width="1" height="0.5" fill="white"/>
<rect opacity="0.2" x="116" y="5.5" width="0.5" height="0.5" fill="white"/>
<rect opacity="0.2" x="117.5" y="5.5" width="0.5" height="0.5" fill="white"/>
<rect opacity="0.2" x="118" y="6" width="0.5" height="0.5" fill="white"/>
<rect opacity="0.2" x="115.5" y="6" width="0.5" height="0.5" fill="white"/>
<rect opacity="0.2" x="115" y="6.5" width="0.5" height="0.5" fill="white"/>
<rect opacity="0.2" x="118.5" y="6.5" width="0.5" height="0.5" fill="white"/>
<rect opacity="0.2" x="119" y="7" width="0.5" height="0.5" fill="white"/>
<rect opacity="0.2" x="114.5" y="7" width="0.5" height="0.5" fill="white"/>
<rect opacity="0.2" x="114" y="7.5" width="0.5" height="0.5" fill="white"/>
<rect opacity="0.2" x="119.5" y="7.5" width="0.5" height="0.5" fill="white"/>
<rect opacity="0.2" x="120" y="8" width="0.5" height="0.5" fill="white"/>
<rect opacity="0.05" x="120.5" y="8" width="0.5" height="0.5" fill="white"/>
<rect opacity="0.05" x="113" y="8" width="0.5" height="0.5" fill="white"/>
<rect opacity="0.05" x="114" y="7" width="0.5" height="0.5" fill="white"/>
<rect opacity="0.05" x="115" y="6" width="0.5" height="0.5" fill="white"/>
<rect opacity="0.05" x="116" y="5" width="0.5" height="0.5" fill="white"/>
<rect opacity="0.05" x="117.5" y="5" width="0.5" height="0.5" fill="white"/>
<rect opacity="0.05" x="118.5" y="6" width="0.5" height="0.5" fill="white"/>
<rect opacity="0.05" x="119.5" y="7" width="0.5" height="0.5" fill="white"/>
<rect opacity="0.2" x="113.5" y="8" width="0.5" height="0.5" fill="white"/>
<rect opacity="0.2" x="113" y="8.5" width="0.5" height="1" fill="white"/>
<rect opacity="0.2" x="120.5" y="8.5" width="0.5" height="1" fill="white"/>
<rect opacity="0.7" x="114.5" y="7.5" width="0.5" height="0.5" fill="white"/>
<rect opacity="0.7" x="115" y="7" width="0.5" height="0.5" fill="white"/>
<rect opacity="0.7" x="115.5" y="6.5" width="0.5" height="0.5" fill="white"/>
<rect opacity="0.7" x="116" y="6" width="0.5" height="0.5" fill="white"/>
<rect opacity="0.7" x="117.5" y="6" width="0.5" height="0.5" fill="white"/>
<rect opacity="0.7" x="118" y="6.5" width="0.5" height="0.5" fill="white"/>
<rect opacity="0.7" x="118.5" y="7" width="0.5" height="0.5" fill="white"/>
<rect opacity="0.7" x="119" y="7.5" width="0.5" height="0.5" fill="white"/>
<rect opacity="0.7" x="119.5" y="8" width="0.5" height="0.5" fill="white"/>
<rect opacity="0.7" x="116.5" y="5.5" width="1" height="0.5" fill="white"/>
<path fill-rule="evenodd" clip-rule="evenodd" d="M116.5 14L117.5 14L117.5 13.5L118 13.5L118 13L118.5 13L118.5 12.5L119 12.5L119 12L119.5 12L119.5 11.5L114.5 11.5L114.5 12L115 12L115 12.5L115.5 12.5L115.5 13L116 13L116 13.5L116.5 13.5L116.5 14Z" fill="white"/>
<rect opacity="0.8" x="117.5" y="14.5" width="1" height="0.5" transform="rotate(-180 117.5 14.5)" fill="white"/>
<rect opacity="0.8" x="118" y="14" width="0.5" height="0.5" transform="rotate(-180 118 14)" fill="white"/>
<rect opacity="0.8" x="116.5" y="14" width="0.5" height="0.5" transform="rotate(-180 116.5 14)" fill="white"/>
<rect opacity="0.8" x="116" y="13.5" width="0.5" height="0.5" transform="rotate(-180 116 13.5)" fill="white"/>
<rect opacity="0.8" x="118.5" y="13.5" width="0.5" height="0.5" transform="rotate(-180 118.5 13.5)" fill="white"/>
<rect opacity="0.8" x="119" y="13" width="0.5" height="0.5" transform="rotate(-180 119 13)" fill="white"/>
<rect opacity="0.8" x="115.5" y="13" width="0.5" height="0.5" transform="rotate(-180 115.5 13)" fill="white"/>
<rect opacity="0.8" x="115" y="12.5" width="0.5" height="0.5" transform="rotate(-180 115 12.5)" fill="white"/>
<rect opacity="0.8" x="119.5" y="12.5" width="0.5" height="0.5" transform="rotate(-180 119.5 12.5)" fill="white"/>
<rect opacity="0.8" x="120" y="12" width="0.5" height="0.5" transform="rotate(-180 120 12)" fill="white"/>
<rect opacity="0.8" x="114.5" y="12" width="0.5" height="0.5" transform="rotate(-180 114.5 12)" fill="white"/>
<rect opacity="0.7" x="114" y="12" width="0.5" height="1" transform="rotate(-180 114 12)" fill="white"/>
<rect opacity="0.7" x="120.5" y="12" width="0.5" height="1" transform="rotate(-180 120.5 12)" fill="white"/>
<rect opacity="0.7" x="120" y="11.5" width="6" height="0.5" transform="rotate(-180 120 11.5)" fill="white"/>
<rect opacity="0.7" x="120" y="12.5" width="0.5" height="0.5" transform="rotate(-180 120 12.5)" fill="white"/>
<rect opacity="0.4" x="120" y="11" width="6" height="0.5" transform="rotate(-180 120 11)" fill="white"/>
<rect opacity="0.2" x="117.5" y="15.5" width="1" height="0.5" transform="rotate(-180 117.5 15.5)" fill="white"/>
<rect opacity="0.2" x="118" y="15" width="0.5" height="0.5" transform="rotate(-180 118 15)" fill="white"/>
<rect opacity="0.2" x="116.5" y="15" width="0.5" height="0.5" transform="rotate(-180 116.5 15)" fill="white"/>
<rect opacity="0.2" x="116" y="14.5" width="0.5" height="0.5" transform="rotate(-180 116 14.5)" fill="white"/>
<rect opacity="0.2" x="118.5" y="14.5" width="0.5" height="0.5" transform="rotate(-180 118.5 14.5)" fill="white"/>
<rect opacity="0.2" x="119" y="14" width="0.5" height="0.5" transform="rotate(-180 119 14)" fill="white"/>
<rect opacity="0.2" x="115.5" y="14" width="0.5" height="0.5" transform="rotate(-180 115.5 14)" fill="white"/>
<rect opacity="0.2" x="115" y="13.5" width="0.5" height="0.5" transform="rotate(-180 115 13.5)" fill="white"/>
<rect opacity="0.2" x="119.5" y="13.5" width="0.5" height="0.5" transform="rotate(-180 119.5 13.5)" fill="white"/>
<rect opacity="0.2" x="120" y="13" width="0.5" height="0.5" transform="rotate(-180 120 13)" fill="white"/>
<rect opacity="0.2" x="114.5" y="13" width="0.5" height="0.5" transform="rotate(-180 114.5 13)" fill="white"/>
<rect opacity="0.2" x="114" y="12.5" width="0.5" height="0.5" transform="rotate(-180 114 12.5)" fill="white"/>
<rect opacity="0.2" x="114" y="11" width="0.5" height="0.5" transform="rotate(-180 114 11)" fill="white"/>
<rect opacity="0.05" x="113.5" y="11" width="0.5" height="0.5" transform="rotate(-180 113.5 11)" fill="white"/>
<rect opacity="0.05" x="121" y="11" width="0.5" height="0.5" transform="rotate(-180 121 11)" fill="white"/>
<rect opacity="0.05" x="113.5" y="12.5" width="0.5" height="0.5" transform="rotate(-180 113.5 12.5)" fill="white"/>
<rect opacity="0.05" x="121" y="12.5" width="0.5" height="0.5" transform="rotate(-180 121 12.5)" fill="white"/>
<rect opacity="0.05" x="120" y="13.5" width="0.5" height="0.5" transform="rotate(-180 120 13.5)" fill="white"/>
<rect opacity="0.05" x="119" y="14.5" width="0.5" height="0.5" transform="rotate(-180 119 14.5)" fill="white"/>
<rect opacity="0.05" x="118" y="15.5" width="0.5" height="0.5" transform="rotate(-180 118 15.5)" fill="white"/>
<rect opacity="0.05" x="116.5" y="15.5" width="0.5" height="0.5" transform="rotate(-180 116.5 15.5)" fill="white"/>
<rect opacity="0.05" x="115.5" y="14.5" width="0.5" height="0.5" transform="rotate(-180 115.5 14.5)" fill="white"/>
<rect opacity="0.05" x="114.5" y="13.5" width="0.5" height="0.5" transform="rotate(-180 114.5 13.5)" fill="white"/>
<rect opacity="0.2" x="120.5" y="12.5" width="0.5" height="0.5" transform="rotate(-180 120.5 12.5)" fill="white"/>
<rect opacity="0.2" x="120.5" y="11" width="0.5" height="0.5" transform="rotate(-180 120.5 11)" fill="white"/>
<rect opacity="0.2" x="121" y="12" width="0.5" height="1" transform="rotate(-180 121 12)" fill="white"/>
<rect opacity="0.2" x="113.5" y="12" width="0.5" height="1" transform="rotate(-180 113.5 12)" fill="white"/>
<rect opacity="0.7" x="119.5" y="13" width="0.5" height="0.5" transform="rotate(-180 119.5 13)" fill="white"/>
<rect opacity="0.7" x="119" y="13.5" width="0.5" height="0.5" transform="rotate(-180 119 13.5)" fill="white"/>
<rect opacity="0.7" x="118.5" y="14" width="0.5" height="0.5" transform="rotate(-180 118.5 14)" fill="white"/>
<rect opacity="0.7" x="118" y="14.5" width="0.5" height="0.5" transform="rotate(-180 118 14.5)" fill="white"/>
<rect opacity="0.7" x="116.5" y="14.5" width="0.5" height="0.5" transform="rotate(-180 116.5 14.5)" fill="white"/>
<rect opacity="0.7" x="116" y="14" width="0.5" height="0.5" transform="rotate(-180 116 14)" fill="white"/>
<rect opacity="0.7" x="115.5" y="13.5" width="0.5" height="0.5" transform="rotate(-180 115.5 13.5)" fill="white"/>
<rect opacity="0.7" x="115" y="13" width="0.5" height="0.5" transform="rotate(-180 115 13)" fill="white"/>
<rect opacity="0.7" x="114.5" y="12.5" width="0.5" height="0.5" transform="rotate(-180 114.5 12.5)" fill="white"/>
<rect opacity="0.7" x="117.5" y="15" width="1" height="0.5" transform="rotate(-180 117.5 15)" fill="white"/>
<rect width="1" height="1" transform="matrix(1 0 0 -1 106 1)" fill="#262626"/>
<rect width="1" height="18" transform="matrix(1 0 0 -1 106 19)" fill="#808080"/>
<rect width="1" height="1" transform="matrix(1 0 0 -1 106 20)" fill="#262626"/>
<rect width="1" height="1" transform="matrix(1 0 0 -1 107 1)" fill="#262626"/>
<rect width="1" height="18" transform="matrix(1 0 0 -1 107 19)" fill="#262626"/>
<rect width="1" height="1" transform="matrix(1 0 0 -1 107 20)" fill="#262626"/>
<rect width="1" height="1" transform="matrix(1 0 0 -1 108 1)" fill="#262626"/>
<rect opacity="0.8" width="1" height="18" transform="matrix(1 0 0 -1 108 19)" fill="#262626"/>
<rect width="1" height="1" transform="matrix(1 0 0 -1 108 20)" fill="#262626"/>
<path fill-rule="evenodd" clip-rule="evenodd" d="M6 1H2V2H1V18H2V19H6V18V2V1Z" fill="#666666"/>
<rect y="2" width="1" height="16" fill="#262626"/>
<rect x="1" y="1" width="1" height="1" fill="#262626"/>
<rect opacity="0.8" x="2" y="1" width="4" height="1" fill="#262626"/>
<rect x="2" y="1.90735e-06" width="4" height="1" fill="#262626"/>
<rect x="1" y="18" width="1" height="1" fill="#262626"/>
<rect x="2" y="19" width="4" height="1" fill="#262626"/>
<rect x="1" y="2" width="1" height="16" fill="#808080"/>
<rect opacity="0.2" x="2" y="2" width="1" height="16" fill="white"/>
<rect opacity="0.2" x="2" y="18" width="4" height="1" fill="white"/>
<path d="M106 1.90735e-06H6V18H106V1.90735e-06Z" fill="#666666"/>
<g filter="url(#filter0_d_616_26170)">
<path d="M106 1.90735e-06H6V1H106V1.90735e-06Z" fill="#262626"/>
</g>
<g filter="url(#filter1_d_616_26170)">
<path d="M106 19H6V20H106V19Z" fill="#262626"/>
</g>
<defs>
<filter id="filter0_d_616_26170" x="6" y="1.90735e-06" width="100" height="2" filterUnits="userSpaceOnUse" color-interpolation-filters="sRGB">
<feFlood flood-opacity="0" result="BackgroundImageFix"/>
<feColorMatrix in="SourceAlpha" type="matrix" values="0 0 0 0 0 0 0 0 0 0 0 0 0 0 0 0 0 0 127 0" result="hardAlpha"/>
<feOffset dy="1"/>
<feColorMatrix type="matrix" values="0 0 0 0 0.2 0 0 0 0 0.2 0 0 0 0 0.2 0 0 0 1 0"/>
<feBlend mode="normal" in2="BackgroundImageFix" result="effect1_dropShadow_616_26170"/>
<feBlend mode="normal" in="SourceGraphic" in2="effect1_dropShadow_616_26170" result="shape"/>
</filter>
<filter id="filter1_d_616_26170" x="6" y="18" width="100" height="2" filterUnits="userSpaceOnUse" color-interpolation-filters="sRGB">
<feFlood flood-opacity="0" result="BackgroundImageFix"/>
<feColorMatrix in="SourceAlpha" type="matrix" values="0 0 0 0 0 0 0 0 0 0 0 0 0 0 0 0 0 0 127 0" result="hardAlpha"/>
<feOffset dy="-1"/>
<feColorMatrix type="matrix" values="0 0 0 0 0.521569 0 0 0 0 0.521569 0 0 0 0 0.521569 0 0 0 1 0"/>
<feBlend mode="normal" in2="BackgroundImageFix" result="effect1_dropShadow_616_26170"/>
<feBlend mode="normal" in="SourceGraphic" in2="effect1_dropShadow_616_26170" result="shape"/>
</filter>
</defs>
</svg>
