<svg width="88" height="20" viewBox="0 0 88 20" fill="none" xmlns="http://www.w3.org/2000/svg">
<path fill-rule="evenodd" clip-rule="evenodd" d="M6 1H2V2H1V18H2V19H6V18V2V1Z" fill="#DDDDDD"/>
<path d="M1 2H0V18H1V2Z" fill="#262626"/>
<path d="M2 1H1V2H2V1Z" fill="#262626"/>
<path opacity="0.6" d="M6 1H3V2H6V1Z" fill="white"/>
<path opacity="0.6" d="M4 2H3V3H4V2Z" fill="white"/>
<path d="M2 18H1V19H2V18Z" fill="#262626"/>
<path d="M6 19H2V20H6V19Z" fill="#262626"/>
<path d="M2 2H1V18H2V2Z" fill="white"/>
<path opacity="0.6" d="M3 1H2V19H3V1Z" fill="white"/>
<path d="M6 18H2V19H6V18Z" fill="#808080" fill-opacity="0.5"/>
<path d="M66 0H6V18H66V0Z" fill="#DDDDDD"/>
<g filter="url(#filter0_d_601_25898)">
<path d="M66 0H6V1H66V0Z" fill="#262626"/>
</g>
<g filter="url(#filter1_d_601_25898)">
<path d="M66 19H6V20H66V19Z" fill="#262626"/>
</g>
<path fill-rule="evenodd" clip-rule="evenodd" d="M69 19H82V18H87V2H82H69V19Z" fill="#DDDDDD"/>
<path opacity="0.5" d="M85 17H84V18H85V17Z" fill="#808080"/>
<path opacity="0.5" d="M85 18H69V19H85V18Z" fill="#808080"/>
<path d="M87 18H88V2H87V18Z" fill="#262626"/>
<path d="M86 19H87V18H86V19Z" fill="#262626"/>
<path d="M69 20L86 20V19L69 19V20Z" fill="#262626"/>
<path d="M86 2L87 2V1L86 1V2Z" fill="#262626"/>
<path d="M69 1L86 1V9.53674e-07L69 9.53674e-07V1Z" fill="#262626"/>
<path d="M86 18H87V2H86V18Z" fill="#808080"/>
<path opacity="0.5" d="M85 19H86V1H85V19Z" fill="#808080"/>
<path opacity="0.5" d="M86 1H69V2H86V1Z" fill="white"/>
<path fill-rule="evenodd" clip-rule="evenodd" d="M77.5 6.5H76.5V7H76V7.5H75.5V8H75V8.5H74.5V9H79.5V8.5H79V8H78.5V7.5H78V7H77.5V6.5Z" fill="#262626"/>
<path opacity="0.8" d="M77.5 6H76.5V6.5H77.5V6Z" fill="#262626"/>
<path opacity="0.8" d="M76.5 6.5H76V7H76.5V6.5Z" fill="#262626"/>
<path opacity="0.8" d="M78 6.5H77.5V7H78V6.5Z" fill="#262626"/>
<path opacity="0.8" d="M78.5 7H78V7.5H78.5V7Z" fill="#262626"/>
<path opacity="0.8" d="M76 7H75.5V7.5H76V7Z" fill="#262626"/>
<path opacity="0.8" d="M75.5 7.5H75V8H75.5V7.5Z" fill="#262626"/>
<path opacity="0.8" d="M79 7.5H78.5V8H79V7.5Z" fill="#262626"/>
<path opacity="0.8" d="M79.5 8H79V8.5H79.5V8Z" fill="#262626"/>
<path opacity="0.8" d="M75 8H74.5V8.5H75V8Z" fill="#262626"/>
<path opacity="0.8" d="M74.5 8.5H74V9H74.5V8.5Z" fill="#262626"/>
<path opacity="0.8" d="M80 8.5H79.5V9H80V8.5Z" fill="#262626"/>
<path opacity="0.7" d="M80.5 8.5H80V9.5H80.5V8.5Z" fill="#262626"/>
<path opacity="0.7" d="M74 8.5H73.5V9.5H74V8.5Z" fill="#262626"/>
<path opacity="0.7" d="M80 9H74V9.5H80V9Z" fill="#262626"/>
<path opacity="0.7" d="M74.5 8H74V8.5H74.5V8Z" fill="#262626"/>
<path opacity="0.2" d="M77.5 5H76.5V5.5H77.5V5Z" fill="#262626"/>
<path opacity="0.2" d="M76.5 5.5H76V6H76.5V5.5Z" fill="#262626"/>
<path opacity="0.2" d="M78 5.5H77.5V6H78V5.5Z" fill="#262626"/>
<path opacity="0.2" d="M78.5 6H78V6.5H78.5V6Z" fill="#262626"/>
<path opacity="0.2" d="M76 6H75.5V6.5H76V6Z" fill="#262626"/>
<path opacity="0.2" d="M75.5 6.5H75V7H75.5V6.5Z" fill="#262626"/>
<path opacity="0.2" d="M79 6.5H78.5V7H79V6.5Z" fill="#262626"/>
<path opacity="0.2" d="M79.5 7H79V7.5H79.5V7Z" fill="#262626"/>
<path opacity="0.2" d="M75 7H74.5V7.5H75V7Z" fill="#262626"/>
<path opacity="0.2" d="M74.5 7.5H74V8H74.5V7.5Z" fill="#262626"/>
<path opacity="0.2" d="M80 7.5H79.5V8H80V7.5Z" fill="#262626"/>
<path opacity="0.2" d="M80.5 8H80V8.5H80.5V8Z" fill="#262626"/>
<path opacity="0.05" d="M81 8H80.5V8.5H81V8Z" fill="#262626"/>
<path opacity="0.05" d="M73.5 8H73V8.5H73.5V8Z" fill="#262626"/>
<path opacity="0.05" d="M74.5 7H74V7.5H74.5V7Z" fill="#262626"/>
<path opacity="0.05" d="M75.5 6H75V6.5H75.5V6Z" fill="#262626"/>
<path opacity="0.05" d="M76.5 5H76V5.5H76.5V5Z" fill="#262626"/>
<path opacity="0.05" d="M78 5H77.5V5.5H78V5Z" fill="#262626"/>
<path opacity="0.05" d="M79 6H78.5V6.5H79V6Z" fill="#262626"/>
<path opacity="0.05" d="M80 7H79.5V7.5H80V7Z" fill="#262626"/>
<path opacity="0.2" d="M74 8H73.5V8.5H74V8Z" fill="#262626"/>
<path opacity="0.2" d="M73.5 8.5H73V9.5H73.5V8.5Z" fill="#262626"/>
<path opacity="0.2" d="M81 8.5H80.5V9.5H81V8.5Z" fill="#262626"/>
<path opacity="0.7" d="M75 7.5H74.5V8H75V7.5Z" fill="#262626"/>
<path opacity="0.7" d="M75.5 7H75V7.5H75.5V7Z" fill="#262626"/>
<path opacity="0.7" d="M76 6.5H75.5V7H76V6.5Z" fill="#262626"/>
<path opacity="0.7" d="M76.5 6H76V6.5H76.5V6Z" fill="#262626"/>
<path opacity="0.7" d="M78 6H77.5V6.5H78V6Z" fill="#262626"/>
<path opacity="0.7" d="M78.5 6.5H78V7H78.5V6.5Z" fill="#262626"/>
<path opacity="0.7" d="M79 7H78.5V7.5H79V7Z" fill="#262626"/>
<path opacity="0.7" d="M79.5 7.5H79V8H79.5V7.5Z" fill="#262626"/>
<path opacity="0.7" d="M80 8H79.5V8.5H80V8Z" fill="#262626"/>
<path opacity="0.7" d="M77.5 5.5H76.5V6H77.5V5.5Z" fill="#262626"/>
<path fill-rule="evenodd" clip-rule="evenodd" d="M76.5 14H77.5V13.5H78V13H78.5V12.5H79V12H79.5V11.5H74.5V12H75V12.5H75.5V13H76V13.5H76.5V14Z" fill="#262626"/>
<path opacity="0.8" d="M76.5 14.5H77.5V14H76.5V14.5Z" fill="#262626"/>
<path opacity="0.8" d="M77.5 14H78V13.5H77.5V14Z" fill="#262626"/>
<path opacity="0.8" d="M76 14H76.5V13.5H76V14Z" fill="#262626"/>
<path opacity="0.8" d="M75.5 13.5H76V13H75.5V13.5Z" fill="#262626"/>
<path opacity="0.8" d="M78 13.5H78.5V13H78V13.5Z" fill="#262626"/>
<path opacity="0.8" d="M78.5 13H79V12.5H78.5V13Z" fill="#262626"/>
<path opacity="0.8" d="M75 13H75.5V12.5H75V13Z" fill="#262626"/>
<path opacity="0.8" d="M74.5 12.5H75V12H74.5V12.5Z" fill="#262626"/>
<path opacity="0.8" d="M79 12.5H79.5V12H79V12.5Z" fill="#262626"/>
<path opacity="0.8" d="M79.5 12H80V11.5H79.5V12Z" fill="#262626"/>
<path opacity="0.8" d="M74 12H74.5V11.5H74V12Z" fill="#262626"/>
<path opacity="0.7" d="M73.5 12H74V11H73.5V12Z" fill="#262626"/>
<path opacity="0.7" d="M80 12H80.5V11H80V12Z" fill="#262626"/>
<path opacity="0.7" d="M74 11.5H80V11H74V11.5Z" fill="#262626"/>
<path opacity="0.7" d="M79.5 12.5H80V12H79.5V12.5Z" fill="#262626"/>
<path opacity="0.2" d="M76.5 15.5H77.5V15H76.5V15.5Z" fill="#262626"/>
<path opacity="0.2" d="M77.5 15H78V14.5H77.5V15Z" fill="#262626"/>
<path opacity="0.2" d="M76 15H76.5V14.5H76V15Z" fill="#262626"/>
<path opacity="0.2" d="M75.5 14.5H76V14H75.5V14.5Z" fill="#262626"/>
<path opacity="0.2" d="M78 14.5H78.5V14H78V14.5Z" fill="#262626"/>
<path opacity="0.2" d="M78.5 14H79V13.5H78.5V14Z" fill="#262626"/>
<path opacity="0.2" d="M75 14H75.5V13.5H75V14Z" fill="#262626"/>
<path opacity="0.2" d="M74.5 13.5H75V13H74.5V13.5Z" fill="#262626"/>
<path opacity="0.2" d="M79 13.5H79.5V13H79V13.5Z" fill="#262626"/>
<path opacity="0.2" d="M79.5 13H80V12.5H79.5V13Z" fill="#262626"/>
<path opacity="0.2" d="M74 13H74.5V12.5H74V13Z" fill="#262626"/>
<path opacity="0.2" d="M73.5 12.5H74V12H73.5V12.5Z" fill="#262626"/>
<path opacity="0.05" d="M73 12.5H73.5V12H73V12.5Z" fill="#262626"/>
<path opacity="0.05" d="M80.5 12.5H81V12H80.5V12.5Z" fill="#262626"/>
<path opacity="0.05" d="M79.5 13.5H80V13H79.5V13.5Z" fill="#262626"/>
<path opacity="0.05" d="M78.5 14.5H79V14H78.5V14.5Z" fill="#262626"/>
<path opacity="0.05" d="M77.5 15.5H78V15H77.5V15.5Z" fill="#262626"/>
<path opacity="0.05" d="M76 15.5H76.5V15H76V15.5Z" fill="#262626"/>
<path opacity="0.05" d="M75 14.5H75.5V14H75V14.5Z" fill="#262626"/>
<path opacity="0.05" d="M74 13.5H74.5V13H74V13.5Z" fill="#262626"/>
<path opacity="0.2" d="M80 12.5H80.5V12H80V12.5Z" fill="#262626"/>
<path opacity="0.2" d="M80.5 12H81V11H80.5V12Z" fill="#262626"/>
<path opacity="0.2" d="M73 12H73.5V11H73V12Z" fill="#262626"/>
<path opacity="0.7" d="M79 13H79.5V12.5H79V13Z" fill="#262626"/>
<path opacity="0.7" d="M78.5 13.5H79V13H78.5V13.5Z" fill="#262626"/>
<path opacity="0.7" d="M78 14H78.5V13.5H78V14Z" fill="#262626"/>
<path opacity="0.7" d="M77.5 14.5H78V14H77.5V14.5Z" fill="#262626"/>
<path opacity="0.7" d="M76 14.5H76.5V14H76V14.5Z" fill="#262626"/>
<path opacity="0.7" d="M75.5 14H76V13.5H75.5V14Z" fill="#262626"/>
<path opacity="0.7" d="M75 13.5H75.5V13H75V13.5Z" fill="#262626"/>
<path opacity="0.7" d="M74.5 13H75V12.5H74.5V13Z" fill="#262626"/>
<path opacity="0.7" d="M74 12.5H74.5V12H74V12.5Z" fill="#262626"/>
<path opacity="0.7" d="M76.5 15H77.5V14.5H76.5V15Z" fill="#262626"/>
<path d="M67 1H66V0H67V1Z" fill="#262626"/>
<path d="M67 19H66V1H67V19Z" fill="#B7B7B7"/>
<path d="M67 20H66V19H67V20Z" fill="#262626"/>
<path d="M68 1H67V0H68V1Z" fill="#262626"/>
<path d="M68 19H67V1H68V19Z" fill="#DDDDDD"/>
<path d="M68 20H67V19H68V20Z" fill="#262626"/>
<path d="M69 1H68V0H69V1Z" fill="#262626"/>
<path d="M69 19H68V1H69V19Z" fill="white"/>
<path d="M69 20H68V19H69V20Z" fill="#262626"/>
<path d="M6 0H2V1H6V0Z" fill="#262626"/>
<defs>
<filter id="filter0_d_601_25898" x="6" y="0" width="60" height="2" filterUnits="userSpaceOnUse" color-interpolation-filters="sRGB">
<feFlood flood-opacity="0" result="BackgroundImageFix"/>
<feColorMatrix in="SourceAlpha" type="matrix" values="0 0 0 0 0 0 0 0 0 0 0 0 0 0 0 0 0 0 127 0" result="hardAlpha"/>
<feOffset dy="1"/>
<feColorMatrix type="matrix" values="0 0 0 0 1 0 0 0 0 1 0 0 0 0 1 0 0 0 0.6 0"/>
<feBlend mode="normal" in2="BackgroundImageFix" result="effect1_dropShadow_601_25898"/>
<feBlend mode="normal" in="SourceGraphic" in2="effect1_dropShadow_601_25898" result="shape"/>
</filter>
<filter id="filter1_d_601_25898" x="6" y="18" width="60" height="2" filterUnits="userSpaceOnUse" color-interpolation-filters="sRGB">
<feFlood flood-opacity="0" result="BackgroundImageFix"/>
<feColorMatrix in="SourceAlpha" type="matrix" values="0 0 0 0 0 0 0 0 0 0 0 0 0 0 0 0 0 0 127 0" result="hardAlpha"/>
<feOffset dy="-1"/>
<feColorMatrix type="matrix" values="0 0 0 0 0.501961 0 0 0 0 0.501961 0 0 0 0 0.501961 0 0 0 0.5 0"/>
<feBlend mode="normal" in2="BackgroundImageFix" result="effect1_dropShadow_601_25898"/>
<feBlend mode="normal" in="SourceGraphic" in2="effect1_dropShadow_601_25898" result="shape"/>
</filter>
</defs>
</svg>
