<svg width="52" height="24" viewBox="0 0 52 24" fill="none" xmlns="http://www.w3.org/2000/svg">
<path fill-rule="evenodd" clip-rule="evenodd" d="M8 3H4V4H3V20H4V21H8V20V4V3Z" fill="#666666"/>
<rect x="2" y="4" width="1" height="16" fill="#262626"/>
<rect y="3" width="1" height="18" fill="#262626"/>
<rect x="3" y="3" width="1" height="1" fill="#262626"/>
<rect opacity="0.4" x="5" y="3" width="3" height="1" fill="#262626"/>
<rect opacity="0.4" x="5" y="4" width="1" height="1" fill="#262626"/>
<rect x="4" y="2" width="4" height="1" fill="#262626"/>
<rect x="3" y="20" width="1" height="1" fill="#262626"/>
<rect x="3" y="21" width="1" height="1" fill="#9D9D9D"/>
<rect x="2" y="20" width="1" height="2" fill="#848484"/>
<rect x="2" y="22" width="1" height="1" fill="#848484"/>
<rect x="2" y="1" width="1" height="1" fill="#848484"/>
<rect x="2" y="1" width="6" height="0.5" fill="#B7B7B7"/>
<rect x="2" y="1.5" width="6" height="0.5" fill="#D0D0D0"/>
<rect x="4" y="21" width="4" height="1" fill="#262626"/>
<rect opacity="0.8" x="3" y="4" width="1" height="16" fill="#262626"/>
<rect opacity="0.4" x="4" y="3" width="1" height="18" fill="#262626"/>
<rect y="2" width="1" height="1" fill="#262626"/>
<rect y="21" width="1" height="1" fill="#262626"/>
<rect x="1" y="1" width="1" height="1" fill="#262626"/>
<rect x="2" width="6" height="1" fill="#262626"/>
<rect x="2" y="23" width="6" height="1" fill="#262626"/>
<rect x="3" y="22" width="5" height="1" fill="#9D9D9D"/>
<rect x="2" y="22.5" width="6" height="0.5" fill="#848484"/>
<rect x="2" y="2" width="20" height="1" transform="rotate(90 2 2)" fill="#D0D0D0"/>
<rect x="1.5" y="2" width="20" height="0.5" transform="rotate(90 1.5 2)" fill="#B7B7B7"/>
<rect x="1" y="21" width="1" height="1" fill="#B7B7B7"/>
<rect x="1" y="2" width="1" height="1" fill="#B7B7B7"/>
<rect x="2" y="1" width="1" height="1" fill="#B7B7B7"/>
<rect x="1" y="22" width="1" height="1" fill="#262626"/>
<rect opacity="0.2" x="4" y="20" width="4" height="1" fill="white"/>
<rect width="36" height="24" transform="translate(8)" fill="#666666"/>
<rect x="8" width="36" height="1" fill="#262626"/>
<rect x="8" y="2" width="36" height="1" fill="#262626"/>
<rect x="8" y="1" width="36" height="0.5" fill="#B7B7B7"/>
<rect x="8" y="1.5" width="36" height="0.5" fill="#D0D0D0"/>
<rect opacity="0.4" x="8" y="3" width="36" height="1" fill="#262626"/>
<path d="M12.1175 14.6875H12.93V15.5H12.1175H11.305H10.4925H9.68H8.8675H8.055V14.6875V13.875V13.0625V12.25V11.4375V10.625V9.8125V9V8.1875H8.8675H9.68H10.4925H11.305H12.1175H12.93V9H12.1175H11.305H10.4925H9.68V9.8125V10.625V11.4375H10.4925H11.305H12.1175V12.25H11.305H10.4925H9.68V13.0625V13.875V14.6875H10.4925H11.305H12.1175ZM22.3225 15.5H21.51V14.6875V13.875V13.0625V12.25V11.4375V10.625H20.6975H19.885V11.4375V12.25V13.0625V13.875V14.6875V15.5H19.0725H18.26V14.6875V13.875V13.0625V12.25V11.4375V10.625H17.4475H16.635V11.4375V12.25V13.0625V13.875V14.6875V15.5H15.8225H15.01V14.6875V13.875V13.0625V12.25V11.4375V10.625V9.8125H15.8225H16.635H17.4475H18.26H19.0725V10.625H19.885V9.8125H20.6975H21.51H22.3225V10.625H23.135V11.4375V12.25V13.0625V13.875V14.6875V15.5H22.3225ZM26.0275 17.125H25.215V16.3125V15.5V14.6875V13.875V13.0625V12.25V11.4375V10.625V9.8125H26.0275H26.84H27.6525H28.465H29.2775V10.625H30.09V11.4375V12.25V13.0625V13.875V14.6875H29.2775V15.5H28.465H27.6525H26.84V16.3125V17.125H26.0275ZM27.6525 14.6875H28.465V13.875V13.0625V12.25V11.4375V10.625H27.6525H26.84V11.4375V12.25V13.0625V13.875V14.6875H27.6525ZM34.6075 15.5H33.795V14.6875H32.9825V13.875V13.0625V12.25V11.4375V10.625H32.17V9.8125H32.9825V9V8.1875H33.795H34.6075V9V9.8125H35.42V10.625H34.6075V11.4375V12.25V13.0625V13.875V14.6875H35.42V15.5H34.6075ZM40.75 17.9375H39.9375H39.125H38.3125V17.125H39.125H39.9375H40.75V16.3125V15.5H39.9375H39.125H38.3125V14.6875H37.5V13.875V13.0625V12.25V11.4375V10.625V9.8125H38.3125H39.125V10.625V11.4375V12.25V13.0625V13.875V14.6875H39.9375H40.75V13.875V13.0625V12.25V11.4375V10.625V9.8125H41.5625H42.375V10.625V11.4375V12.25V13.0625V13.875V14.6875V15.5V16.3125V17.125H41.5625V17.9375H40.75ZM38.3125 17.125H37.5V16.3125H38.3125V17.125Z" fill="white"/>
<rect x="8" y="21" width="36" height="1" fill="#262626"/>
<rect opacity="0.2" x="8" y="20" width="36" height="1" fill="white"/>
<rect x="8" y="23" width="36" height="1" fill="#262626"/>
<rect x="8" y="22" width="36" height="0.5" fill="#9D9D9D"/>
<rect x="8" y="22.5" width="36" height="0.5" fill="#848484"/>
<path fill-rule="evenodd" clip-rule="evenodd" d="M44 21L48 21L48 20L49.0149 20L49.0149 4L48 4L48 3L44 3L44 21Z" fill="#666666"/>
<rect x="50" y="20" width="0.99505" height="16" transform="rotate(-180 50 20)" fill="#262626"/>
<rect x="52" y="21" width="1" height="18" transform="rotate(-180 52 21)" fill="#262626"/>
<rect x="49" y="21" width="0.99505" height="1" transform="rotate(-180 49 21)" fill="#262626"/>
<rect opacity="0.2" x="47" y="21" width="3" height="1" transform="rotate(-180 47 21)" fill="white"/>
<rect opacity="0.2" x="47" y="20" width="0.99505" height="1" transform="rotate(-180 47 20)" fill="white"/>
<rect x="48" y="22" width="4" height="1" transform="rotate(-180 48 22)" fill="#262626"/>
<rect x="49" y="4" width="0.99505" height="1" transform="rotate(-180 49 4)" fill="#262626"/>
<rect x="48" y="3" width="4" height="1" transform="rotate(-180 48 3)" fill="#262626"/>
<rect opacity="0.3" x="49" y="20" width="0.99505" height="16" transform="rotate(-180 49 20)" fill="white"/>
<rect opacity="0.2" x="48" y="21" width="0.99505" height="18" transform="rotate(-180 48 21)" fill="white"/>
<rect x="52" y="22" width="1" height="1" transform="rotate(-180 52 22)" fill="#262626"/>
<rect x="52" y="3" width="1" height="1" transform="rotate(-180 52 3)" fill="#262626"/>
<rect x="51" y="23" width="1" height="1" transform="rotate(-180 51 23)" fill="#262626"/>
<rect x="50" y="24" width="6" height="1" transform="rotate(-180 50 24)" fill="#262626"/>
<rect x="44" y="22" width="6" height="0.5" fill="#9D9D9D"/>
<rect x="44" y="22.5" width="6" height="0.5" fill="#848484"/>
<rect x="50" y="1" width="6" height="1" transform="rotate(-180 50 1)" fill="#262626"/>
<rect x="51" y="2" width="1" height="1" transform="rotate(-180 51 2)" fill="#262626"/>
<rect x="50" y="1.5" width="5.99017" height="0.5" transform="rotate(-180 50 1.5)" fill="#B7B7B7"/>
<rect x="50" y="2" width="5.99017" height="0.5" transform="rotate(-180 50 2)" fill="#D0D0D0"/>
<rect opacity="0.4" x="48" y="4" width="4" height="1" transform="rotate(-180 48 4)" fill="#262626"/>
<rect width="1" height="1" transform="matrix(-1 0 0 1 50 22)" fill="#848484"/>
<rect width="1" height="2" transform="matrix(-1 0 0 1 51 20)" fill="#848484"/>
<rect width="18" height="0.999999" transform="matrix(4.37114e-08 1 1 -4.37114e-08 50 2)" fill="#9D9D9D"/>
<rect width="19" height="0.5" transform="matrix(4.37114e-08 1 1 -4.37114e-08 50.5 2)" fill="#848484"/>
<rect width="1" height="2" transform="matrix(-1 0 0 1 50 20)" fill="#848484"/>
<rect width="1" height="1" transform="matrix(-1 0 0 1 49 21)" fill="#9D9D9D"/>
<rect width="1" height="1" transform="matrix(-1 0 0 1 51 2)" fill="#848484"/>
<rect width="1" height="1" transform="matrix(-1 0 0 1 50 1)" fill="#848484"/>
<rect width="1" height="1" transform="matrix(-1 0 0 1 49 2)" fill="#D0D0D0"/>
<rect width="1" height="1" transform="matrix(-1 0 0 1 50 2)" fill="#9D9D9D"/>
<rect width="1" height="1" transform="matrix(-1 0 0 1 50 3)" fill="#9D9D9D"/>
</svg>
