<svg width="279" height="567" viewBox="0 0 279 567" fill="none" xmlns="http://www.w3.org/2000/svg">
<g filter="url(#filter0_ii_576_18740)">
<rect x="1" y="1" width="277" height="565" fill="#CCCCCC"/>
<rect x="0.5" y="0.5" width="278" height="566" stroke="#262626"/>
<rect width="277" height="19" transform="translate(1 1)" fill="#CCCCCC"/>
<rect x="20" y="4" width="74.0743" height="13" fill="#DDDDDD"/>
<rect x="20" y="4" width="1" height="13" fill="#EEEEEE"/>
<rect x="94" y="4" width="1" height="13" fill="#C5C5C5"/>
<rect x="20" y="5" width="74.5" height="1" fill="#999999"/>
<rect x="20" y="9" width="74.5" height="1" fill="#999999"/>
<rect x="20" y="13" width="74.5" height="1" fill="#999999"/>
<rect x="20" y="7" width="74.5" height="1" fill="#999999"/>
<rect x="20" y="11" width="74.5" height="1" fill="#999999"/>
<rect x="20" y="15" width="74.5" height="1" fill="#999999"/>
<path d="M101.875 16H100.938V15.0625V14.125V13.1875V12.25V11.3125V10.375V9.4375V8.5V7.5625H101.875H102.812H103.75H104.688H105.625H106.562V8.5H105.625H104.688H103.75H102.812V9.4375V10.375V11.3125H103.75H104.688H105.625V12.25H104.688H103.75H102.812V13.1875V14.125V15.0625V16H101.875ZM112.637 16H111.7H110.762H109.825V15.0625H108.887V14.125V13.1875V12.25V11.3125V10.375H109.825V9.4375H110.762H111.7H112.637H113.575V10.375H114.512V11.3125V12.25V13.1875V14.125V15.0625H113.575V16H112.637ZM111.7 15.0625H112.637V14.125V13.1875V12.25V11.3125V10.375H111.7H110.762V11.3125V12.25V13.1875V14.125V15.0625H111.7ZM117.775 16H116.837V15.0625V14.125V13.1875V12.25V11.3125V10.375V9.4375V8.5V7.5625H117.775H118.712V8.5V9.4375V10.375V11.3125V12.25V13.1875V14.125V15.0625V16H117.775ZM125.725 16H124.788H123.85H122.913H121.975V15.0625H121.038V14.125V13.1875V12.25V11.3125V10.375H121.975V9.4375H122.913H123.85H124.788V8.5V7.5625H125.725H126.663V8.5V9.4375V10.375V11.3125V12.25V13.1875V14.125V15.0625V16H125.725ZM123.85 15.0625H124.788V14.125V13.1875V12.25V11.3125V10.375H123.85H122.913V11.3125V12.25V13.1875V14.125V15.0625H123.85ZM132.737 15.0625H133.675V16H132.737H131.8H130.862H129.925V15.0625H128.987V14.125V13.1875V12.25V11.3125V10.375H129.925V9.4375H130.862H131.8H132.737H133.675V10.375H134.612V11.3125V12.25V13.1875H133.675H132.737H131.8H130.862V14.125V15.0625H131.8H132.737ZM133.675 15.0625V14.125H134.612V15.0625H133.675ZM131.8 12.25H132.737V11.3125V10.375H131.8H130.862V11.3125V12.25H131.8ZM137.875 16H136.938V15.0625V14.125V13.1875V12.25V11.3125V10.375V9.4375H137.875H138.812V10.375H139.75V9.4375H140.688H141.625V10.375V11.3125H140.688H139.75H138.812V12.25V13.1875V14.125V15.0625V16H137.875ZM151.9 16H150.963V15.0625V14.125V13.1875V12.25V11.3125V10.375V9.4375V8.5H150.025H149.088V7.5625H150.025H150.963H151.9H152.838H153.775H154.713V8.5H153.775H152.838V9.4375V10.375V11.3125V12.25V13.1875V14.125V15.0625V16H151.9ZM157.975 16H157.037V15.0625V14.125V13.1875V12.25V11.3125V10.375V9.4375H157.975H158.912V10.375H159.85V9.4375H160.787H161.725V10.375V11.3125H160.787H159.85H158.912V12.25V13.1875V14.125V15.0625V16H157.975ZM167.8 15.0625H168.737V16H167.8H166.862H165.925H164.987V15.0625H164.05V14.125V13.1875V12.25V11.3125V10.375H164.987V9.4375H165.925H166.862H167.8H168.737V10.375H169.675V11.3125V12.25V13.1875H168.737H167.8H166.862H165.925V14.125V15.0625H166.862H167.8ZM168.737 15.0625V14.125H169.675V15.0625H168.737ZM166.862 12.25H167.8V11.3125V10.375H166.862H165.925V11.3125V12.25H166.862ZM175.75 15.0625H176.688V16H175.75H174.812H173.875H172.938V15.0625H172V14.125V13.1875V12.25V11.3125V10.375H172.938V9.4375H173.875H174.812H175.75H176.688V10.375H177.625V11.3125V12.25V13.1875H176.688H175.75H174.812H173.875V14.125V15.0625H174.812H175.75ZM176.688 15.0625V14.125H177.625V15.0625H176.688ZM174.812 12.25H175.75V11.3125V10.375H174.812H173.875V11.3125V12.25H174.812Z" fill="#262626"/>
<rect x="183.5" y="4" width="74.0743" height="13" fill="#DDDDDD"/>
<rect x="183.5" y="4" width="1" height="13" fill="#EEEEEE"/>
<rect x="257.5" y="4" width="1" height="13" fill="#C5C5C5"/>
<rect x="183.5" y="5" width="74.5" height="1" fill="#999999"/>
<rect x="183.5" y="9" width="74.5" height="1" fill="#999999"/>
<rect x="183.5" y="13" width="74.5" height="1" fill="#999999"/>
<rect x="183.5" y="7" width="74.5" height="1" fill="#999999"/>
<rect x="183.5" y="11" width="74.5" height="1" fill="#999999"/>
<rect x="183.5" y="15" width="74.5" height="1" fill="#999999"/>
<rect x="263.5" y="5.5" width="10" height="10" fill="url(#paint0_linear_576_18740)" stroke="#262626"/>
<path fill-rule="evenodd" clip-rule="evenodd" d="M264 15L265 15L265 7L273 7L273 6L265 6L264 6L264 7L264 15Z" fill="white"/>
<path fill-rule="evenodd" clip-rule="evenodd" d="M273 6H272V14H264V15H272H273V14V6Z" fill="#808080"/>
<path fill-rule="evenodd" clip-rule="evenodd" d="M275 4H274V16H262V17H274H275V4Z" fill="white"/>
<path fill-rule="evenodd" clip-rule="evenodd" d="M262 16L263 16L263 5L274 5L274 4L263 4L262 4L262 16Z" fill="#808080"/>
<rect x="263.5" y="5.5" width="6" height="6" stroke="#262626"/>
<rect x="5.5" y="5.5" width="10" height="10" fill="url(#paint1_linear_576_18740)" stroke="#262626"/>
<path fill-rule="evenodd" clip-rule="evenodd" d="M6 15L7 15L7 7L15 7L15 6L7 6L6 6L6 7L6 15Z" fill="white"/>
<path fill-rule="evenodd" clip-rule="evenodd" d="M15 6H14V14H6V15H14H15V14V6Z" fill="#808080"/>
<path fill-rule="evenodd" clip-rule="evenodd" d="M17 4H16V16H4V17H16H17V4Z" fill="white"/>
<path fill-rule="evenodd" clip-rule="evenodd" d="M4 16L5 16L5 5L16 5L16 4L5 4L4 4L4 16Z" fill="#808080"/>
<g filter="url(#filter1_d_576_18740)">
<g filter="url(#filter2_d_576_18740)">
<g clip-path="url(#clip0_576_18740)">
<rect x="258.5" y="20.5" width="15" height="498" fill="#EEEEEE" stroke="#262626"/>
</g>
<rect x="258.5" y="20.5" width="15" height="498" stroke="#262626"/>
<g clip-path="url(#clip1_576_18740)">
<g opacity="0.4">
<path fill-rule="evenodd" clip-rule="evenodd" d="M266.5 543L265.5 543L265.5 542.5L265 542.5L265 542L264.5 542L264.5 541.5L264 541.5L264 541L263.5 541L263.5 540.5L268.5 540.5L268.5 541L268 541L268 541.5L267.5 541.5L267.5 542L267 542L267 542.5L266.5 542.5L266.5 543Z" fill="#262626"/>
<rect opacity="0.8" width="1" height="0.5" transform="matrix(1 -1.74846e-07 -1.74846e-07 -1 265.5 543.5)" fill="#262626"/>
<rect opacity="0.8" width="0.5" height="0.5" transform="matrix(1 -1.74846e-07 -1.74846e-07 -1 265 543)" fill="#262626"/>
<rect opacity="0.8" width="0.5" height="0.5" transform="matrix(1 -1.74846e-07 -1.74846e-07 -1 266.5 543)" fill="#262626"/>
<rect opacity="0.8" width="0.5" height="0.5" transform="matrix(1 -1.74846e-07 -1.74846e-07 -1 267 542.5)" fill="#262626"/>
<rect opacity="0.8" width="0.5" height="0.5" transform="matrix(1 -1.74846e-07 -1.74846e-07 -1 264.5 542.5)" fill="#262626"/>
<rect opacity="0.8" width="0.5" height="0.5" transform="matrix(1 -1.74846e-07 -1.74846e-07 -1 264 542)" fill="#262626"/>
<rect opacity="0.8" width="0.5" height="0.5" transform="matrix(1 -1.74846e-07 -1.74846e-07 -1 267.5 542)" fill="#262626"/>
<rect opacity="0.8" width="0.5" height="0.5" transform="matrix(1 -1.74846e-07 -1.74846e-07 -1 268 541.5)" fill="#262626"/>
<rect opacity="0.8" width="0.5" height="0.5" transform="matrix(1 -1.74846e-07 -1.74846e-07 -1 263.5 541.5)" fill="#262626"/>
<rect opacity="0.8" width="0.5" height="0.5" transform="matrix(1 -1.74846e-07 -1.74846e-07 -1 263 541)" fill="#262626"/>
<rect opacity="0.8" width="0.5" height="0.5" transform="matrix(1 -1.74846e-07 -1.74846e-07 -1 268.5 541)" fill="#262626"/>
<rect opacity="0.7" width="0.5" height="1" transform="matrix(1 -1.74846e-07 -1.74846e-07 -1 269 541)" fill="#262626"/>
<rect opacity="0.7" width="0.5" height="1" transform="matrix(1 -1.74846e-07 -1.74846e-07 -1 262.5 541)" fill="#262626"/>
<rect opacity="0.7" width="6" height="0.5" transform="matrix(1 -1.74846e-07 -1.74846e-07 -1 263 540.5)" fill="#262626"/>
<rect opacity="0.7" width="0.5" height="0.5" transform="matrix(1 -1.74846e-07 -1.74846e-07 -1 263 541.5)" fill="#262626"/>
<rect opacity="0.4" width="6" height="0.5" transform="matrix(1 -1.74846e-07 -1.74846e-07 -1 263 540)" fill="#262626"/>
<rect opacity="0.2" width="0.5" height="0.5" transform="matrix(1 -1.74846e-07 -1.74846e-07 -1 265 544)" fill="#262626"/>
<rect opacity="0.2" width="0.5" height="0.5" transform="matrix(1 -1.74846e-07 -1.74846e-07 -1 266.5 544)" fill="#262626"/>
<rect opacity="0.2" width="0.5" height="0.5" transform="matrix(1 -1.74846e-07 -1.74846e-07 -1 267 543.5)" fill="#262626"/>
<rect opacity="0.2" width="0.5" height="0.5" transform="matrix(1 -1.74846e-07 -1.74846e-07 -1 264.5 543.5)" fill="#262626"/>
<rect opacity="0.2" width="0.5" height="0.5" transform="matrix(1 -1.74846e-07 -1.74846e-07 -1 264 543)" fill="#262626"/>
<rect opacity="0.2" width="0.5" height="0.5" transform="matrix(1 -1.74846e-07 -1.74846e-07 -1 267.5 543)" fill="#262626"/>
<rect opacity="0.2" width="0.5" height="0.5" transform="matrix(1 -1.74846e-07 -1.74846e-07 -1 268 542.5)" fill="#262626"/>
<rect opacity="0.2" width="0.5" height="0.5" transform="matrix(1 -1.74846e-07 -1.74846e-07 -1 263.5 542.5)" fill="#262626"/>
<rect opacity="0.2" width="0.5" height="0.5" transform="matrix(1 -1.74846e-07 -1.74846e-07 -1 263 542)" fill="#262626"/>
<rect opacity="0.2" width="0.5" height="0.5" transform="matrix(1 -1.74846e-07 -1.74846e-07 -1 268.5 542)" fill="#262626"/>
<rect opacity="0.2" width="0.5" height="0.5" transform="matrix(1 -1.74846e-07 -1.74846e-07 -1 269 541.5)" fill="#262626"/>
<rect opacity="0.2" width="0.5" height="0.5" transform="matrix(1 -1.74846e-07 -1.74846e-07 -1 269 540)" fill="#262626"/>
<rect opacity="0.05" width="0.5" height="0.5" transform="matrix(1 -1.74846e-07 -1.74846e-07 -1 269.5 540)" fill="#262626"/>
<rect opacity="0.05" width="0.5" height="0.5" transform="matrix(1 -1.74846e-07 -1.74846e-07 -1 262 540)" fill="#262626"/>
<rect opacity="0.05" width="0.5" height="0.5" transform="matrix(1 -1.74846e-07 -1.74846e-07 -1 269.5 541.5)" fill="#262626"/>
<rect opacity="0.05" width="0.5" height="0.5" transform="matrix(1 -1.74846e-07 -1.74846e-07 -1 262 541.5)" fill="#262626"/>
<rect opacity="0.05" width="0.5" height="0.5" transform="matrix(1 -1.74846e-07 -1.74846e-07 -1 263 542.5)" fill="#262626"/>
<rect opacity="0.05" width="0.5" height="0.5" transform="matrix(1 -1.74846e-07 -1.74846e-07 -1 264 543.5)" fill="#262626"/>
<rect opacity="0.05" width="0.5" height="0.5" transform="matrix(1 -1.74846e-07 -1.74846e-07 -1 267.5 543.5)" fill="#262626"/>
<rect opacity="0.05" width="0.5" height="0.5" transform="matrix(1 -1.74846e-07 -1.74846e-07 -1 268.5 542.5)" fill="#262626"/>
<rect opacity="0.2" width="0.5" height="0.5" transform="matrix(1 -1.74846e-07 -1.74846e-07 -1 262.5 541.5)" fill="#262626"/>
<rect opacity="0.2" width="0.5" height="0.5" transform="matrix(1 -1.74846e-07 -1.74846e-07 -1 262.5 540)" fill="#262626"/>
<rect opacity="0.2" width="0.5" height="1" transform="matrix(1 -1.74846e-07 -1.74846e-07 -1 262 541)" fill="#262626"/>
<rect opacity="0.2" width="0.5" height="1" transform="matrix(1 -1.74846e-07 -1.74846e-07 -1 269.5 541)" fill="#262626"/>
<rect opacity="0.7" width="0.5" height="0.5" transform="matrix(1 -1.74846e-07 -1.74846e-07 -1 263.5 542)" fill="#262626"/>
<rect opacity="0.7" width="0.5" height="0.5" transform="matrix(1 -1.74846e-07 -1.74846e-07 -1 264 542.5)" fill="#262626"/>
<rect opacity="0.7" width="0.5" height="0.5" transform="matrix(1 -1.74846e-07 -1.74846e-07 -1 264.5 543)" fill="#262626"/>
<rect opacity="0.7" width="0.5" height="0.5" transform="matrix(1 -1.74846e-07 -1.74846e-07 -1 265 543.5)" fill="#262626"/>
<rect opacity="0.7" width="0.5" height="0.5" transform="matrix(1 -1.74846e-07 -1.74846e-07 -1 266.5 543.5)" fill="#262626"/>
<rect opacity="0.7" width="0.5" height="0.5" transform="matrix(1 -1.74846e-07 -1.74846e-07 -1 267 543)" fill="#262626"/>
<rect opacity="0.7" width="0.5" height="0.5" transform="matrix(1 -1.74846e-07 -1.74846e-07 -1 267.5 542.5)" fill="#262626"/>
<rect opacity="0.7" width="0.5" height="0.5" transform="matrix(1 -1.74846e-07 -1.74846e-07 -1 268 542)" fill="#262626"/>
<rect opacity="0.7" width="0.5" height="0.5" transform="matrix(1 -1.74846e-07 -1.74846e-07 -1 268.5 541.5)" fill="#262626"/>
<rect opacity="0.7" width="1" height="0.5" transform="matrix(1 -1.74846e-07 -1.74846e-07 -1 265.5 544)" fill="#262626"/>
<rect opacity="0.2" width="1" height="0.5" transform="matrix(1 -1.74846e-07 -1.74846e-07 -1 265.5 544.5)" fill="#262626"/>
<rect opacity="0.05" width="0.5" height="0.5" transform="matrix(1 -1.74846e-07 -1.74846e-07 -1 265 544.5)" fill="#262626"/>
<rect opacity="0.05" width="0.5" height="0.5" transform="matrix(1 -1.74846e-07 -1.74846e-07 -1 266.5 544.5)" fill="#262626"/>
</g>
<rect opacity="0.4" x="259" y="534" width="14" height="1" fill="#262626"/>
<rect x="259" y="549" width="14" height="1" fill="#262626"/>
<rect x="258" y="534" width="1" height="16" fill="#262626"/>
<rect x="273" y="534" width="1" height="16" fill="#262626"/>
</g>
<g clip-path="url(#clip2_576_18740)">
<g opacity="0.4">
<path fill-rule="evenodd" clip-rule="evenodd" d="M266.5 525.5H265.5V526H265V526.5H264.5V527H264V527.5H263.5V528H268.5V527.5H268V527H267.5V526.5H267V526H266.5V525.5Z" fill="#262626"/>
<rect opacity="0.8" x="265.5" y="525" width="1" height="0.5" fill="#262626"/>
<rect opacity="0.8" x="265" y="525.5" width="0.5" height="0.5" fill="#262626"/>
<rect opacity="0.8" x="266.5" y="525.5" width="0.5" height="0.5" fill="#262626"/>
<rect opacity="0.8" x="267" y="526" width="0.5" height="0.5" fill="#262626"/>
<rect opacity="0.8" x="264.5" y="526" width="0.5" height="0.5" fill="#262626"/>
<rect opacity="0.8" x="264" y="526.5" width="0.5" height="0.5" fill="#262626"/>
<rect opacity="0.8" x="267.5" y="526.5" width="0.5" height="0.5" fill="#262626"/>
<rect opacity="0.8" x="268" y="527" width="0.5" height="0.5" fill="#262626"/>
<rect opacity="0.8" x="263.5" y="527" width="0.5" height="0.5" fill="#262626"/>
<rect opacity="0.8" x="263" y="527.5" width="0.5" height="0.5" fill="#262626"/>
<rect opacity="0.8" x="268.5" y="527.5" width="0.5" height="0.5" fill="#262626"/>
<rect opacity="0.7" x="269" y="527.5" width="0.5" height="1" fill="#262626"/>
<rect opacity="0.7" x="262.5" y="527.5" width="0.5" height="1" fill="#262626"/>
<rect opacity="0.7" x="263" y="528" width="6" height="0.5" fill="#262626"/>
<rect opacity="0.7" x="263" y="527" width="0.5" height="0.5" fill="#262626"/>
<rect opacity="0.4" x="263" y="528.5" width="6" height="0.5" fill="#262626"/>
<rect opacity="0.2" x="265.5" y="524" width="1" height="0.5" fill="#262626"/>
<rect opacity="0.2" x="265" y="524.5" width="0.5" height="0.5" fill="#262626"/>
<rect opacity="0.2" x="266.5" y="524.5" width="0.5" height="0.5" fill="#262626"/>
<rect opacity="0.2" x="267" y="525" width="0.5" height="0.5" fill="#262626"/>
<rect opacity="0.2" x="264.5" y="525" width="0.5" height="0.5" fill="#262626"/>
<rect opacity="0.2" x="264" y="525.5" width="0.5" height="0.5" fill="#262626"/>
<rect opacity="0.2" x="267.5" y="525.5" width="0.5" height="0.5" fill="#262626"/>
<rect opacity="0.2" x="268" y="526" width="0.5" height="0.5" fill="#262626"/>
<rect opacity="0.2" x="263.5" y="526" width="0.5" height="0.5" fill="#262626"/>
<rect opacity="0.2" x="263" y="526.5" width="0.5" height="0.5" fill="#262626"/>
<rect opacity="0.2" x="268.5" y="526.5" width="0.5" height="0.5" fill="#262626"/>
<rect opacity="0.2" x="269" y="527" width="0.5" height="0.5" fill="#262626"/>
<rect opacity="0.2" x="269" y="528.5" width="0.5" height="0.5" fill="#262626"/>
<rect opacity="0.05" x="269.5" y="528.5" width="0.5" height="0.5" fill="#262626"/>
<rect opacity="0.05" x="262" y="528.5" width="0.5" height="0.5" fill="#262626"/>
<rect opacity="0.05" x="269.5" y="527" width="0.5" height="0.5" fill="#262626"/>
<rect opacity="0.05" x="262" y="527" width="0.5" height="0.5" fill="#262626"/>
<rect opacity="0.05" x="263" y="526" width="0.5" height="0.5" fill="#262626"/>
<rect opacity="0.05" x="264" y="525" width="0.5" height="0.5" fill="#262626"/>
<rect opacity="0.05" x="265" y="524" width="0.5" height="0.5" fill="#262626"/>
<rect opacity="0.05" x="266.5" y="524" width="0.5" height="0.5" fill="#262626"/>
<rect opacity="0.05" x="267.5" y="525" width="0.5" height="0.5" fill="#262626"/>
<rect opacity="0.05" x="268.5" y="526" width="0.5" height="0.5" fill="#262626"/>
<rect opacity="0.2" x="262.5" y="527" width="0.5" height="0.5" fill="#262626"/>
<rect opacity="0.2" x="262.5" y="528.5" width="0.5" height="0.5" fill="#262626"/>
<rect opacity="0.2" x="262" y="527.5" width="0.5" height="1" fill="#262626"/>
<rect opacity="0.2" x="269.5" y="527.5" width="0.5" height="1" fill="#262626"/>
<rect opacity="0.7" x="263.5" y="526.5" width="0.5" height="0.5" fill="#262626"/>
<rect opacity="0.7" x="264" y="526" width="0.5" height="0.5" fill="#262626"/>
<rect opacity="0.7" x="264.5" y="525.5" width="0.5" height="0.5" fill="#262626"/>
<rect opacity="0.7" x="265" y="525" width="0.5" height="0.5" fill="#262626"/>
<rect opacity="0.7" x="266.5" y="525" width="0.5" height="0.5" fill="#262626"/>
<rect opacity="0.7" x="267" y="525.5" width="0.5" height="0.5" fill="#262626"/>
<rect opacity="0.7" x="267.5" y="526" width="0.5" height="0.5" fill="#262626"/>
<rect opacity="0.7" x="268" y="526.5" width="0.5" height="0.5" fill="#262626"/>
<rect opacity="0.7" x="268.5" y="527" width="0.5" height="0.5" fill="#262626"/>
<rect opacity="0.7" x="265.5" y="524.5" width="1" height="0.5" fill="#262626"/>
</g>
<rect x="258" y="519" width="1" height="16" fill="#262626"/>
<rect x="273" y="519" width="1" height="16" fill="#262626"/>
</g>
</g>
<g filter="url(#filter3_d_576_18740)">
<g clip-path="url(#clip3_576_18740)">
<rect x="5.5" y="550.5" width="221" height="15" fill="#EEEEEE" stroke="#262626"/>
</g>
<rect x="5.5" y="550.5" width="221" height="15" stroke="#262626"/>
<g clip-path="url(#clip4_576_18740)">
<g opacity="0.4">
<path fill-rule="evenodd" clip-rule="evenodd" d="M251.5 558.5L251.5 557.5L251 557.5L251 557L250.5 557L250.5 556.5L250 556.5L250 556L249.5 556L249.5 555.5L249 555.5L249 560.5L249.5 560.5L249.5 560L250 560L250 559.5L250.5 559.5L250.5 559L251 559L251 558.5L251.5 558.5Z" fill="#262626"/>
<rect opacity="0.8" x="252" y="557.5" width="1" height="0.5" transform="rotate(90 252 557.5)" fill="#262626"/>
<rect opacity="0.8" x="251.5" y="557" width="0.5" height="0.5" transform="rotate(90 251.5 557)" fill="#262626"/>
<rect opacity="0.8" x="251.5" y="558.5" width="0.5" height="0.5" transform="rotate(90 251.5 558.5)" fill="#262626"/>
<rect opacity="0.8" x="251" y="559" width="0.5" height="0.5" transform="rotate(90 251 559)" fill="#262626"/>
<rect opacity="0.8" x="251" y="556.5" width="0.5" height="0.5" transform="rotate(90 251 556.5)" fill="#262626"/>
<rect opacity="0.8" x="250.5" y="556" width="0.5" height="0.5" transform="rotate(90 250.5 556)" fill="#262626"/>
<rect opacity="0.8" x="250.5" y="559.5" width="0.5" height="0.5" transform="rotate(90 250.5 559.5)" fill="#262626"/>
<rect opacity="0.8" x="250" y="560" width="0.5" height="0.5" transform="rotate(90 250 560)" fill="#262626"/>
<rect opacity="0.8" x="250" y="555.5" width="0.5" height="0.5" transform="rotate(90 250 555.5)" fill="#262626"/>
<rect opacity="0.8" x="249.5" y="555" width="0.5" height="0.5" transform="rotate(90 249.5 555)" fill="#262626"/>
<rect opacity="0.8" x="249.5" y="560.5" width="0.5" height="0.5" transform="rotate(90 249.5 560.5)" fill="#262626"/>
<rect opacity="0.7" x="249.5" y="561" width="0.5" height="1" transform="rotate(90 249.5 561)" fill="#262626"/>
<rect opacity="0.7" x="249.5" y="554.5" width="0.5" height="1" transform="rotate(90 249.5 554.5)" fill="#262626"/>
<rect opacity="0.7" x="249" y="555" width="6" height="0.5" transform="rotate(90 249 555)" fill="#262626"/>
<rect opacity="0.7" x="250" y="555" width="0.5" height="0.5" transform="rotate(90 250 555)" fill="#262626"/>
<rect opacity="0.4" x="248.5" y="555" width="6" height="0.5" transform="rotate(90 248.5 555)" fill="#262626"/>
<rect opacity="0.2" x="253" y="557.5" width="1" height="0.5" transform="rotate(90 253 557.5)" fill="#262626"/>
<rect opacity="0.2" x="252.5" y="557" width="0.5" height="0.5" transform="rotate(90 252.5 557)" fill="#262626"/>
<rect opacity="0.2" x="252.5" y="558.5" width="0.5" height="0.5" transform="rotate(90 252.5 558.5)" fill="#262626"/>
<rect opacity="0.2" x="252" y="559" width="0.5" height="0.5" transform="rotate(90 252 559)" fill="#262626"/>
<rect opacity="0.2" x="252" y="556.5" width="0.5" height="0.5" transform="rotate(90 252 556.5)" fill="#262626"/>
<rect opacity="0.2" x="251.5" y="556" width="0.5" height="0.5" transform="rotate(90 251.5 556)" fill="#262626"/>
<rect opacity="0.2" x="251.5" y="559.5" width="0.5" height="0.5" transform="rotate(90 251.5 559.5)" fill="#262626"/>
<rect opacity="0.2" x="251" y="560" width="0.5" height="0.5" transform="rotate(90 251 560)" fill="#262626"/>
<rect opacity="0.2" x="251" y="555.5" width="0.5" height="0.5" transform="rotate(90 251 555.5)" fill="#262626"/>
<rect opacity="0.2" x="250.5" y="555" width="0.5" height="0.5" transform="rotate(90 250.5 555)" fill="#262626"/>
<rect opacity="0.2" x="250.5" y="560.5" width="0.5" height="0.5" transform="rotate(90 250.5 560.5)" fill="#262626"/>
<rect opacity="0.2" x="250" y="561" width="0.5" height="0.5" transform="rotate(90 250 561)" fill="#262626"/>
<rect opacity="0.2" x="248.5" y="561" width="0.5" height="0.5" transform="rotate(90 248.5 561)" fill="#262626"/>
<rect opacity="0.05" x="248.5" y="561.5" width="0.5" height="0.5" transform="rotate(90 248.5 561.5)" fill="#262626"/>
<rect opacity="0.05" x="248.5" y="554" width="0.5" height="0.5" transform="rotate(90 248.5 554)" fill="#262626"/>
<rect opacity="0.05" x="250" y="561.5" width="0.5" height="0.5" transform="rotate(90 250 561.5)" fill="#262626"/>
<rect opacity="0.05" x="250" y="554" width="0.5" height="0.5" transform="rotate(90 250 554)" fill="#262626"/>
<rect opacity="0.05" x="251" y="555" width="0.5" height="0.5" transform="rotate(90 251 555)" fill="#262626"/>
<rect opacity="0.05" x="252" y="556" width="0.5" height="0.5" transform="rotate(90 252 556)" fill="#262626"/>
<rect opacity="0.05" x="253" y="557" width="0.5" height="0.5" transform="rotate(90 253 557)" fill="#262626"/>
<rect opacity="0.05" x="253" y="558.5" width="0.5" height="0.5" transform="rotate(90 253 558.5)" fill="#262626"/>
<rect opacity="0.05" x="252" y="559.5" width="0.5" height="0.5" transform="rotate(90 252 559.5)" fill="#262626"/>
<rect opacity="0.05" x="251" y="560.5" width="0.5" height="0.5" transform="rotate(90 251 560.5)" fill="#262626"/>
<rect opacity="0.2" x="250" y="554.5" width="0.5" height="0.5" transform="rotate(90 250 554.5)" fill="#262626"/>
<rect opacity="0.2" x="248.5" y="554.5" width="0.5" height="0.5" transform="rotate(90 248.5 554.5)" fill="#262626"/>
<rect opacity="0.2" x="249.5" y="554" width="0.5" height="1" transform="rotate(90 249.5 554)" fill="#262626"/>
<rect opacity="0.2" x="249.5" y="561.5" width="0.5" height="1" transform="rotate(90 249.5 561.5)" fill="#262626"/>
<rect opacity="0.7" x="250.5" y="555.5" width="0.5" height="0.5" transform="rotate(90 250.5 555.5)" fill="#262626"/>
<rect opacity="0.7" x="251" y="556" width="0.5" height="0.5" transform="rotate(90 251 556)" fill="#262626"/>
<rect opacity="0.7" x="251.5" y="556.5" width="0.5" height="0.5" transform="rotate(90 251.5 556.5)" fill="#262626"/>
<rect opacity="0.7" x="252" y="557" width="0.5" height="0.5" transform="rotate(90 252 557)" fill="#262626"/>
<rect opacity="0.7" x="252" y="558.5" width="0.5" height="0.5" transform="rotate(90 252 558.5)" fill="#262626"/>
<rect opacity="0.7" x="251.5" y="559" width="0.5" height="0.5" transform="rotate(90 251.5 559)" fill="#262626"/>
<rect opacity="0.7" x="251" y="559.5" width="0.5" height="0.5" transform="rotate(90 251 559.5)" fill="#262626"/>
<rect opacity="0.7" x="250.5" y="560" width="0.5" height="0.5" transform="rotate(90 250.5 560)" fill="#262626"/>
<rect opacity="0.7" x="250" y="560.5" width="0.5" height="0.5" transform="rotate(90 250 560.5)" fill="#262626"/>
<rect opacity="0.7" x="252.5" y="557.5" width="1" height="0.5" transform="rotate(90 252.5 557.5)" fill="#262626"/>
</g>
<rect x="242" y="550" width="16" height="1" fill="#262626"/>
<rect x="242" y="565" width="16" height="1" fill="#262626"/>
<rect opacity="0.4" x="242" y="551" width="1" height="14" fill="#262626"/>
<rect x="257" y="551" width="1" height="14" fill="#262626"/>
</g>
<g clip-path="url(#clip5_576_18740)">
<g opacity="0.4">
<path fill-rule="evenodd" clip-rule="evenodd" d="M233.5 557.5L233.5 558.5L234 558.5L234 559L234.5 559L234.5 559.5L235 559.5L235 560L235.5 560L235.5 560.5L236 560.5L236 555.5L235.5 555.5L235.5 556L235 556L235 556.5L234.5 556.5L234.5 557L234 557L234 557.5L233.5 557.5Z" fill="#262626"/>
<rect opacity="0.8" x="233" y="558.5" width="1" height="0.5" transform="rotate(-90 233 558.5)" fill="#262626"/>
<rect opacity="0.8" x="233.5" y="559" width="0.5" height="0.5" transform="rotate(-90 233.5 559)" fill="#262626"/>
<rect opacity="0.8" x="233.5" y="557.5" width="0.5" height="0.5" transform="rotate(-90 233.5 557.5)" fill="#262626"/>
<rect opacity="0.8" x="234" y="557" width="0.5" height="0.5" transform="rotate(-90 234 557)" fill="#262626"/>
<rect opacity="0.8" x="234" y="559.5" width="0.5" height="0.5" transform="rotate(-90 234 559.5)" fill="#262626"/>
<rect opacity="0.8" x="234.5" y="560" width="0.5" height="0.5" transform="rotate(-90 234.5 560)" fill="#262626"/>
<rect opacity="0.8" x="234.5" y="556.5" width="0.5" height="0.5" transform="rotate(-90 234.5 556.5)" fill="#262626"/>
<rect opacity="0.8" x="235" y="556" width="0.5" height="0.5" transform="rotate(-90 235 556)" fill="#262626"/>
<rect opacity="0.8" x="235" y="560.5" width="0.5" height="0.5" transform="rotate(-90 235 560.5)" fill="#262626"/>
<rect opacity="0.8" x="235.5" y="561" width="0.5" height="0.5" transform="rotate(-90 235.5 561)" fill="#262626"/>
<rect opacity="0.8" x="235.5" y="555.5" width="0.5" height="0.5" transform="rotate(-90 235.5 555.5)" fill="#262626"/>
<rect opacity="0.7" x="235.5" y="555" width="0.5" height="1" transform="rotate(-90 235.5 555)" fill="#262626"/>
<rect opacity="0.7" x="235.5" y="561.5" width="0.5" height="1" transform="rotate(-90 235.5 561.5)" fill="#262626"/>
<rect opacity="0.7" x="236" y="561" width="6" height="0.5" transform="rotate(-90 236 561)" fill="#262626"/>
<rect opacity="0.7" x="235" y="561" width="0.5" height="0.5" transform="rotate(-90 235 561)" fill="#262626"/>
<rect opacity="0.4" x="236.5" y="561" width="6" height="0.5" transform="rotate(-90 236.5 561)" fill="#262626"/>
<rect opacity="0.2" x="232" y="558.5" width="1" height="0.5" transform="rotate(-90 232 558.5)" fill="#262626"/>
<rect opacity="0.2" x="232.5" y="559" width="0.5" height="0.5" transform="rotate(-90 232.5 559)" fill="#262626"/>
<rect opacity="0.2" x="232.5" y="557.5" width="0.5" height="0.5" transform="rotate(-90 232.5 557.5)" fill="#262626"/>
<rect opacity="0.2" x="233" y="557" width="0.5" height="0.5" transform="rotate(-90 233 557)" fill="#262626"/>
<rect opacity="0.2" x="233" y="559.5" width="0.5" height="0.5" transform="rotate(-90 233 559.5)" fill="#262626"/>
<rect opacity="0.2" x="233.5" y="560" width="0.5" height="0.5" transform="rotate(-90 233.5 560)" fill="#262626"/>
<rect opacity="0.2" x="233.5" y="556.5" width="0.5" height="0.5" transform="rotate(-90 233.5 556.5)" fill="#262626"/>
<rect opacity="0.2" x="234" y="556" width="0.5" height="0.5" transform="rotate(-90 234 556)" fill="#262626"/>
<rect opacity="0.2" x="234" y="560.5" width="0.5" height="0.5" transform="rotate(-90 234 560.5)" fill="#262626"/>
<rect opacity="0.2" x="234.5" y="561" width="0.5" height="0.5" transform="rotate(-90 234.5 561)" fill="#262626"/>
<rect opacity="0.2" x="234.5" y="555.5" width="0.5" height="0.5" transform="rotate(-90 234.5 555.5)" fill="#262626"/>
<rect opacity="0.2" x="235" y="555" width="0.5" height="0.5" transform="rotate(-90 235 555)" fill="#262626"/>
<rect opacity="0.2" x="236.5" y="555" width="0.5" height="0.5" transform="rotate(-90 236.5 555)" fill="#262626"/>
<rect opacity="0.05" x="236.5" y="554.5" width="0.5" height="0.5" transform="rotate(-90 236.5 554.5)" fill="#262626"/>
<rect opacity="0.05" x="236.5" y="562" width="0.5" height="0.5" transform="rotate(-90 236.5 562)" fill="#262626"/>
<rect opacity="0.05" x="235" y="554.5" width="0.5" height="0.5" transform="rotate(-90 235 554.5)" fill="#262626"/>
<rect opacity="0.05" x="235" y="562" width="0.5" height="0.5" transform="rotate(-90 235 562)" fill="#262626"/>
<rect opacity="0.05" x="234" y="561" width="0.5" height="0.5" transform="rotate(-90 234 561)" fill="#262626"/>
<rect opacity="0.05" x="233" y="560" width="0.5" height="0.5" transform="rotate(-90 233 560)" fill="#262626"/>
<rect opacity="0.05" x="232" y="559" width="0.5" height="0.5" transform="rotate(-90 232 559)" fill="#262626"/>
<rect opacity="0.05" x="232" y="557.5" width="0.5" height="0.5" transform="rotate(-90 232 557.5)" fill="#262626"/>
<rect opacity="0.05" x="233" y="556.5" width="0.5" height="0.5" transform="rotate(-90 233 556.5)" fill="#262626"/>
<rect opacity="0.05" x="234" y="555.5" width="0.5" height="0.5" transform="rotate(-90 234 555.5)" fill="#262626"/>
<rect opacity="0.2" x="235" y="561.5" width="0.5" height="0.5" transform="rotate(-90 235 561.5)" fill="#262626"/>
<rect opacity="0.2" x="236.5" y="561.5" width="0.5" height="0.5" transform="rotate(-90 236.5 561.5)" fill="#262626"/>
<rect opacity="0.2" x="235.5" y="562" width="0.5" height="1" transform="rotate(-90 235.5 562)" fill="#262626"/>
<rect opacity="0.2" x="235.5" y="554.5" width="0.5" height="1" transform="rotate(-90 235.5 554.5)" fill="#262626"/>
<rect opacity="0.7" x="234.5" y="560.5" width="0.5" height="0.5" transform="rotate(-90 234.5 560.5)" fill="#262626"/>
<rect opacity="0.7" x="234" y="560" width="0.5" height="0.5" transform="rotate(-90 234 560)" fill="#262626"/>
<rect opacity="0.7" x="233.5" y="559.5" width="0.5" height="0.5" transform="rotate(-90 233.5 559.5)" fill="#262626"/>
<rect opacity="0.7" x="233" y="559" width="0.5" height="0.5" transform="rotate(-90 233 559)" fill="#262626"/>
<rect opacity="0.7" x="233" y="557.5" width="0.5" height="0.5" transform="rotate(-90 233 557.5)" fill="#262626"/>
<rect opacity="0.7" x="233.5" y="557" width="0.5" height="0.5" transform="rotate(-90 233.5 557)" fill="#262626"/>
<rect opacity="0.7" x="234" y="556.5" width="0.5" height="0.5" transform="rotate(-90 234 556.5)" fill="#262626"/>
<rect opacity="0.7" x="234.5" y="556" width="0.5" height="0.5" transform="rotate(-90 234.5 556)" fill="#262626"/>
<rect opacity="0.7" x="235" y="555.5" width="0.5" height="0.5" transform="rotate(-90 235 555.5)" fill="#262626"/>
<rect opacity="0.7" x="232.5" y="558.5" width="1" height="0.5" transform="rotate(-90 232.5 558.5)" fill="#262626"/>
</g>
<rect x="227" y="550" width="16" height="1" fill="#262626"/>
<rect x="227" y="565" width="16" height="1" fill="#262626"/>
<rect opacity="0.4" x="242" y="551" width="1" height="14" fill="#262626"/>
</g>
</g>
<rect opacity="0.4" x="262" y="559" width="2" height="2" fill="white"/>
<rect opacity="0.4" x="263" y="560" width="2" height="2" fill="#808080"/>
<rect opacity="0.4" x="263" y="558" width="2" height="2" fill="white"/>
<rect opacity="0.4" x="264" y="559" width="2" height="2" fill="#808080"/>
<rect opacity="0.4" x="264" y="557" width="2" height="2" fill="white"/>
<rect opacity="0.4" x="265" y="558" width="2" height="2" fill="#808080"/>
<rect opacity="0.4" x="265" y="556" width="2" height="2" fill="white"/>
<rect opacity="0.4" x="266" y="557" width="2" height="2" fill="#808080"/>
<rect opacity="0.4" x="266" y="555" width="2" height="2" fill="white"/>
<rect opacity="0.4" x="267" y="556" width="2" height="2" fill="#808080"/>
<rect opacity="0.4" x="267" y="554" width="2" height="2" fill="white"/>
<rect opacity="0.4" x="268" y="555" width="2" height="2" fill="#808080"/>
<rect opacity="0.4" x="264" y="561" width="2" height="2" fill="white"/>
<rect opacity="0.4" x="265" y="562" width="2" height="2" fill="#808080"/>
<rect opacity="0.4" x="265" y="560" width="2" height="2" fill="white"/>
<rect opacity="0.4" x="266" y="561" width="2" height="2" fill="#808080"/>
<rect opacity="0.4" x="266" y="559" width="2" height="2" fill="white"/>
<rect opacity="0.4" x="267" y="560" width="2" height="2" fill="#808080"/>
<rect opacity="0.4" x="267" y="558" width="2" height="2" fill="white"/>
<rect opacity="0.4" x="268" y="559" width="2" height="2" fill="#808080"/>
<rect opacity="0.4" x="268" y="557" width="2" height="2" fill="white"/>
<rect opacity="0.4" x="269" y="558" width="2" height="2" fill="#808080"/>
<rect opacity="0.4" x="269" y="556" width="2" height="2" fill="white"/>
<rect opacity="0.4" x="270" y="557" width="2" height="2" fill="#808080"/>
<rect opacity="0.4" x="266" y="563" width="2" height="2" fill="white"/>
<rect opacity="0.4" x="267" y="564" width="2" height="2" fill="#808080"/>
<rect opacity="0.4" x="267" y="562" width="2" height="2" fill="white"/>
<rect opacity="0.4" x="268" y="563" width="2" height="2" fill="#808080"/>
<rect opacity="0.4" x="268" y="561" width="2" height="2" fill="white"/>
<rect opacity="0.4" x="269" y="562" width="2" height="2" fill="#808080"/>
<rect opacity="0.4" x="269" y="560" width="2" height="2" fill="white"/>
<rect opacity="0.4" x="270" y="561" width="2" height="2" fill="#808080"/>
<rect opacity="0.4" x="270" y="559" width="2" height="2" fill="white"/>
<rect opacity="0.4" x="271" y="560" width="2" height="2" fill="#808080"/>
<rect opacity="0.4" x="271" y="558" width="2" height="2" fill="white"/>
<rect opacity="0.4" x="272" y="559" width="2" height="2" fill="#808080"/>
</g>
</g>
<defs>
<filter id="filter0_ii_576_18740" x="0" y="0" width="279" height="567" filterUnits="userSpaceOnUse" color-interpolation-filters="sRGB">
<feFlood flood-opacity="0" result="BackgroundImageFix"/>
<feBlend mode="normal" in="SourceGraphic" in2="BackgroundImageFix" result="shape"/>
<feColorMatrix in="SourceAlpha" type="matrix" values="0 0 0 0 0 0 0 0 0 0 0 0 0 0 0 0 0 0 127 0" result="hardAlpha"/>
<feOffset dx="-2" dy="-2"/>
<feComposite in2="hardAlpha" operator="arithmetic" k2="-1" k3="1"/>
<feColorMatrix type="matrix" values="0 0 0 0 0.14902 0 0 0 0 0.14902 0 0 0 0 0.14902 0 0 0 0.4 0"/>
<feBlend mode="normal" in2="shape" result="effect1_innerShadow_576_18740"/>
<feColorMatrix in="SourceAlpha" type="matrix" values="0 0 0 0 0 0 0 0 0 0 0 0 0 0 0 0 0 0 127 0" result="hardAlpha"/>
<feOffset dx="2" dy="2"/>
<feComposite in2="hardAlpha" operator="arithmetic" k2="-1" k3="1"/>
<feColorMatrix type="matrix" values="0 0 0 0 0.14902 0 0 0 0 0.14902 0 0 0 0 0.14902 0 0 0 0.1 0"/>
<feBlend mode="normal" in2="effect1_innerShadow_576_18740" result="effect2_innerShadow_576_18740"/>
</filter>
<filter id="filter1_d_576_18740" x="0" y="19" width="278" height="547" filterUnits="userSpaceOnUse" color-interpolation-filters="sRGB">
<feFlood flood-opacity="0" result="BackgroundImageFix"/>
<feColorMatrix in="SourceAlpha" type="matrix" values="0 0 0 0 0 0 0 0 0 0 0 0 0 0 0 0 0 0 127 0" result="hardAlpha"/>
<feOffset dx="-1" dy="-1"/>
<feColorMatrix type="matrix" values="0 0 0 0 0.14902 0 0 0 0 0.14902 0 0 0 0 0.14902 0 0 0 0.4 0"/>
<feBlend mode="normal" in2="BackgroundImageFix" result="effect1_dropShadow_576_18740"/>
<feBlend mode="normal" in="SourceGraphic" in2="effect1_dropShadow_576_18740" result="shape"/>
</filter>
<filter id="filter2_d_576_18740" x="258" y="20" width="17" height="531" filterUnits="userSpaceOnUse" color-interpolation-filters="sRGB">
<feFlood flood-opacity="0" result="BackgroundImageFix"/>
<feColorMatrix in="SourceAlpha" type="matrix" values="0 0 0 0 0 0 0 0 0 0 0 0 0 0 0 0 0 0 127 0" result="hardAlpha"/>
<feOffset dx="1" dy="1"/>
<feColorMatrix type="matrix" values="0 0 0 0 1 0 0 0 0 1 0 0 0 0 1 0 0 0 1 0"/>
<feBlend mode="normal" in2="BackgroundImageFix" result="effect1_dropShadow_576_18740"/>
<feBlend mode="normal" in="SourceGraphic" in2="effect1_dropShadow_576_18740" result="shape"/>
</filter>
<filter id="filter3_d_576_18740" x="5" y="550" width="254" height="17" filterUnits="userSpaceOnUse" color-interpolation-filters="sRGB">
<feFlood flood-opacity="0" result="BackgroundImageFix"/>
<feColorMatrix in="SourceAlpha" type="matrix" values="0 0 0 0 0 0 0 0 0 0 0 0 0 0 0 0 0 0 127 0" result="hardAlpha"/>
<feOffset dx="1" dy="1"/>
<feColorMatrix type="matrix" values="0 0 0 0 1 0 0 0 0 1 0 0 0 0 1 0 0 0 1 0"/>
<feBlend mode="normal" in2="BackgroundImageFix" result="effect1_dropShadow_576_18740"/>
<feBlend mode="normal" in="SourceGraphic" in2="effect1_dropShadow_576_18740" result="shape"/>
</filter>
<linearGradient id="paint0_linear_576_18740" x1="264" y1="6" x2="273" y2="15" gradientUnits="userSpaceOnUse">
<stop stop-color="#9A9A9A"/>
<stop offset="1" stop-color="#F1F1F1"/>
</linearGradient>
<linearGradient id="paint1_linear_576_18740" x1="6" y1="6" x2="15" y2="15" gradientUnits="userSpaceOnUse">
<stop stop-color="#9A9A9A"/>
<stop offset="1" stop-color="#F1F1F1"/>
</linearGradient>
<clipPath id="clip0_576_18740">
<rect x="258" y="20" width="16" height="499" fill="white"/>
</clipPath>
<clipPath id="clip1_576_18740">
<rect width="16" height="16" fill="white" transform="translate(258 534)"/>
</clipPath>
<clipPath id="clip2_576_18740">
<rect width="16" height="16" fill="white" transform="translate(258 519)"/>
</clipPath>
<clipPath id="clip3_576_18740">
<rect x="5" y="550" width="222" height="16" fill="white"/>
</clipPath>
<clipPath id="clip4_576_18740">
<rect width="16" height="16" fill="white" transform="translate(242 550)"/>
</clipPath>
<clipPath id="clip5_576_18740">
<rect width="16" height="16" fill="white" transform="translate(227 550)"/>
</clipPath>
</defs>
</svg>
