<svg width="279" height="567" viewBox="0 0 279 567" fill="none" xmlns="http://www.w3.org/2000/svg">
<g filter="url(#filter0_ii_196_9396)">
<rect x="1" y="1" width="277" height="565" fill="#CCCCCC"/>
<rect x="0.5" y="0.5" width="278" height="566" stroke="#262626"/>
<rect width="277" height="19" transform="translate(1 1)" fill="#CCCCCC"/>
<rect x="19.7643" y="4" width="73.5191" height="13" fill="#DDDDDD"/>
<rect x="19.7643" y="4" width="1" height="13" fill="#EEEEEE"/>
<rect x="92.7643" y="4" width="1" height="13" fill="#C5C5C5"/>
<rect x="19.7643" y="5" width="73.9416" height="1" fill="#999999"/>
<rect x="19.7643" y="9" width="73.9416" height="1" fill="#999999"/>
<rect x="19.7643" y="13" width="73.9416" height="1" fill="#999999"/>
<rect x="19.7643" y="7" width="73.9416" height="1" fill="#999999"/>
<rect x="19.7643" y="11" width="73.9416" height="1" fill="#999999"/>
<rect x="19.7643" y="15" width="73.9416" height="1" fill="#999999"/>
<path d="M101.268 16H100.3V15.0312V14.0625V13.0938V12.125V11.1562V10.1875V9.21875V8.25V7.28125H101.268H102.237H103.206H104.175H105.143H106.112V8.25H105.143H104.175H103.206H102.237V9.21875V10.1875V11.1562H103.206H104.175H105.143V12.125H104.175H103.206H102.237V13.0938V14.0625V15.0312V16H101.268ZM112.312 16H111.343H110.375H109.406V15.0312H108.437V14.0625V13.0938V12.125V11.1562V10.1875H109.406V9.21875H110.375H111.343H112.312H113.281V10.1875H114.25V11.1562V12.125V13.0938V14.0625V15.0312H113.281V16H112.312ZM111.343 15.0312H112.312V14.0625V13.0938V12.125V11.1562V10.1875H111.343H110.375V11.1562V12.125V13.0938V14.0625V15.0312H111.343ZM117.543 16H116.575V15.0312V14.0625V13.0938V12.125V11.1562V10.1875V9.21875V8.25V7.28125H117.543H118.512V8.25V9.21875V10.1875V11.1562V12.125V13.0938V14.0625V15.0312V16H117.543ZM125.681 16H124.712H123.743H122.775H121.806V15.0312H120.837V14.0625V13.0938V12.125V11.1562V10.1875H121.806V9.21875H122.775H123.743H124.712V8.25V7.28125H125.681H126.65V8.25V9.21875V10.1875V11.1562V12.125V13.0938V14.0625V15.0312V16H125.681ZM123.743 15.0312H124.712V14.0625V13.0938V12.125V11.1562V10.1875H123.743H122.775V11.1562V12.125V13.0938V14.0625V15.0312H123.743ZM132.85 15.0312H133.818V16H132.85H131.881H130.912H129.943V15.0312H128.975V14.0625V13.0938V12.125V11.1562V10.1875H129.943V9.21875H130.912H131.881H132.85H133.818V10.1875H134.787V11.1562V12.125V13.0938H133.818H132.85H131.881H130.912V14.0625V15.0312H131.881H132.85ZM133.818 15.0312V14.0625H134.787V15.0312H133.818ZM131.881 12.125H132.85V11.1562V10.1875H131.881H130.912V11.1562V12.125H131.881ZM138.081 16H137.112V15.0312V14.0625V13.0938V12.125V11.1562V10.1875V9.21875H138.081H139.05V10.1875H140.018V9.21875H140.987H141.956V10.1875V11.1562H140.987H140.018H139.05V12.125V13.0938V14.0625V15.0312V16H138.081ZM152.418 16H151.45V15.0312V14.0625V13.0938V12.125V11.1562V10.1875V9.21875V8.25H150.481H149.512V7.28125H150.481H151.45H152.418H153.387H154.356H155.325V8.25H154.356H153.387V9.21875V10.1875V11.1562V12.125V13.0938V14.0625V15.0312V16H152.418ZM158.618 16H157.65V15.0312V14.0625V13.0938V12.125V11.1562V10.1875V9.21875H158.618H159.587V10.1875H160.556V9.21875H161.525H162.493V10.1875V11.1562H161.525H160.556H159.587V12.125V13.0938V14.0625V15.0312V16H158.618ZM168.693 15.0312H169.662V16H168.693H167.725H166.756H165.787V15.0312H164.818V14.0625V13.0938V12.125V11.1562V10.1875H165.787V9.21875H166.756H167.725H168.693H169.662V10.1875H170.631V11.1562V12.125V13.0938H169.662H168.693H167.725H166.756V14.0625V15.0312H167.725H168.693ZM169.662 15.0312V14.0625H170.631V15.0312H169.662ZM167.725 12.125H168.693V11.1562V10.1875H167.725H166.756V11.1562V12.125H167.725ZM176.831 15.0312H177.8V16H176.831H175.862H174.893H173.925V15.0312H172.956V14.0625V13.0938V12.125V11.1562V10.1875H173.925V9.21875H174.893H175.862H176.831H177.8V10.1875H178.768V11.1562V12.125V13.0938H177.8H176.831H175.862H174.893V14.0625V15.0312H175.862H176.831ZM177.8 15.0312V14.0625H178.768V15.0312H177.8ZM175.862 12.125H176.831V11.1562V10.1875H175.862H174.893V11.1562V12.125H175.862Z" fill="#262626"/>
<rect x="184.706" y="4" width="73.5191" height="13" fill="#DDDDDD"/>
<rect x="184.706" y="4" width="1" height="13" fill="#EEEEEE"/>
<rect x="257.706" y="4" width="1" height="13" fill="#C5C5C5"/>
<rect x="184.706" y="5" width="73.9416" height="1" fill="#999999"/>
<rect x="184.706" y="9" width="73.9416" height="1" fill="#999999"/>
<rect x="184.706" y="13" width="73.9416" height="1" fill="#999999"/>
<rect x="184.706" y="7" width="73.9416" height="1" fill="#999999"/>
<rect x="184.706" y="11" width="73.9416" height="1" fill="#999999"/>
<rect x="184.706" y="15" width="73.9416" height="1" fill="#999999"/>
<rect x="264.147" y="5.5" width="10" height="10" fill="url(#paint0_linear_196_9396)" stroke="#262626"/>
<path fill-rule="evenodd" clip-rule="evenodd" d="M264.647 15L265.647 15L265.647 7L273.647 7L273.647 6L265.647 6L264.647 6L264.647 7L264.647 15Z" fill="white"/>
<path fill-rule="evenodd" clip-rule="evenodd" d="M273.647 6H272.647V14H264.647V15H272.647H273.647V14V6Z" fill="#808080"/>
<path fill-rule="evenodd" clip-rule="evenodd" d="M275.647 4H274.647V16H262.647V17H274.647H275.647V4Z" fill="white"/>
<path fill-rule="evenodd" clip-rule="evenodd" d="M262.647 16L263.647 16L263.647 5L274.647 5L274.647 4L263.647 4L262.647 4L262.647 16Z" fill="#808080"/>
<rect x="264.147" y="5.5" width="6" height="6" stroke="#262626"/>
<rect x="5.5" y="5.5" width="10" height="10" fill="url(#paint1_linear_196_9396)" stroke="#262626"/>
<path fill-rule="evenodd" clip-rule="evenodd" d="M6 15L7 15L7 7L15 7L15 6L7 6L6 6L6 7L6 15Z" fill="white"/>
<path fill-rule="evenodd" clip-rule="evenodd" d="M15 6H14V14H6V15H14H15V14V6Z" fill="#808080"/>
<path fill-rule="evenodd" clip-rule="evenodd" d="M17 4H16V16H4V17H16H17V4Z" fill="white"/>
<path fill-rule="evenodd" clip-rule="evenodd" d="M4 16L5 16L5 5L16 5L16 4L5 4L4 4L4 16Z" fill="#808080"/>
</g>
<defs>
<filter id="filter0_ii_196_9396" x="0" y="0" width="279" height="567" filterUnits="userSpaceOnUse" color-interpolation-filters="sRGB">
<feFlood flood-opacity="0" result="BackgroundImageFix"/>
<feBlend mode="normal" in="SourceGraphic" in2="BackgroundImageFix" result="shape"/>
<feColorMatrix in="SourceAlpha" type="matrix" values="0 0 0 0 0 0 0 0 0 0 0 0 0 0 0 0 0 0 127 0" result="hardAlpha"/>
<feOffset dx="-2" dy="-2"/>
<feComposite in2="hardAlpha" operator="arithmetic" k2="-1" k3="1"/>
<feColorMatrix type="matrix" values="0 0 0 0 0.14902 0 0 0 0 0.14902 0 0 0 0 0.14902 0 0 0 0.4 0"/>
<feBlend mode="normal" in2="shape" result="effect1_innerShadow_196_9396"/>
<feColorMatrix in="SourceAlpha" type="matrix" values="0 0 0 0 0 0 0 0 0 0 0 0 0 0 0 0 0 0 127 0" result="hardAlpha"/>
<feOffset dx="2" dy="2"/>
<feComposite in2="hardAlpha" operator="arithmetic" k2="-1" k3="1"/>
<feColorMatrix type="matrix" values="0 0 0 0 0.14902 0 0 0 0 0.14902 0 0 0 0 0.14902 0 0 0 0.1 0"/>
<feBlend mode="normal" in2="effect1_innerShadow_196_9396" result="effect2_innerShadow_196_9396"/>
</filter>
<linearGradient id="paint0_linear_196_9396" x1="264.647" y1="6" x2="273.647" y2="15" gradientUnits="userSpaceOnUse">
<stop stop-color="#9A9A9A"/>
<stop offset="1" stop-color="#F1F1F1"/>
</linearGradient>
<linearGradient id="paint1_linear_196_9396" x1="6" y1="6" x2="15" y2="15" gradientUnits="userSpaceOnUse">
<stop stop-color="#9A9A9A"/>
<stop offset="1" stop-color="#F1F1F1"/>
</linearGradient>
</defs>
</svg>
