<svg width="279" height="567" viewBox="0 0 279 567" fill="none" xmlns="http://www.w3.org/2000/svg">
<g filter="url(#filter0_ii_308_21941)">
<rect x="1" y="1" width="277" height="565" fill="#CCCCCC"/>
<rect x="0.5" y="0.5" width="278" height="566" stroke="#262626"/>
<rect width="277" height="19" transform="translate(1 1)" fill="#CCCCCC"/>
<rect x="19.7642" y="4" width="74.5134" height="13" fill="#DDDDDD"/>
<rect x="19.7642" y="4" width="1" height="13" fill="#EEEEEE"/>
<rect x="93.7642" y="4" width="1" height="13" fill="#C5C5C5"/>
<rect x="19.7642" y="5" width="74.9416" height="1" fill="#999999"/>
<rect x="19.7642" y="9" width="74.9416" height="1" fill="#999999"/>
<rect x="19.7642" y="13" width="74.9416" height="1" fill="#999999"/>
<rect x="19.7642" y="7" width="74.9416" height="1" fill="#999999"/>
<rect x="19.7642" y="11" width="74.9416" height="1" fill="#999999"/>
<rect x="19.7642" y="15" width="74.9416" height="1" fill="#999999"/>
<path d="M102.081 16H101.143V15.0625V14.125V13.1875V12.25V11.3125V10.375V9.4375V8.5V7.5625H102.081H103.018H103.956H104.893H105.831H106.768V8.5H105.831H104.893H103.956H103.018V9.4375V10.375V11.3125H103.956H104.893H105.831V12.25H104.893H103.956H103.018V13.1875V14.125V15.0625V16H102.081ZM112.843 16H111.906H110.968H110.031V15.0625H109.093V14.125V13.1875V12.25V11.3125V10.375H110.031V9.4375H110.968H111.906H112.843H113.781V10.375H114.718V11.3125V12.25V13.1875V14.125V15.0625H113.781V16H112.843ZM111.906 15.0625H112.843V14.125V13.1875V12.25V11.3125V10.375H111.906H110.968V11.3125V12.25V13.1875V14.125V15.0625H111.906ZM117.981 16H117.043V15.0625V14.125V13.1875V12.25V11.3125V10.375V9.4375V8.5V7.5625H117.981H118.918V8.5V9.4375V10.375V11.3125V12.25V13.1875V14.125V15.0625V16H117.981ZM125.931 16H124.993H124.056H123.118H122.181V15.0625H121.243V14.125V13.1875V12.25V11.3125V10.375H122.181V9.4375H123.118H124.056H124.993V8.5V7.5625H125.931H126.868V8.5V9.4375V10.375V11.3125V12.25V13.1875V14.125V15.0625V16H125.931ZM124.056 15.0625H124.993V14.125V13.1875V12.25V11.3125V10.375H124.056H123.118V11.3125V12.25V13.1875V14.125V15.0625H124.056ZM132.943 15.0625H133.881V16H132.943H132.006H131.068H130.131V15.0625H129.193V14.125V13.1875V12.25V11.3125V10.375H130.131V9.4375H131.068H132.006H132.943H133.881V10.375H134.818V11.3125V12.25V13.1875H133.881H132.943H132.006H131.068V14.125V15.0625H132.006H132.943ZM133.881 15.0625V14.125H134.818V15.0625H133.881ZM132.006 12.25H132.943V11.3125V10.375H132.006H131.068V11.3125V12.25H132.006ZM138.081 16H137.143V15.0625V14.125V13.1875V12.25V11.3125V10.375V9.4375H138.081H139.018V10.375H139.956V9.4375H140.893H141.831V10.375V11.3125H140.893H139.956H139.018V12.25V13.1875V14.125V15.0625V16H138.081ZM152.106 16H151.168V15.0625V14.125V13.1875V12.25V11.3125V10.375V9.4375V8.5H150.231H149.293V7.5625H150.231H151.168H152.106H153.043H153.981H154.918V8.5H153.981H153.043V9.4375V10.375V11.3125V12.25V13.1875V14.125V15.0625V16H152.106ZM158.181 16H157.243V15.0625V14.125V13.1875V12.25V11.3125V10.375V9.4375H158.181H159.118V10.375H160.056V9.4375H160.993H161.931V10.375V11.3125H160.993H160.056H159.118V12.25V13.1875V14.125V15.0625V16H158.181ZM168.006 15.0625H168.943V16H168.006H167.068H166.131H165.193V15.0625H164.256V14.125V13.1875V12.25V11.3125V10.375H165.193V9.4375H166.131H167.068H168.006H168.943V10.375H169.881V11.3125V12.25V13.1875H168.943H168.006H167.068H166.131V14.125V15.0625H167.068H168.006ZM168.943 15.0625V14.125H169.881V15.0625H168.943ZM167.068 12.25H168.006V11.3125V10.375H167.068H166.131V11.3125V12.25H167.068ZM175.956 15.0625H176.893V16H175.956H175.018H174.081H173.143V15.0625H172.206V14.125V13.1875V12.25V11.3125V10.375H173.143V9.4375H174.081H175.018H175.956H176.893V10.375H177.831V11.3125V12.25V13.1875H176.893H175.956H175.018H174.081V14.125V15.0625H175.018H175.956ZM176.893 15.0625V14.125H177.831V15.0625H176.893ZM175.018 12.25H175.956V11.3125V10.375H175.018H174.081V11.3125V12.25H175.018Z" fill="#262626"/>
<rect x="183.706" y="4" width="74.5134" height="13" fill="#DDDDDD"/>
<rect x="183.706" y="4" width="1" height="13" fill="#EEEEEE"/>
<rect x="257.706" y="4" width="1" height="13" fill="#C5C5C5"/>
<rect x="183.706" y="5" width="74.9416" height="1" fill="#999999"/>
<rect x="183.706" y="9" width="74.9416" height="1" fill="#999999"/>
<rect x="183.706" y="13" width="74.9416" height="1" fill="#999999"/>
<rect x="183.706" y="7" width="74.9416" height="1" fill="#999999"/>
<rect x="183.706" y="11" width="74.9416" height="1" fill="#999999"/>
<rect x="183.706" y="15" width="74.9416" height="1" fill="#999999"/>
<rect x="264.147" y="5.5" width="10" height="10" fill="url(#paint0_linear_308_21941)" stroke="#262626"/>
<path fill-rule="evenodd" clip-rule="evenodd" d="M264.647 15L265.647 15L265.647 7L273.647 7L273.647 6L265.647 6L264.647 6L264.647 7L264.647 15Z" fill="white"/>
<path fill-rule="evenodd" clip-rule="evenodd" d="M273.647 6H272.647V14H264.647V15H272.647H273.647V14V6Z" fill="#808080"/>
<path fill-rule="evenodd" clip-rule="evenodd" d="M275.647 4H274.647V16H262.647V17H274.647H275.647V4Z" fill="white"/>
<path fill-rule="evenodd" clip-rule="evenodd" d="M262.647 16L263.647 16L263.647 5L274.647 5L274.647 4L263.647 4L262.647 4L262.647 16Z" fill="#808080"/>
<rect x="264.147" y="5.5" width="6" height="6" stroke="#262626"/>
<rect x="5.5" y="5.5" width="10" height="10" fill="url(#paint1_linear_308_21941)" stroke="#262626"/>
<path fill-rule="evenodd" clip-rule="evenodd" d="M6 15L7 15L7 7L15 7L15 6L7 6L6 6L6 7L6 15Z" fill="white"/>
<path fill-rule="evenodd" clip-rule="evenodd" d="M15 6H14V14H6V15H14H15V14V6Z" fill="#808080"/>
<path fill-rule="evenodd" clip-rule="evenodd" d="M17 4H16V16H4V17H16H17V4Z" fill="white"/>
<path fill-rule="evenodd" clip-rule="evenodd" d="M4 16L5 16L5 5L16 5L16 4L5 4L4 4L4 16Z" fill="#808080"/>
</g>
<defs>
<filter id="filter0_ii_308_21941" x="0" y="0" width="279" height="567" filterUnits="userSpaceOnUse" color-interpolation-filters="sRGB">
<feFlood flood-opacity="0" result="BackgroundImageFix"/>
<feBlend mode="normal" in="SourceGraphic" in2="BackgroundImageFix" result="shape"/>
<feColorMatrix in="SourceAlpha" type="matrix" values="0 0 0 0 0 0 0 0 0 0 0 0 0 0 0 0 0 0 127 0" result="hardAlpha"/>
<feOffset dx="-2" dy="-2"/>
<feComposite in2="hardAlpha" operator="arithmetic" k2="-1" k3="1"/>
<feColorMatrix type="matrix" values="0 0 0 0 0.14902 0 0 0 0 0.14902 0 0 0 0 0.14902 0 0 0 0.4 0"/>
<feBlend mode="normal" in2="shape" result="effect1_innerShadow_308_21941"/>
<feColorMatrix in="SourceAlpha" type="matrix" values="0 0 0 0 0 0 0 0 0 0 0 0 0 0 0 0 0 0 127 0" result="hardAlpha"/>
<feOffset dx="2" dy="2"/>
<feComposite in2="hardAlpha" operator="arithmetic" k2="-1" k3="1"/>
<feColorMatrix type="matrix" values="0 0 0 0 0.14902 0 0 0 0 0.14902 0 0 0 0 0.14902 0 0 0 0.1 0"/>
<feBlend mode="normal" in2="effect1_innerShadow_308_21941" result="effect2_innerShadow_308_21941"/>
</filter>
<linearGradient id="paint0_linear_308_21941" x1="264.647" y1="6" x2="273.647" y2="15" gradientUnits="userSpaceOnUse">
<stop stop-color="#9A9A9A"/>
<stop offset="1" stop-color="#F1F1F1"/>
</linearGradient>
<linearGradient id="paint1_linear_308_21941" x1="6" y1="6" x2="15" y2="15" gradientUnits="userSpaceOnUse">
<stop stop-color="#9A9A9A"/>
<stop offset="1" stop-color="#F1F1F1"/>
</linearGradient>
</defs>
</svg>
