<svg width="1116" height="514" viewBox="0 0 1116 514" fill="none" xmlns="http://www.w3.org/2000/svg">
<g filter="url(#filter0_ii_276_20437)">
<rect x="1" y="1" width="1114" height="512" fill="#DDDDDD"/>
<rect x="0.5" y="0.5" width="1115" height="513" stroke="#262626"/>
<rect width="1114" height="21" transform="translate(1 1)" fill="#CCCCCC"/>
<rect x="1077.34" y="5.80762" width="11.3846" height="11.3846" fill="url(#paint0_linear_276_20437)" stroke="#262626"/>
<path fill-rule="evenodd" clip-rule="evenodd" d="M1077.84 16.6921L1078.99 16.6921L1078.99 7.46137L1088.22 7.46137L1088.22 6.30752L1078.99 6.30752L1077.84 6.30752L1077.84 7.46137L1077.84 16.6921Z" fill="white"/>
<path fill-rule="evenodd" clip-rule="evenodd" d="M1088.22 6.30762H1087.07V15.5384H1077.84V16.6922H1087.07H1088.22V15.5384V6.30762Z" fill="#808080"/>
<path fill-rule="evenodd" clip-rule="evenodd" d="M1090.53 4H1089.38L1089.38 17.8462H1075.53V19L1089.38 19H1090.53V4Z" fill="white"/>
<path fill-rule="evenodd" clip-rule="evenodd" d="M1075.53 17.8462L1076.68 17.8462L1076.68 5.15388L1089.38 5.15388L1089.38 4.00004L1076.68 4.00004L1075.53 4.00004L1075.53 17.8462Z" fill="#808080"/>
<rect x="1077.34" y="5.80762" width="6.76923" height="6.76923" stroke="#262626"/>
<rect x="5.80762" y="5.80762" width="11.3846" height="11.3846" fill="url(#paint1_linear_276_20437)" stroke="#262626"/>
<path fill-rule="evenodd" clip-rule="evenodd" d="M6.30777 16.6921L7.46161 16.6921L7.46161 7.46137L16.6924 7.46137L16.6924 6.30752L7.46161 6.30752L6.30777 6.30752L6.30777 7.46137L6.30777 16.6921Z" fill="white"/>
<path fill-rule="evenodd" clip-rule="evenodd" d="M16.6922 6.30762H15.5384V15.5384H6.30762V16.6922H15.5384H16.6922V15.5384V6.30762Z" fill="#808080"/>
<path fill-rule="evenodd" clip-rule="evenodd" d="M19 4H17.8462L17.8462 17.8462H4V19L17.8462 19H19V4Z" fill="white"/>
<path fill-rule="evenodd" clip-rule="evenodd" d="M4.00004 17.8462L5.15388 17.8462L5.15388 5.15388L17.8462 5.15388L17.8462 4.00004L5.15388 4.00004L4.00004 4.00004L4.00004 17.8462Z" fill="#808080"/>
<rect x="1097.81" y="5.80762" width="11.3846" height="11.3846" fill="url(#paint2_linear_276_20437)" stroke="#262626"/>
<path fill-rule="evenodd" clip-rule="evenodd" d="M1098.31 16.6921L1099.46 16.6921L1099.46 7.46137L1108.69 7.46137L1108.69 6.30752L1099.46 6.30752L1098.31 6.30752L1098.31 7.46137L1098.31 16.6921Z" fill="white"/>
<path fill-rule="evenodd" clip-rule="evenodd" d="M1108.69 6.30762H1107.54V15.5384H1098.31V16.6922H1107.54H1108.69V15.5384V6.30762Z" fill="#808080"/>
<rect x="1097.81" y="10.4231" width="11.3846" height="2.15385" stroke="#262626"/>
<path fill-rule="evenodd" clip-rule="evenodd" d="M1111 4H1109.85L1109.85 17.8462H1096V19L1109.85 19H1111V4Z" fill="white"/>
<path fill-rule="evenodd" clip-rule="evenodd" d="M1096 17.8462L1097.15 17.8462L1097.15 5.15388L1109.85 5.15388L1109.85 4.00004L1097.15 4.00004L1096 4.00004L1096 17.8462Z" fill="#808080"/>
</g>
<defs>
<filter id="filter0_ii_276_20437" x="0" y="0" width="1116" height="514" filterUnits="userSpaceOnUse" color-interpolation-filters="sRGB">
<feFlood flood-opacity="0" result="BackgroundImageFix"/>
<feBlend mode="normal" in="SourceGraphic" in2="BackgroundImageFix" result="shape"/>
<feColorMatrix in="SourceAlpha" type="matrix" values="0 0 0 0 0 0 0 0 0 0 0 0 0 0 0 0 0 0 127 0" result="hardAlpha"/>
<feOffset dx="-2" dy="-2"/>
<feComposite in2="hardAlpha" operator="arithmetic" k2="-1" k3="1"/>
<feColorMatrix type="matrix" values="0 0 0 0 0.14902 0 0 0 0 0.14902 0 0 0 0 0.14902 0 0 0 0.4 0"/>
<feBlend mode="normal" in2="shape" result="effect1_innerShadow_276_20437"/>
<feColorMatrix in="SourceAlpha" type="matrix" values="0 0 0 0 0 0 0 0 0 0 0 0 0 0 0 0 0 0 127 0" result="hardAlpha"/>
<feOffset dx="2" dy="2"/>
<feComposite in2="hardAlpha" operator="arithmetic" k2="-1" k3="1"/>
<feColorMatrix type="matrix" values="0 0 0 0 0.14902 0 0 0 0 0.14902 0 0 0 0 0.14902 0 0 0 0.1 0"/>
<feBlend mode="normal" in2="effect1_innerShadow_276_20437" result="effect2_innerShadow_276_20437"/>
</filter>
<linearGradient id="paint0_linear_276_20437" x1="1077.84" y1="6.30762" x2="1088.22" y2="16.6922" gradientUnits="userSpaceOnUse">
<stop stop-color="#9A9A9A"/>
<stop offset="1" stop-color="#F1F1F1"/>
</linearGradient>
<linearGradient id="paint1_linear_276_20437" x1="6.30762" y1="6.30762" x2="16.6922" y2="16.6922" gradientUnits="userSpaceOnUse">
<stop stop-color="#9A9A9A"/>
<stop offset="1" stop-color="#F1F1F1"/>
</linearGradient>
<linearGradient id="paint2_linear_276_20437" x1="1098.31" y1="6.30762" x2="1108.69" y2="16.6922" gradientUnits="userSpaceOnUse">
<stop stop-color="#9A9A9A"/>
<stop offset="1" stop-color="#F1F1F1"/>
</linearGradient>
</defs>
</svg>
