<svg width="30" height="30" viewBox="0 0 30 30" fill="none" xmlns="http://www.w3.org/2000/svg">
<path d="M11.4706 0.882324H23.8235V2.64703H27.3529V4.41174H29.1176V7.94115H27.3529V9.70585H25.5882V11.4706H23.8235V15H22.0588V16.7647H18.5294V15H16.7647V13.2353H22.0588V11.4706H16.7647V9.70585H20.2941V7.94115H15V9.70585H13.2353V11.4706H11.4706V20.2941H9.70585V18.5294H7.94115V23.8235H11.4706V29.1176H9.70585V25.5882H6.17644V23.8235H4.41174V22.0588H2.64703V18.5294H0.882324V13.2353H2.64703V9.70585H4.41174V6.17644H6.17644V4.41174H7.94115V2.64703H11.4706V0.882324Z" fill="#1A1A1A"/>
<path d="M14.9997 7.94116H20.2939V9.70587H16.7644V11.4706H22.0586V13.2353H16.7644V15H18.5292V16.7647H22.0586V15H23.8233V16.7647H25.588V18.5294H23.8233V20.2941H22.0586V22.0588H23.8233V25.5882H18.5292V27.3529H20.2939V29.1176H11.4703V23.8235H7.94092V18.5294H9.70562V20.2941H11.4703V11.4706H13.235V9.70587H14.9997V7.94116Z" fill="white"/>
<path d="M23.8237 15H25.5884V16.7647H23.8237V15Z" fill="#1A1A1A"/>
<path d="M25.5884 16.7646H27.3531V18.5294H25.5884V16.7646Z" fill="#1A1A1A"/>
<path d="M23.8233 18.5294H25.588V25.5882H23.8233V22.0588H22.0586V20.2941H23.8233V18.5294Z" fill="#1A1A1A"/>
<path d="M18.5293 25.5883H23.8234V27.353H22.0587V29.1177H20.294V27.353H18.5293V25.5883Z" fill="#1A1A1A"/>
</svg>
