<svg width="452" height="302" viewBox="0 0 452 302" fill="none" xmlns="http://www.w3.org/2000/svg">
<g filter="url(#filter0_ii_604_38860)">
<rect x="1" y="1" width="450" height="300" fill="#CCCCCC"/>
<rect x="0.5" y="0.5" width="451" height="301" stroke="#262626"/>
<rect width="450" height="19" transform="translate(1 1)" fill="#CCCCCC"/>
<rect x="20.8662" y="4" width="131.898" height="13" fill="#DDDDDD"/>
<rect x="20.8662" y="4" width="1" height="13" fill="#EEEEEE"/>
<rect x="152.866" y="4" width="1" height="13" fill="#C5C5C5"/>
<rect x="20.8662" y="5" width="132.656" height="1" fill="#999999"/>
<rect x="20.8662" y="9" width="132.656" height="1" fill="#999999"/>
<rect x="20.8662" y="13" width="132.656" height="1" fill="#999999"/>
<rect x="20.8662" y="7" width="132.656" height="1" fill="#999999"/>
<rect x="20.8662" y="11" width="132.656" height="1" fill="#999999"/>
<rect x="20.8662" y="15" width="132.656" height="1" fill="#999999"/>
<path d="M163.66 9.4375V8.5H164.597V9.4375H163.66ZM162.722 16H161.785H160.847H159.91V15.0625H158.972V14.125V13.1875V12.25V11.3125V10.375V9.4375V8.5H159.91V7.5625H160.847H161.785H162.722H163.66V8.5H162.722H161.785H160.847V9.4375V10.375V11.3125V12.25V13.1875V14.125V15.0625H161.785H162.722V14.125V13.1875V12.25H161.785V11.3125H162.722H163.66H164.597V12.25V13.1875V14.125V15.0625H163.66V16H162.722ZM171.685 16H170.747V15.0625V14.125V13.1875V12.25H169.81H168.872V13.1875V14.125V15.0625V16H167.935H166.997V15.0625V14.125V13.1875V12.25V11.3125V10.375V9.4375V8.5H167.935V7.5625H168.872H169.81H170.747H171.685V8.5H172.622V9.4375V10.375V11.3125V12.25V13.1875V14.125V15.0625V16H171.685ZM169.81 11.3125H170.747V10.375V9.4375V8.5H169.81H168.872V9.4375V10.375V11.3125H169.81ZM181.585 16V15.0625H180.647V14.125H179.71V13.1875H178.772V12.25H177.835V11.3125H176.897V10.375H175.96V11.3125V12.25V13.1875V14.125V15.0625V16H175.022V15.0625V14.125V13.1875V12.25V11.3125V10.375V9.4375V8.5V7.5625H175.96V8.5H176.897V9.4375H177.835V10.375H178.772V11.3125H179.71V12.25H180.647V13.1875H181.585V12.25V11.3125V10.375V9.4375V8.5V7.5625H182.522V8.5V9.4375V10.375V11.3125V12.25V13.1875V14.125V15.0625V16H181.585ZM191.072 16H190.135V15.0625V14.125V13.1875V12.25V11.3125V10.375V9.4375V8.5V7.5625H191.072H192.01H192.947H193.885H194.822V8.5H195.76V9.4375V10.375V11.3125H194.822V12.25H193.885H192.947H192.01V13.1875V14.125V15.0625V16H191.072ZM192.947 11.3125H193.885V10.375V9.4375V8.5H192.947H192.01V9.4375V10.375V11.3125H192.947ZM201.91 15.0625H202.847V16H201.91H200.972H200.035H199.097V15.0625H198.16V14.125V13.1875V12.25V11.3125V10.375H199.097V9.4375H200.035H200.972H201.91H202.847V10.375H203.785V11.3125V12.25V13.1875H202.847H201.91H200.972H200.035V14.125V15.0625H200.972H201.91ZM202.847 15.0625V14.125H203.785V15.0625H202.847ZM200.972 12.25H201.91V11.3125V10.375H200.972H200.035V11.3125V12.25H200.972ZM207.122 16H206.185V15.0625V14.125V13.1875V12.25V11.3125V10.375V9.4375H207.122H208.06V10.375H208.997V9.4375H209.935H210.872V10.375V11.3125H209.935H208.997H208.06V12.25V13.1875V14.125V15.0625V16H207.122ZM217.022 11.3125V10.375H217.96V11.3125H217.022ZM216.085 16H215.147H214.21V15.0625H215.147H216.085V14.125H215.147V13.1875H214.21V12.25H213.272V11.3125V10.375H214.21V9.4375H215.147H216.085H217.022V10.375H216.085H215.147V11.3125H216.085V12.25H217.022V13.1875H217.96V14.125V15.0625H217.022V16H216.085ZM214.21 15.0625H213.272V14.125H214.21V15.0625ZM224.11 16H223.172H222.235H221.297V15.0625H220.36V14.125V13.1875V12.25V11.3125V10.375H221.297V9.4375H222.235H223.172H224.11H225.047V10.375H225.985V11.3125V12.25V13.1875V14.125V15.0625H225.047V16H224.11ZM223.172 15.0625H224.11V14.125V13.1875V12.25V11.3125V10.375H223.172H222.235V11.3125V12.25V13.1875V14.125V15.0625H223.172ZM233.072 16H232.135V15.0625V14.125V13.1875V12.25V11.3125V10.375H231.197H230.26V11.3125V12.25V13.1875V14.125V15.0625V16H229.322H228.385V15.0625V14.125V13.1875V12.25V11.3125V10.375V9.4375H229.322H230.26H231.197H232.135H233.072V10.375H234.01V11.3125V12.25V13.1875V14.125V15.0625V16H233.072ZM241.097 16H240.16H239.222H238.285H237.347V15.0625H236.41V14.125V13.1875V12.25H237.347V11.3125H236.41V10.375H237.347V9.4375H238.285H239.222H240.16H241.097V10.375H242.035V11.3125V12.25V13.1875V14.125V15.0625V16H241.097ZM239.222 15.0625H240.16V14.125V13.1875V12.25H239.222H238.285V13.1875V14.125V15.0625H239.222ZM239.222 11.3125H240.16V10.375H239.222H238.285H237.347V11.3125H238.285H239.222ZM245.372 16H244.435V15.0625V14.125V13.1875V12.25V11.3125V10.375V9.4375V8.5V7.5625H245.372H246.31V8.5V9.4375V10.375V11.3125V12.25V13.1875V14.125V15.0625V16H245.372ZM254.86 16H253.922V15.0625V14.125V13.1875V12.25V11.3125V10.375V9.4375V8.5V7.5625H254.86H255.797V8.5V9.4375V10.375V11.3125V12.25V13.1875V14.125V15.0625V16H254.86ZM266.635 16H265.697V15.0625V14.125V13.1875V12.25V11.3125V10.375H264.76H263.822V11.3125V12.25V13.1875V14.125V15.0625V16H262.885H261.947V15.0625V14.125V13.1875V12.25V11.3125V10.375H261.01H260.072V11.3125V12.25V13.1875V14.125V15.0625V16H259.135H258.197V15.0625V14.125V13.1875V12.25V11.3125V10.375V9.4375H259.135H260.072H261.01H261.947H262.885V10.375H263.822V9.4375H264.76H265.697H266.635V10.375H267.572V11.3125V12.25V13.1875V14.125V15.0625V16H266.635ZM274.66 16H273.722H272.785H271.847H270.91V15.0625H269.972V14.125V13.1875V12.25H270.91V11.3125H269.972V10.375H270.91V9.4375H271.847H272.785H273.722H274.66V10.375H275.597V11.3125V12.25V13.1875V14.125V15.0625V16H274.66ZM272.785 15.0625H273.722V14.125V13.1875V12.25H272.785H271.847V13.1875V14.125V15.0625H272.785ZM272.785 11.3125H273.722V10.375H272.785H271.847H270.91V11.3125H271.847H272.785ZM281.747 18.8125H280.81H279.872H278.935V17.875H279.872H280.81H281.747V16.9375V16H280.81H279.872H278.935V15.0625H277.997V14.125V13.1875V12.25V11.3125V10.375H278.935V9.4375H279.872H280.81H281.747H282.685H283.622V10.375V11.3125V12.25V13.1875V14.125V15.0625V16V16.9375V17.875H282.685V18.8125H281.747ZM278.935 17.875H277.997V16.9375H278.935V17.875ZM280.81 15.0625H281.747V14.125V13.1875V12.25V11.3125V10.375H280.81H279.872V11.3125V12.25V13.1875V14.125V15.0625H280.81ZM289.772 15.0625H290.71V16H289.772H288.835H287.897H286.96V15.0625H286.022V14.125V13.1875V12.25V11.3125V10.375H286.96V9.4375H287.897H288.835H289.772H290.71V10.375H291.647V11.3125V12.25V13.1875H290.71H289.772H288.835H287.897V14.125V15.0625H288.835H289.772ZM290.71 15.0625V14.125H291.647V15.0625H290.71ZM288.835 12.25H289.772V11.3125V10.375H288.835H287.897V11.3125V12.25H288.835Z" fill="#262626"/>
<rect x="297.522" y="4" width="131.898" height="13" fill="#DDDDDD"/>
<rect x="297.522" y="4" width="1" height="13" fill="#EEEEEE"/>
<rect x="429.522" y="4" width="1" height="13" fill="#C5C5C5"/>
<rect x="297.522" y="5" width="132.656" height="1" fill="#999999"/>
<rect x="297.522" y="9" width="132.656" height="1" fill="#999999"/>
<rect x="297.522" y="13" width="132.656" height="1" fill="#999999"/>
<rect x="297.522" y="7" width="132.656" height="1" fill="#999999"/>
<rect x="297.522" y="11" width="132.656" height="1" fill="#999999"/>
<rect x="297.522" y="15" width="132.656" height="1" fill="#999999"/>
<rect x="435.5" y="5.5" width="10" height="10" fill="url(#paint0_linear_604_38860)" stroke="#262626"/>
<path fill-rule="evenodd" clip-rule="evenodd" d="M436 15L437 15L437 7L445 7L445 6L437 6L436 6L436 7L436 15Z" fill="white"/>
<path fill-rule="evenodd" clip-rule="evenodd" d="M445 6H444V14H436V15H444H445V14V6Z" fill="#808080"/>
<rect x="435.5" y="9.5" width="10" height="2" stroke="#262626"/>
<path fill-rule="evenodd" clip-rule="evenodd" d="M447 4H446V16H434V17H446H447V4Z" fill="white"/>
<path fill-rule="evenodd" clip-rule="evenodd" d="M434 16L435 16L435 5L446 5L446 4L435 4L434 4L434 16Z" fill="#808080"/>
</g>
<defs>
<filter id="filter0_ii_604_38860" x="0" y="0" width="452" height="302" filterUnits="userSpaceOnUse" color-interpolation-filters="sRGB">
<feFlood flood-opacity="0" result="BackgroundImageFix"/>
<feBlend mode="normal" in="SourceGraphic" in2="BackgroundImageFix" result="shape"/>
<feColorMatrix in="SourceAlpha" type="matrix" values="0 0 0 0 0 0 0 0 0 0 0 0 0 0 0 0 0 0 127 0" result="hardAlpha"/>
<feOffset dx="-2" dy="-2"/>
<feComposite in2="hardAlpha" operator="arithmetic" k2="-1" k3="1"/>
<feColorMatrix type="matrix" values="0 0 0 0 0.14902 0 0 0 0 0.14902 0 0 0 0 0.14902 0 0 0 0.4 0"/>
<feBlend mode="normal" in2="shape" result="effect1_innerShadow_604_38860"/>
<feColorMatrix in="SourceAlpha" type="matrix" values="0 0 0 0 0 0 0 0 0 0 0 0 0 0 0 0 0 0 127 0" result="hardAlpha"/>
<feOffset dx="2" dy="2"/>
<feComposite in2="hardAlpha" operator="arithmetic" k2="-1" k3="1"/>
<feColorMatrix type="matrix" values="0 0 0 0 0.14902 0 0 0 0 0.14902 0 0 0 0 0.14902 0 0 0 0.1 0"/>
<feBlend mode="normal" in2="effect1_innerShadow_604_38860" result="effect2_innerShadow_604_38860"/>
</filter>
<linearGradient id="paint0_linear_604_38860" x1="436" y1="6" x2="445" y2="15" gradientUnits="userSpaceOnUse">
<stop stop-color="#9A9A9A"/>
<stop offset="1" stop-color="#F1F1F1"/>
</linearGradient>
</defs>
</svg>
