<svg width="154" height="28" viewBox="0 0 154 28" fill="none" xmlns="http://www.w3.org/2000/svg">
<path fill-rule="evenodd" clip-rule="evenodd" d="M8 3H4V4H3V20H4V25H8V20V4V3Z" fill="#DDDDDD"/>
<rect x="2" y="4" width="1" height="20" fill="#262626"/>
<rect y="3" width="1" height="22" fill="#262626"/>
<rect x="3" y="3" width="1" height="1" fill="#262626"/>
<rect opacity="0.6" x="5" y="3" width="3" height="1" fill="white"/>
<rect opacity="0.6" x="5" y="4" width="1" height="1" fill="white"/>
<rect x="4" y="2" width="4" height="1" fill="#262626"/>
<rect x="3" y="24" width="1" height="1" fill="#262626"/>
<rect x="3" y="25" width="1" height="1" fill="#9D9D9D"/>
<rect x="2" y="24" width="1" height="2" fill="#848484"/>
<rect x="2" y="26" width="1" height="1" fill="#848484"/>
<rect x="2" y="1" width="1" height="1" fill="#848484"/>
<rect x="2" y="1" width="6" height="0.5" fill="#B7B7B7"/>
<rect x="2" y="1.5" width="6" height="0.5" fill="#D0D0D0"/>
<rect x="4" y="25" width="4" height="1" fill="#262626"/>
<rect x="3" y="4" width="1" height="20" fill="#808080"/>
<rect opacity="0.6" x="4" y="3" width="1" height="22" fill="#AFAFAF"/>
<rect y="2" width="1" height="1" fill="#262626"/>
<rect y="25" width="1" height="1" fill="#262626"/>
<rect x="1" y="1" width="1" height="1" fill="#262626"/>
<rect x="2" width="6" height="1" fill="#262626"/>
<rect x="2" y="27" width="6" height="1" fill="#262626"/>
<rect x="3" y="26" width="5" height="1" fill="#9D9D9D"/>
<rect x="2" y="26.5" width="6" height="0.5" fill="#848484"/>
<rect x="2" y="2" width="24" height="1" transform="rotate(90 2 2)" fill="#D0D0D0"/>
<rect x="1.5" y="2" width="24" height="0.5" transform="rotate(90 1.5 2)" fill="#B7B7B7"/>
<rect x="1" y="25" width="1" height="1" fill="#B7B7B7"/>
<rect x="1" y="2" width="1" height="1" fill="#B7B7B7"/>
<rect x="2" y="1" width="1" height="1" fill="#B7B7B7"/>
<rect x="1" y="26" width="1" height="1" fill="#262626"/>
<rect opacity="0.5" x="4" y="24" width="4" height="1" fill="#808080"/>
<rect width="137" height="28" transform="translate(8)" fill="#DDDDDD"/>
<rect x="8" width="137" height="1" fill="#262626"/>
<rect x="8" y="2" width="137" height="1" fill="#262626"/>
<rect x="8" y="1" width="137" height="0.5" fill="#B7B7B7"/>
<rect x="8" y="1.5" width="137" height="0.5" fill="#D0D0D0"/>
<rect opacity="0.6" x="8" y="3" width="137" height="1" fill="white"/>
<path d="M24.6875 16.5625H25.625V17.5H24.6875H23.75H22.8125H21.875H20.9375V16.5625V15.625V14.6875V13.75V12.8125V11.875V10.9375V10V9.0625H21.875H22.8125V10V10.9375V11.875V12.8125V13.75V14.6875V15.625V16.5625H23.75H24.6875ZM31.25 17.5H30.3125H29.375H28.4375V16.5625H27.5V15.625V14.6875V13.75V12.8125V11.875H28.4375V10.9375H29.375H30.3125H31.25H32.1875V11.875H33.125V12.8125V13.75V14.6875V15.625V16.5625H32.1875V17.5H31.25ZM30.3125 16.5625H31.25V15.625V14.6875V13.75V12.8125V11.875H30.3125H29.375V12.8125V13.75V14.6875V15.625V16.5625H30.3125ZM38.75 20.3125H37.8125H36.875H35.9375V19.375H36.875H37.8125H38.75V18.4375V17.5H37.8125H36.875H35.9375V16.5625H35V15.625V14.6875V13.75V12.8125V11.875H35.9375V10.9375H36.875H37.8125H38.75H39.6875H40.625V11.875V12.8125V13.75V14.6875V15.625V16.5625V17.5V18.4375V19.375H39.6875V20.3125H38.75ZM35.9375 19.375H35V18.4375H35.9375V19.375ZM37.8125 16.5625H38.75V15.625V14.6875V13.75V12.8125V11.875H37.8125H36.875V12.8125V13.75V14.6875V15.625V16.5625H37.8125ZM43.4375 17.5H42.5V16.5625V15.625V14.6875V13.75V12.8125V11.875V10.9375H43.4375H44.375V11.875V12.8125V13.75V14.6875V15.625V16.5625V17.5H43.4375ZM43.4375 9.0625H44.375V10H43.4375H42.5V9.0625H43.4375ZM50.9375 17.5H50V16.5625V15.625V14.6875V13.75V12.8125V11.875H49.0625H48.125V12.8125V13.75V14.6875V15.625V16.5625V17.5H47.1875H46.25V16.5625V15.625V14.6875V13.75V12.8125V11.875V10.9375H47.1875H48.125H49.0625H50H50.9375V11.875H51.875V12.8125V13.75V14.6875V15.625V16.5625V17.5H50.9375ZM65 16.5625H65.9375V17.5H65H64.0625H63.125H62.1875H61.25H60.3125H59.375H58.4375V16.5625V15.625V14.6875V13.75V12.8125V11.875V10.9375H59.375H60.3125V11.875V12.8125V13.75V14.6875V15.625V16.5625H61.25H62.1875V15.625V14.6875V13.75V12.8125V11.875V10.9375H63.125H64.0625V11.875V12.8125V13.75V14.6875V15.625V16.5625H65ZM65.9375 16.5625V15.625V14.6875V13.75V12.8125V11.875V10.9375H66.875H67.8125V11.875V12.8125V13.75V14.6875V15.625H66.875V16.5625H65.9375ZM70.625 17.5H69.6875V16.5625V15.625V14.6875V13.75V12.8125V11.875V10.9375H70.625H71.5625V11.875V12.8125V13.75V14.6875V15.625V16.5625V17.5H70.625ZM70.625 9.0625H71.5625V10H70.625H69.6875V9.0625H70.625ZM76.25 17.5H75.3125V16.5625H74.375V15.625V14.6875V13.75V12.8125V11.875H73.4375V10.9375H74.375V10V9.0625H75.3125H76.25V10V10.9375H77.1875V11.875H76.25V12.8125V13.75V14.6875V15.625V16.5625H77.1875V17.5H76.25ZM83.75 17.5H82.8125V16.5625V15.625V14.6875V13.75V12.8125V11.875H81.875H80.9375V12.8125V13.75V14.6875V15.625V16.5625V17.5H80H79.0625V16.5625V15.625V14.6875V13.75V12.8125V11.875V10.9375V10V9.0625H80H80.9375V10V10.9375H81.875H82.8125H83.75V11.875H84.6875V12.8125V13.75V14.6875V15.625V16.5625V17.5H83.75ZM95 20.3125H94.0625H93.125H92.1875V19.375H93.125H94.0625H95V18.4375V17.5H94.0625H93.125H92.1875V16.5625H91.25V15.625V14.6875V13.75V12.8125V11.875H92.1875V10.9375H93.125H94.0625H95H95.9375H96.875V11.875V12.8125V13.75V14.6875V15.625V16.5625V17.5V18.4375V19.375H95.9375V20.3125H95ZM92.1875 19.375H91.25V18.4375H92.1875V19.375ZM94.0625 16.5625H95V15.625V14.6875V13.75V12.8125V11.875H94.0625H93.125V12.8125V13.75V14.6875V15.625V16.5625H94.0625ZM102.5 17.5H101.562H100.625H99.6875V16.5625H98.75V15.625V14.6875V13.75V12.8125V11.875H99.6875V10.9375H100.625H101.562H102.5H103.438V11.875H104.375V12.8125V13.75V14.6875V15.625V16.5625H103.438V17.5H102.5ZM101.562 16.5625H102.5V15.625V14.6875V13.75V12.8125V11.875H101.562H100.625V12.8125V13.75V14.6875V15.625V16.5625H101.562ZM110 17.5H109.062H108.125H107.188V16.5625H106.25V15.625V14.6875V13.75V12.8125V11.875H107.188V10.9375H108.125H109.062H110H110.938V11.875H111.875V12.8125V13.75V14.6875V15.625V16.5625H110.938V17.5H110ZM109.062 16.5625H110V15.625V14.6875V13.75V12.8125V11.875H109.062H108.125V12.8125V13.75V14.6875V15.625V16.5625H109.062ZM117.5 20.3125H116.562H115.625H114.688V19.375H115.625H116.562H117.5V18.4375V17.5H116.562H115.625H114.688V16.5625H113.75V15.625V14.6875V13.75V12.8125V11.875H114.688V10.9375H115.625H116.562H117.5H118.438H119.375V11.875V12.8125V13.75V14.6875V15.625V16.5625V17.5V18.4375V19.375H118.438V20.3125H117.5ZM114.688 19.375H113.75V18.4375H114.688V19.375ZM116.562 16.5625H117.5V15.625V14.6875V13.75V12.8125V11.875H116.562H115.625V12.8125V13.75V14.6875V15.625V16.5625H116.562ZM122.188 17.5H121.25V16.5625V15.625V14.6875V13.75V12.8125V11.875V10.9375V10V9.0625H122.188H123.125V10V10.9375V11.875V12.8125V13.75V14.6875V15.625V16.5625V17.5H122.188ZM128.75 16.5625H129.688V17.5H128.75H127.812H126.875H125.938V16.5625H125V15.625V14.6875V13.75V12.8125V11.875H125.938V10.9375H126.875H127.812H128.75H129.688V11.875H130.625V12.8125V13.75V14.6875H129.688H128.75H127.812H126.875V15.625V16.5625H127.812H128.75ZM129.688 16.5625V15.625H130.625V16.5625H129.688ZM127.812 13.75H128.75V12.8125V11.875H127.812H126.875V12.8125V13.75H127.812Z" fill="#262626"/>
<rect x="8" y="25" width="137" height="1" fill="#262626"/>
<rect opacity="0.5" x="8" y="24" width="137" height="1" fill="#808080"/>
<rect x="8" y="27" width="137" height="1" fill="#262626"/>
<rect x="8" y="26" width="137" height="0.5" fill="#9D9D9D"/>
<rect x="8" y="26.5" width="137" height="0.5" fill="#848484"/>
<path fill-rule="evenodd" clip-rule="evenodd" d="M145.044 25L149.522 25L149.522 20L150.641 20L150.641 4L149.522 4L149.522 3L145.044 3L145.044 25Z" fill="#DDDDDD"/>
<rect x="151.75" y="24" width="1.11943" height="20" transform="rotate(-180 151.75 24)" fill="#262626"/>
<rect x="154" y="25" width="1.125" height="22" transform="rotate(-180 154 25)" fill="#262626"/>
<rect x="150.625" y="25" width="1.11943" height="1" transform="rotate(-180 150.625 25)" fill="#262626"/>
<rect opacity="0.5" x="148.375" y="25" width="3.375" height="1" transform="rotate(-180 148.375 25)" fill="#808080"/>
<rect opacity="0.5" x="148.375" y="24" width="1.11943" height="1" transform="rotate(-180 148.375 24)" fill="#808080"/>
<rect x="149.5" y="26" width="4.5" height="1" transform="rotate(-180 149.5 26)" fill="#262626"/>
<rect x="150.625" y="4" width="1.11943" height="1" transform="rotate(-180 150.625 4)" fill="#262626"/>
<rect x="149.5" y="3" width="4.5" height="1" transform="rotate(-180 149.5 3)" fill="#262626"/>
<rect x="150.625" y="24" width="1.11943" height="20" transform="rotate(-180 150.625 24)" fill="#808080"/>
<rect opacity="0.5" x="149.5" y="25" width="1.11943" height="22" transform="rotate(-180 149.5 25)" fill="#808080"/>
<rect x="154" y="26" width="1.125" height="1" transform="rotate(-180 154 26)" fill="#262626"/>
<rect x="154" y="3" width="1.125" height="1" transform="rotate(-180 154 3)" fill="#262626"/>
<rect x="152.875" y="27" width="1.125" height="1" transform="rotate(-180 152.875 27)" fill="#262626"/>
<rect x="151.75" y="28" width="6.75" height="1" transform="rotate(-180 151.75 28)" fill="#262626"/>
<rect x="145" y="26" width="6.75" height="0.5" fill="#9D9D9D"/>
<rect x="145" y="26.5" width="6.75" height="0.5" fill="#848484"/>
<rect x="151.75" y="1" width="6.75" height="1" transform="rotate(-180 151.75 1)" fill="#262626"/>
<rect x="152.875" y="2" width="1.125" height="1" transform="rotate(-180 152.875 2)" fill="#262626"/>
<rect x="151.75" y="1.5" width="6.73894" height="0.5" transform="rotate(-180 151.75 1.5)" fill="#B7B7B7"/>
<rect x="151.75" y="2" width="6.73894" height="0.5" transform="rotate(-180 151.75 2)" fill="#D0D0D0"/>
<rect opacity="0.6" x="149.522" y="4" width="4.47773" height="1" transform="rotate(-180 149.522 4)" fill="white"/>
<rect width="1.125" height="1" transform="matrix(-1 -9.71364e-09 1.09278e-08 1 151.75 26)" fill="#848484"/>
<rect width="1.125" height="2" transform="matrix(-1 -9.71364e-09 1.09278e-08 1 152.875 24)" fill="#848484"/>
<rect width="22" height="1.125" transform="matrix(6.01031e-08 1 1 -2.91409e-08 151.75 2)" fill="#9D9D9D"/>
<rect width="23" height="0.5625" transform="matrix(6.01031e-08 1 1 -2.91409e-08 152.312 2)" fill="#848484"/>
<rect width="1.125" height="2" transform="matrix(-1 -9.71364e-09 1.09278e-08 1 151.75 24)" fill="#848484"/>
<rect width="1.125" height="1" transform="matrix(-1 -9.71364e-09 1.09278e-08 1 150.625 25)" fill="#9D9D9D"/>
<rect width="1.125" height="1" transform="matrix(-1 -9.71364e-09 1.09278e-08 1 152.875 2)" fill="#848484"/>
<rect width="1.125" height="1" transform="matrix(-1 -9.71364e-09 1.09278e-08 1 151.75 1)" fill="#848484"/>
<rect width="1.125" height="1" transform="matrix(-1 -9.71364e-09 1.09278e-08 1 150.625 2)" fill="#D0D0D0"/>
<rect width="1.125" height="1" transform="matrix(-1 -9.71364e-09 1.09278e-08 1 151.75 2)" fill="#9D9D9D"/>
<rect width="1.125" height="1" transform="matrix(-1 -9.71364e-09 1.09278e-08 1 151.75 3)" fill="#9D9D9D"/>
</svg>
