<svg width="154" height="28" viewBox="0 0 154 28" fill="none" xmlns="http://www.w3.org/2000/svg">
<path fill-rule="evenodd" clip-rule="evenodd" d="M8 3H4V4H3V20H4V25H8V20V4V3Z" fill="#DDDDDD"/>
<rect x="2" y="4" width="1" height="20" fill="#262626"/>
<rect y="3" width="1" height="22" fill="#262626"/>
<rect x="3" y="3" width="1" height="1" fill="#262626"/>
<rect opacity="0.6" x="5" y="3" width="3" height="1" fill="white"/>
<rect opacity="0.6" x="5" y="4" width="1" height="1" fill="white"/>
<rect x="4" y="2" width="4" height="1" fill="#262626"/>
<rect x="3" y="24" width="1" height="1" fill="#262626"/>
<rect x="3" y="25" width="1" height="1" fill="#9D9D9D"/>
<rect x="2" y="24" width="1" height="2" fill="#848484"/>
<rect x="2" y="26" width="1" height="1" fill="#848484"/>
<rect x="2" y="1" width="1" height="1" fill="#848484"/>
<rect x="2" y="1" width="6" height="0.5" fill="#B7B7B7"/>
<rect x="2" y="1.5" width="6" height="0.5" fill="#D0D0D0"/>
<rect x="4" y="25" width="4" height="1" fill="#262626"/>
<rect x="3" y="4" width="1" height="20" fill="#808080"/>
<rect opacity="0.6" x="4" y="3" width="1" height="22" fill="#AFAFAF"/>
<rect y="2" width="1" height="1" fill="#262626"/>
<rect y="25" width="1" height="1" fill="#262626"/>
<rect x="1" y="1" width="1" height="1" fill="#262626"/>
<rect x="2" width="6" height="1" fill="#262626"/>
<rect x="2" y="27" width="6" height="1" fill="#262626"/>
<rect x="3" y="26" width="5" height="1" fill="#9D9D9D"/>
<rect x="2" y="26.5" width="6" height="0.5" fill="#848484"/>
<rect x="2" y="2" width="24" height="1" transform="rotate(90 2 2)" fill="#D0D0D0"/>
<rect x="1.5" y="2" width="24" height="0.5" transform="rotate(90 1.5 2)" fill="#B7B7B7"/>
<rect x="1" y="25" width="1" height="1" fill="#B7B7B7"/>
<rect x="1" y="2" width="1" height="1" fill="#B7B7B7"/>
<rect x="2" y="1" width="1" height="1" fill="#B7B7B7"/>
<rect x="1" y="26" width="1" height="1" fill="#262626"/>
<rect opacity="0.5" x="4" y="24" width="4" height="1" fill="#808080"/>
<rect width="137" height="28" transform="translate(8)" fill="#DDDDDD"/>
<rect x="8" width="137" height="1" fill="#262626"/>
<rect x="8" y="2" width="137" height="1" fill="#262626"/>
<rect x="8" y="1" width="137" height="0.5" fill="#B7B7B7"/>
<rect x="8" y="1.5" width="137" height="0.5" fill="#D0D0D0"/>
<rect opacity="0.6" x="8" y="3" width="137" height="1" fill="white"/>
<path d="M28.4375 16.5625H29.375V17.5H28.4375H27.5H26.5625H25.625H24.6875V16.5625V15.625V14.6875V13.75V12.8125V11.875V10.9375V10V9.0625H25.625H26.5625V10V10.9375V11.875V12.8125V13.75V14.6875V15.625V16.5625H27.5H28.4375ZM35 17.5H34.0625H33.125H32.1875V16.5625H31.25V15.625V14.6875V13.75V12.8125V11.875H32.1875V10.9375H33.125H34.0625H35H35.9375V11.875H36.875V12.8125V13.75V14.6875V15.625V16.5625H35.9375V17.5H35ZM34.0625 16.5625H35V15.625V14.6875V13.75V12.8125V11.875H34.0625H33.125V12.8125V13.75V14.6875V15.625V16.5625H34.0625ZM42.5 20.3125H41.5625H40.625H39.6875V19.375H40.625H41.5625H42.5V18.4375V17.5H41.5625H40.625H39.6875V16.5625H38.75V15.625V14.6875V13.75V12.8125V11.875H39.6875V10.9375H40.625H41.5625H42.5H43.4375H44.375V11.875V12.8125V13.75V14.6875V15.625V16.5625V17.5V18.4375V19.375H43.4375V20.3125H42.5ZM39.6875 19.375H38.75V18.4375H39.6875V19.375ZM41.5625 16.5625H42.5V15.625V14.6875V13.75V12.8125V11.875H41.5625H40.625V12.8125V13.75V14.6875V15.625V16.5625H41.5625ZM47.1875 17.5H46.25V16.5625V15.625V14.6875V13.75V12.8125V11.875V10.9375H47.1875H48.125V11.875V12.8125V13.75V14.6875V15.625V16.5625V17.5H47.1875ZM47.1875 9.0625H48.125V10H47.1875H46.25V9.0625H47.1875ZM54.6875 17.5H53.75V16.5625V15.625V14.6875V13.75V12.8125V11.875H52.8125H51.875V12.8125V13.75V14.6875V15.625V16.5625V17.5H50.9375H50V16.5625V15.625V14.6875V13.75V12.8125V11.875V10.9375H50.9375H51.875H52.8125H53.75H54.6875V11.875H55.625V12.8125V13.75V14.6875V15.625V16.5625V17.5H54.6875ZM68.75 16.5625H69.6875V17.5H68.75H67.8125H66.875H65.9375H65H64.0625H63.125H62.1875V16.5625V15.625V14.6875V13.75V12.8125V11.875V10.9375H63.125H64.0625V11.875V12.8125V13.75V14.6875V15.625V16.5625H65H65.9375V15.625V14.6875V13.75V12.8125V11.875V10.9375H66.875H67.8125V11.875V12.8125V13.75V14.6875V15.625V16.5625H68.75ZM69.6875 16.5625V15.625V14.6875V13.75V12.8125V11.875V10.9375H70.625H71.5625V11.875V12.8125V13.75V14.6875V15.625H70.625V16.5625H69.6875ZM74.375 17.5H73.4375V16.5625V15.625V14.6875V13.75V12.8125V11.875V10.9375H74.375H75.3125V11.875V12.8125V13.75V14.6875V15.625V16.5625V17.5H74.375ZM74.375 9.0625H75.3125V10H74.375H73.4375V9.0625H74.375ZM80 17.5H79.0625V16.5625H78.125V15.625V14.6875V13.75V12.8125V11.875H77.1875V10.9375H78.125V10V9.0625H79.0625H80V10V10.9375H80.9375V11.875H80V12.8125V13.75V14.6875V15.625V16.5625H80.9375V17.5H80ZM87.5 17.5H86.5625V16.5625V15.625V14.6875V13.75V12.8125V11.875H85.625H84.6875V12.8125V13.75V14.6875V15.625V16.5625V17.5H83.75H82.8125V16.5625V15.625V14.6875V13.75V12.8125V11.875V10.9375V10V9.0625H83.75H84.6875V10V10.9375H85.625H86.5625H87.5V11.875H88.4375V12.8125V13.75V14.6875V15.625V16.5625V17.5H87.5ZM99.6875 17.5H98.75V16.5625H97.8125V15.625H96.875V16.5625V17.5H95.9375H95V16.5625V15.625V14.6875V13.75V12.8125V11.875V10.9375V10V9.0625H95.9375H96.875V10V10.9375V11.875V12.8125H97.8125V11.875H98.75V10.9375H99.6875H100.625V11.875H99.6875V12.8125H98.75V13.75H97.8125H96.875V14.6875H97.8125H98.75V15.625H99.6875V16.5625H100.625V17.5H99.6875ZM107.188 17.5H106.25H105.312H104.375H103.438V16.5625H102.5V15.625V14.6875V13.75H103.438V12.8125H102.5V11.875H103.438V10.9375H104.375H105.312H106.25H107.188V11.875H108.125V12.8125V13.75V14.6875V15.625V16.5625V17.5H107.188ZM105.312 16.5625H106.25V15.625V14.6875V13.75H105.312H104.375V14.6875V15.625V16.5625H105.312ZM105.312 12.8125H106.25V11.875H105.312H104.375H103.438V12.8125H104.375H105.312ZM114.688 17.5H113.75V16.5625H112.812V15.625H111.875V16.5625V17.5H110.938H110V16.5625V15.625V14.6875V13.75V12.8125V11.875V10.9375V10V9.0625H110.938H111.875V10V10.9375V11.875V12.8125H112.812V11.875H113.75V10.9375H114.688H115.625V11.875H114.688V12.8125H113.75V13.75H112.812H111.875V14.6875H112.812H113.75V15.625H114.688V16.5625H115.625V17.5H114.688ZM122.188 17.5H121.25H120.312H119.375H118.438V16.5625H117.5V15.625V14.6875V13.75H118.438V12.8125H117.5V11.875H118.438V10.9375H119.375H120.312H121.25H122.188V11.875H123.125V12.8125V13.75V14.6875V15.625V16.5625V17.5H122.188ZM120.312 16.5625H121.25V15.625V14.6875V13.75H120.312H119.375V14.6875V15.625V16.5625H120.312ZM120.312 12.8125H121.25V11.875H120.312H119.375H118.438V12.8125H119.375H120.312ZM128.75 17.5H127.812H126.875H125.938V16.5625H125V15.625V14.6875V13.75V12.8125V11.875H125.938V10.9375H126.875H127.812H128.75H129.688V11.875H130.625V12.8125V13.75V14.6875V15.625V16.5625H129.688V17.5H128.75ZM127.812 16.5625H128.75V15.625V14.6875V13.75V12.8125V11.875H127.812H126.875V12.8125V13.75V14.6875V15.625V16.5625H127.812Z" fill="#262626"/>
<rect x="8" y="25" width="137" height="1" fill="#262626"/>
<rect opacity="0.5" x="8" y="24" width="137" height="1" fill="#808080"/>
<rect x="8" y="27" width="137" height="1" fill="#262626"/>
<rect x="8" y="26" width="137" height="0.5" fill="#9D9D9D"/>
<rect x="8" y="26.5" width="137" height="0.5" fill="#848484"/>
<path fill-rule="evenodd" clip-rule="evenodd" d="M145.044 25L149.522 25L149.522 20L150.641 20L150.641 4L149.522 4L149.522 3L145.044 3L145.044 25Z" fill="#DDDDDD"/>
<rect x="151.75" y="24" width="1.11943" height="20" transform="rotate(-180 151.75 24)" fill="#262626"/>
<rect x="154" y="25" width="1.125" height="22" transform="rotate(-180 154 25)" fill="#262626"/>
<rect x="150.625" y="25" width="1.11943" height="1" transform="rotate(-180 150.625 25)" fill="#262626"/>
<rect opacity="0.5" x="148.375" y="25" width="3.375" height="1" transform="rotate(-180 148.375 25)" fill="#808080"/>
<rect opacity="0.5" x="148.375" y="24" width="1.11943" height="1" transform="rotate(-180 148.375 24)" fill="#808080"/>
<rect x="149.5" y="26" width="4.5" height="1" transform="rotate(-180 149.5 26)" fill="#262626"/>
<rect x="150.625" y="4" width="1.11943" height="1" transform="rotate(-180 150.625 4)" fill="#262626"/>
<rect x="149.5" y="3" width="4.5" height="1" transform="rotate(-180 149.5 3)" fill="#262626"/>
<rect x="150.625" y="24" width="1.11943" height="20" transform="rotate(-180 150.625 24)" fill="#808080"/>
<rect opacity="0.5" x="149.5" y="25" width="1.11943" height="22" transform="rotate(-180 149.5 25)" fill="#808080"/>
<rect x="154" y="26" width="1.125" height="1" transform="rotate(-180 154 26)" fill="#262626"/>
<rect x="154" y="3" width="1.125" height="1" transform="rotate(-180 154 3)" fill="#262626"/>
<rect x="152.875" y="27" width="1.125" height="1" transform="rotate(-180 152.875 27)" fill="#262626"/>
<rect x="151.75" y="28" width="6.75" height="1" transform="rotate(-180 151.75 28)" fill="#262626"/>
<rect x="145" y="26" width="6.75" height="0.5" fill="#9D9D9D"/>
<rect x="145" y="26.5" width="6.75" height="0.5" fill="#848484"/>
<rect x="151.75" y="1" width="6.75" height="1" transform="rotate(-180 151.75 1)" fill="#262626"/>
<rect x="152.875" y="2" width="1.125" height="1" transform="rotate(-180 152.875 2)" fill="#262626"/>
<rect x="151.75" y="1.5" width="6.73894" height="0.5" transform="rotate(-180 151.75 1.5)" fill="#B7B7B7"/>
<rect x="151.75" y="2" width="6.73894" height="0.5" transform="rotate(-180 151.75 2)" fill="#D0D0D0"/>
<rect opacity="0.6" x="149.522" y="4" width="4.47773" height="1" transform="rotate(-180 149.522 4)" fill="white"/>
<rect width="1.125" height="1" transform="matrix(-1 -9.71364e-09 1.09278e-08 1 151.75 26)" fill="#848484"/>
<rect width="1.125" height="2" transform="matrix(-1 -9.71364e-09 1.09278e-08 1 152.875 24)" fill="#848484"/>
<rect width="22" height="1.125" transform="matrix(6.01031e-08 1 1 -2.91409e-08 151.75 2)" fill="#9D9D9D"/>
<rect width="23" height="0.5625" transform="matrix(6.01031e-08 1 1 -2.91409e-08 152.312 2)" fill="#848484"/>
<rect width="1.125" height="2" transform="matrix(-1 -9.71364e-09 1.09278e-08 1 151.75 24)" fill="#848484"/>
<rect width="1.125" height="1" transform="matrix(-1 -9.71364e-09 1.09278e-08 1 150.625 25)" fill="#9D9D9D"/>
<rect width="1.125" height="1" transform="matrix(-1 -9.71364e-09 1.09278e-08 1 152.875 2)" fill="#848484"/>
<rect width="1.125" height="1" transform="matrix(-1 -9.71364e-09 1.09278e-08 1 151.75 1)" fill="#848484"/>
<rect width="1.125" height="1" transform="matrix(-1 -9.71364e-09 1.09278e-08 1 150.625 2)" fill="#D0D0D0"/>
<rect width="1.125" height="1" transform="matrix(-1 -9.71364e-09 1.09278e-08 1 151.75 2)" fill="#9D9D9D"/>
<rect width="1.125" height="1" transform="matrix(-1 -9.71364e-09 1.09278e-08 1 151.75 3)" fill="#9D9D9D"/>
</svg>
