<svg width="382" height="332" viewBox="0 0 382 332" fill="none" xmlns="http://www.w3.org/2000/svg">
<g filter="url(#filter0_ii_224_14963)">
<rect x="1" y="1" width="380" height="330" fill="#CCCCCC"/>
<rect x="0.5" y="0.5" width="381" height="331" stroke="#262626"/>
<rect width="380" height="19" transform="translate(1 1)" fill="#CCCCCC"/>
<rect x="20.4204" y="4" width="116.009" height="13" fill="#DDDDDD"/>
<rect x="20.4204" y="4" width="1" height="13" fill="#EEEEEE"/>
<rect x="136.42" y="4" width="1" height="13" fill="#C5C5C5"/>
<rect x="20.4204" y="5" width="116.676" height="1" fill="#999999"/>
<rect x="20.4204" y="9" width="116.676" height="1" fill="#999999"/>
<rect x="20.4204" y="13" width="116.676" height="1" fill="#999999"/>
<rect x="20.4204" y="7" width="116.676" height="1" fill="#999999"/>
<rect x="20.4204" y="11" width="116.676" height="1" fill="#999999"/>
<rect x="20.4204" y="15" width="116.676" height="1" fill="#999999"/>
<path d="M143.602 15H142.727V14.125V13.25V12.375V11.5V10.625V9.75V8.875V8V7.125H143.602H144.477H145.352H146.227H147.102V8H147.977V8.875V9.75V10.625H147.102V11.5H146.227H145.352H144.477V12.375V13.25V14.125V15H143.602ZM145.352 10.625H146.227V9.75V8.875V8H145.352H144.477V8.875V9.75V10.625H145.352ZM151.092 15H150.217V14.125V13.25V12.375V11.5V10.625V9.75V8.875V8V7.125H151.092H151.967V8V8.875V9.75V10.625V11.5V12.375V13.25V14.125V15H151.092ZM158.582 15H157.707H156.832H155.957H155.082V14.125H154.207V13.25V12.375V11.5H155.082V10.625H154.207V9.75H155.082V8.875H155.957H156.832H157.707H158.582V9.75H159.457V10.625V11.5V12.375V13.25V14.125V15H158.582ZM156.832 14.125H157.707V13.25V12.375V11.5H156.832H155.957V12.375V13.25V14.125H156.832ZM156.832 10.625H157.707V9.75H156.832H155.957H155.082V10.625H155.957H156.832ZM165.197 17.625H164.322H163.447H162.572V16.75H163.447H164.322H165.197V15.875V15H164.322H163.447H162.572V14.125H161.697V13.25V12.375V11.5V10.625V9.75V8.875H162.572H163.447V9.75V10.625V11.5V12.375V13.25V14.125H164.322H165.197V13.25V12.375V11.5V10.625V9.75V8.875H166.072H166.947V9.75V10.625V11.5V12.375V13.25V14.125V15V15.875V16.75H166.072V17.625H165.197ZM162.572 16.75H161.697V15.875H162.572V16.75ZM178.427 15H177.552V14.125V13.25V12.375V11.5V10.625V9.75H176.677H175.802V10.625V11.5V12.375V13.25V14.125V15H174.927H174.052V14.125V13.25V12.375V11.5V10.625V9.75V8.875H174.927H175.802H176.677H177.552H178.427V9.75H179.302V10.625V11.5V12.375V13.25V14.125V15H178.427ZM185.042 15H184.167H183.292H182.417V14.125H181.542V13.25V12.375V11.5V10.625V9.75H182.417V8.875H183.292H184.167H185.042H185.917V9.75H186.792V10.625V11.5V12.375V13.25V14.125H185.917V15H185.042ZM184.167 14.125H185.042V13.25V12.375V11.5V10.625V9.75H184.167H183.292V10.625V11.5V12.375V13.25V14.125H184.167ZM193.407 15H192.532V14.125V13.25V12.375V11.5V10.625V9.75H191.657H190.782V10.625V11.5V12.375V13.25V14.125V15H189.907H189.032V14.125V13.25V12.375V11.5V10.625V9.75V8.875H189.907H190.782H191.657H192.532H193.407V9.75H194.282V10.625V11.5V12.375V13.25V14.125V15H193.407ZM200.022 15H199.147H198.272H197.397V14.125H196.522V13.25V12.375V11.5V10.625V9.75H197.397V8.875H198.272H199.147H200.022H200.897V9.75H201.772V10.625V11.5V12.375V13.25V14.125H200.897V15H200.022ZM199.147 14.125H200.022V13.25V12.375V11.5V10.625V9.75H199.147H198.272V10.625V11.5V12.375V13.25V14.125H199.147ZM207.512 17.625H206.637H205.762H204.887V16.75H205.762H206.637H207.512V15.875V15H206.637H205.762H204.887V14.125H204.012V13.25V12.375V11.5V10.625V9.75H204.887V8.875H205.762H206.637H207.512H208.387H209.262V9.75V10.625V11.5V12.375V13.25V14.125V15V15.875V16.75H208.387V17.625H207.512ZM204.887 16.75H204.012V15.875H204.887V16.75ZM206.637 14.125H207.512V13.25V12.375V11.5V10.625V9.75H206.637H205.762V10.625V11.5V12.375V13.25V14.125H206.637ZM212.377 15H211.502V14.125V13.25V12.375V11.5V10.625V9.75V8.875H212.377H213.252V9.75H214.127V8.875H215.002H215.877V9.75V10.625H215.002H214.127H213.252V11.5V12.375V13.25V14.125V15H212.377ZM222.492 15H221.617H220.742H219.867H218.992V14.125H218.117V13.25V12.375V11.5H218.992V10.625H218.117V9.75H218.992V8.875H219.867H220.742H221.617H222.492V9.75H223.367V10.625V11.5V12.375V13.25V14.125V15H222.492ZM220.742 14.125H221.617V13.25V12.375V11.5H220.742H219.867V12.375V13.25V14.125H220.742ZM220.742 10.625H221.617V9.75H220.742H219.867H218.992V10.625H219.867H220.742ZM233.482 15H232.607V14.125V13.25V12.375V11.5V10.625V9.75H231.732H230.857V10.625V11.5V12.375V13.25V14.125V15H229.982H229.107V14.125V13.25V12.375V11.5V10.625V9.75H228.232H227.357V10.625V11.5V12.375V13.25V14.125V15H226.482H225.607V14.125V13.25V12.375V11.5V10.625V9.75V8.875H226.482H227.357H228.232H229.107H229.982V9.75H230.857V8.875H231.732H232.607H233.482V9.75H234.357V10.625V11.5V12.375V13.25V14.125V15H233.482ZM237.472 15H236.597V14.125V13.25H237.472H238.347V14.125V15H237.472ZM237.472 12.375H236.597V11.5V10.625V9.75V8.875V8V7.125H237.472H238.347V8V8.875V9.75V10.625V11.5V12.375H237.472Z" fill="#262626"/>
<rect x="244.097" y="4" width="116.009" height="13" fill="#DDDDDD"/>
<rect x="244.097" y="4" width="1" height="13" fill="#EEEEEE"/>
<rect x="360.097" y="4" width="1" height="13" fill="#C5C5C5"/>
<rect x="244.097" y="5" width="116.676" height="1" fill="#999999"/>
<rect x="244.097" y="9" width="116.676" height="1" fill="#999999"/>
<rect x="244.097" y="13" width="116.676" height="1" fill="#999999"/>
<rect x="244.097" y="7" width="116.676" height="1" fill="#999999"/>
<rect x="244.097" y="11" width="116.676" height="1" fill="#999999"/>
<rect x="244.097" y="15" width="116.676" height="1" fill="#999999"/>
<rect x="5.5" y="5.5" width="10" height="10" fill="url(#paint0_linear_224_14963)" stroke="#262626"/>
<path fill-rule="evenodd" clip-rule="evenodd" d="M6 15L7 15L7 7L15 7L15 6L7 6L6 6L6 7L6 15Z" fill="white"/>
<path fill-rule="evenodd" clip-rule="evenodd" d="M15 6H14V14H6V15H14H15V14V6Z" fill="#808080"/>
<path fill-rule="evenodd" clip-rule="evenodd" d="M17 4H16V16H4V17H16H17V4Z" fill="white"/>
<path fill-rule="evenodd" clip-rule="evenodd" d="M4 16L5 16L5 5L16 5L16 4L5 4L4 4L4 16Z" fill="#808080"/>
<rect x="365.5" y="5.5" width="10" height="10" fill="url(#paint1_linear_224_14963)" stroke="#262626"/>
<path fill-rule="evenodd" clip-rule="evenodd" d="M366 15L367 15L367 7L375 7L375 6L367 6L366 6L366 7L366 15Z" fill="white"/>
<path fill-rule="evenodd" clip-rule="evenodd" d="M375 6H374V14H366V15H374H375V14V6Z" fill="#808080"/>
<rect x="365.5" y="9.5" width="10" height="2" stroke="#262626"/>
<path fill-rule="evenodd" clip-rule="evenodd" d="M377 4H376V16H364V17H376H377V4Z" fill="white"/>
<path fill-rule="evenodd" clip-rule="evenodd" d="M364 16L365 16L365 5L376 5L376 4L365 4L364 4L364 16Z" fill="#808080"/>
</g>
<defs>
<filter id="filter0_ii_224_14963" x="0" y="0" width="382" height="332" filterUnits="userSpaceOnUse" color-interpolation-filters="sRGB">
<feFlood flood-opacity="0" result="BackgroundImageFix"/>
<feBlend mode="normal" in="SourceGraphic" in2="BackgroundImageFix" result="shape"/>
<feColorMatrix in="SourceAlpha" type="matrix" values="0 0 0 0 0 0 0 0 0 0 0 0 0 0 0 0 0 0 127 0" result="hardAlpha"/>
<feOffset dx="-2" dy="-2"/>
<feComposite in2="hardAlpha" operator="arithmetic" k2="-1" k3="1"/>
<feColorMatrix type="matrix" values="0 0 0 0 0.14902 0 0 0 0 0.14902 0 0 0 0 0.14902 0 0 0 0.4 0"/>
<feBlend mode="normal" in2="shape" result="effect1_innerShadow_224_14963"/>
<feColorMatrix in="SourceAlpha" type="matrix" values="0 0 0 0 0 0 0 0 0 0 0 0 0 0 0 0 0 0 127 0" result="hardAlpha"/>
<feOffset dx="2" dy="2"/>
<feComposite in2="hardAlpha" operator="arithmetic" k2="-1" k3="1"/>
<feColorMatrix type="matrix" values="0 0 0 0 0.14902 0 0 0 0 0.14902 0 0 0 0 0.14902 0 0 0 0.1 0"/>
<feBlend mode="normal" in2="effect1_innerShadow_224_14963" result="effect2_innerShadow_224_14963"/>
</filter>
<linearGradient id="paint0_linear_224_14963" x1="6" y1="6" x2="15" y2="15" gradientUnits="userSpaceOnUse">
<stop stop-color="#9A9A9A"/>
<stop offset="1" stop-color="#F1F1F1"/>
</linearGradient>
<linearGradient id="paint1_linear_224_14963" x1="366" y1="6" x2="375" y2="15" gradientUnits="userSpaceOnUse">
<stop stop-color="#9A9A9A"/>
<stop offset="1" stop-color="#F1F1F1"/>
</linearGradient>
</defs>
</svg>
