<svg width="446" height="131" viewBox="0 0 446 131" fill="none" xmlns="http://www.w3.org/2000/svg">
<rect x="0.5" y="1" width="445" height="129" fill="white"/>
<rect x="0.5" y="1" width="445" height="129" stroke="black"/>
<g filter="url(#filter0_d_1_259)">
<rect x="5" y="5.5" width="436" height="120" fill="white"/>
<rect x="4" y="4.5" width="438" height="122" stroke="black" stroke-width="2"/>
<rect x="53" y="27.5" width="1" height="14" fill="black"/>
<rect x="39" y="26.5" width="1" height="12" fill="black"/>
<rect x="50" y="28.5" width="1" height="7" fill="black"/>
<rect x="43" y="36.5" width="1" height="7" transform="rotate(-90 43 36.5)" fill="black"/>
<rect x="46" y="39.5" width="1" height="5" transform="rotate(-90 46 39.5)" fill="black"/>
<rect x="42" y="43.5" width="0.999999" height="13" transform="rotate(-90 42 43.5)" fill="black"/>
<rect x="50" y="49.5" width="1" height="8" transform="rotate(-90 50 49.5)" fill="black"/>
<rect x="46" y="45.5" width="1" height="8" transform="rotate(-90 46 45.5)" fill="black"/>
<rect x="48" y="46.5" width="1" height="1" transform="rotate(-90 48 46.5)" fill="black"/>
<rect x="40" y="51.5" width="1" height="1" transform="rotate(-90 40 51.5)" fill="black"/>
<rect x="41" y="54.5" width="1" height="1" transform="rotate(-90 41 54.5)" fill="black"/>
<rect x="43" y="55.5" width="1" height="1" transform="rotate(-90 43 55.5)" fill="black"/>
<rect x="46" y="57.5" width="1" height="1" transform="rotate(-90 46 57.5)" fill="black"/>
<rect x="44" y="54.5" width="1" height="1" transform="rotate(-90 44 54.5)" fill="black"/>
<rect x="45" y="53.5" width="1" height="1" transform="rotate(-90 45 53.5)" fill="black"/>
<rect x="46" y="54.5" width="1" height="1" transform="rotate(-90 46 54.5)" fill="black"/>
<rect x="47" y="56.5" width="2" height="1" transform="rotate(-90 47 56.5)" fill="black"/>
<rect x="58" y="48.5" width="2" height="1" transform="rotate(-90 58 48.5)" fill="black"/>
<rect x="42" y="53.5" width="1" height="1" transform="rotate(-90 42 53.5)" fill="black"/>
<rect x="43" y="52.5" width="1" height="2" transform="rotate(-90 43 52.5)" fill="black"/>
<rect x="50" y="46.5" width="1" height="1" transform="rotate(-90 50 46.5)" fill="black"/>
<rect x="52" y="46.5" width="1" height="1" transform="rotate(-90 52 46.5)" fill="black"/>
<rect x="54" y="46.5" width="1" height="1" transform="rotate(-90 54 46.5)" fill="black"/>
<rect x="55" y="44.5" width="1" height="1" transform="rotate(-90 55 44.5)" fill="black"/>
<rect x="56" y="45.5" width="1" height="1" transform="rotate(-90 56 45.5)" fill="black"/>
<rect x="57" y="46.5" width="1" height="1" transform="rotate(-90 57 46.5)" fill="black"/>
<rect x="55" y="47.5" width="1" height="1" transform="rotate(-90 55 47.5)" fill="black"/>
<rect x="53" y="47.5" width="1" height="1" transform="rotate(-90 53 47.5)" fill="black"/>
<rect x="51" y="47.5" width="1" height="1" transform="rotate(-90 51 47.5)" fill="black"/>
<rect x="33" y="39.5" width="1" height="1" transform="rotate(-90 33 39.5)" fill="black"/>
<rect x="32" y="40.5" width="1" height="1" transform="rotate(-90 32 40.5)" fill="black"/>
<rect x="31" y="39.5" width="1" height="1" transform="rotate(-90 31 39.5)" fill="black"/>
<rect x="28" y="39.5" width="1" height="1" transform="rotate(-90 28 39.5)" fill="black"/>
<rect x="29" y="40.5" width="1" height="2" transform="rotate(-90 29 40.5)" fill="black"/>
<rect x="33" y="42.5" width="1" height="2" transform="rotate(-90 33 42.5)" fill="black"/>
<rect x="32" y="44.5" width="2" height="1" transform="rotate(-90 32 44.5)" fill="black"/>
<rect x="38" y="47.5" width="2" height="1" transform="rotate(-90 38 47.5)" fill="black"/>
<rect x="37" y="49.5" width="2" height="1" transform="rotate(-90 37 49.5)" fill="black"/>
<rect x="38" y="49.5" width="2" height="1" fill="black"/>
<rect x="27" y="38.5" width="4" height="1" transform="rotate(-90 27 38.5)" fill="black"/>
<rect x="28" y="34.5" width="1" height="2" transform="rotate(-90 28 34.5)" fill="black"/>
<rect x="31" y="33.5" width="1" height="1" transform="rotate(-90 31 33.5)" fill="black"/>
<rect x="30" y="35.5" width="1" height="2" transform="rotate(-90 30 35.5)" fill="black"/>
<rect x="32" y="34.5" width="1" height="2" transform="rotate(-90 32 34.5)" fill="black"/>
<rect x="32" y="32.5" width="1" height="1" transform="rotate(-90 32 32.5)" fill="black"/>
<rect x="34" y="36.5" width="2" height="1" transform="rotate(-90 34 36.5)" fill="black"/>
<rect width="1" height="6" transform="matrix(4.37114e-08 1 1 -4.37114e-08 35 40.5)" fill="black"/>
<rect width="1" height="5" transform="matrix(4.37114e-08 1 1 -4.37114e-08 33 44.5)" fill="black"/>
<rect x="44" y="28.5" width="1" height="6" transform="rotate(-90 44 28.5)" fill="black"/>
<rect width="12" height="1" transform="matrix(-1 0 0 1 52 25.5)" fill="black"/>
<path d="M99 38.5H98H97H96H95V37.5V36.5V35.5V34.5V33.5V32.5V31.5V30.5V29.5H96H97H98H99H100V30.5H101V31.5V32.5V33.5V34.5V35.5V36.5V37.5H100V38.5H99ZM98 37.5H99V36.5V35.5V34.5V33.5V32.5V31.5V30.5H98H97V31.5V32.5V33.5V34.5V35.5V36.5V37.5H98ZM107 37.5H108V38.5H107H106H105H104V37.5H103V36.5V35.5V34.5V33.5V32.5H104V31.5H105H106H107H108V32.5H109V33.5V34.5V35.5H108H107H106H105V36.5V37.5H106H107ZM108 37.5V36.5H109V37.5H108ZM106 34.5H107V33.5V32.5H106H105V33.5V34.5H106ZM114 37.5H115V38.5H114H113H112H111V37.5V36.5V35.5V34.5V33.5V32.5V31.5H112H113V32.5V33.5V34.5V35.5V36.5V37.5H114ZM115 37.5V36.5V35.5V34.5V33.5V32.5V31.5H116H117V32.5V33.5V34.5V35.5V36.5H116V37.5H115ZM123 37.5H124V38.5H123H122H121H120V37.5H119V36.5V35.5V34.5V33.5V32.5H120V31.5H121H122H123H124V32.5H125V33.5V34.5V35.5H124H123H122H121V36.5V37.5H122H123ZM124 37.5V36.5H125V37.5H124ZM122 34.5H123V33.5V32.5H122H121V33.5V34.5H122ZM128 38.5H127V37.5V36.5V35.5V34.5V33.5V32.5V31.5V30.5V29.5H128H129V30.5V31.5V32.5V33.5V34.5V35.5V36.5V37.5V38.5H128ZM135 38.5H134H133H132V37.5H131V36.5V35.5V34.5V33.5V32.5H132V31.5H133H134H135H136V32.5H137V33.5V34.5V35.5V36.5V37.5H136V38.5H135ZM134 37.5H135V36.5V35.5V34.5V33.5V32.5H134H133V33.5V34.5V35.5V36.5V37.5H134ZM140 40.5H139V39.5V38.5V37.5V36.5V35.5V34.5V33.5V32.5V31.5H140H141H142H143H144V32.5H145V33.5V34.5V35.5V36.5V37.5H144V38.5H143H142H141V39.5V40.5H140ZM142 37.5H143V36.5V35.5V34.5V33.5V32.5H142H141V33.5V34.5V35.5V36.5V37.5H142ZM151 37.5H152V38.5H151H150H149H148V37.5H147V36.5V35.5V34.5V33.5V32.5H148V31.5H149H150H151H152V32.5H153V33.5V34.5V35.5H152H151H150H149V36.5V37.5H150H151ZM152 37.5V36.5H153V37.5H152ZM150 34.5H151V33.5V32.5H150H149V33.5V34.5H150ZM160 38.5H159H158H157H156V37.5H155V36.5V35.5V34.5V33.5V32.5H156V31.5H157H158H159V30.5V29.5H160H161V30.5V31.5V32.5V33.5V34.5V35.5V36.5V37.5V38.5H160ZM158 37.5H159V36.5V35.5V34.5V33.5V32.5H158H157V33.5V34.5V35.5V36.5V37.5H158ZM172 38.5H171H170H169H168V37.5V36.5V35.5V34.5V33.5V32.5V31.5V30.5V29.5H169H170V30.5V31.5H171H172H173V32.5H174V33.5V34.5V35.5V36.5V37.5H173V38.5H172ZM171 37.5H172V36.5V35.5V34.5V33.5V32.5H171H170V33.5V34.5V35.5V36.5V37.5H171ZM180 41.5H179H178H177V40.5H178H179H180V39.5V38.5H179H178H177V37.5H176V36.5V35.5V34.5V33.5V32.5V31.5H177H178V32.5V33.5V34.5V35.5V36.5V37.5H179H180V36.5V35.5V34.5V33.5V32.5V31.5H181H182V32.5V33.5V34.5V35.5V36.5V37.5V38.5V39.5V40.5H181V41.5H180ZM177 40.5H176V39.5H177V40.5ZM195 38.5H194V37.5H193V36.5H192V35.5H191V36.5V37.5V38.5H190H189V37.5V36.5V35.5V34.5V33.5V32.5V31.5V30.5V29.5H190H191V30.5V31.5V32.5H192V31.5H193V30.5H194V29.5H195H196V30.5H195V31.5H194V32.5H193V33.5H192V34.5H193V35.5H194V36.5H195V37.5H196V38.5H195ZM203 38.5H202V37.5V36.5V35.5V34.5H201H200V35.5V36.5V37.5V38.5H199H198V37.5V36.5V35.5V34.5V33.5V32.5V31.5V30.5V29.5H199H200V30.5V31.5V32.5V33.5H201H202V32.5V31.5V30.5V29.5H203H204V30.5V31.5V32.5V33.5V34.5V35.5V36.5V37.5V38.5H203ZM210 38.5H209H208H207V37.5H206V36.5V35.5V34.5V33.5V32.5V31.5V30.5V29.5H207H208V30.5V31.5V32.5V33.5V34.5V35.5V36.5V37.5H209H210V36.5V35.5V34.5V33.5V32.5V31.5V30.5V29.5H211H212V30.5V31.5V32.5V33.5V34.5V35.5V36.5V37.5H211V38.5H210ZM218 33.5H219V34.5H218H217H216H215H214V33.5H215H216H217H218ZM221 31.5V30.5H222V31.5H221ZM226 37.5H227V38.5H226H225H224H223H222H221V37.5V36.5H222V35.5H223V34.5H224V33.5H225V32.5V31.5V30.5H224H223H222V29.5H223H224H225H226V30.5H227V31.5V32.5V33.5H226V34.5H225V35.5H224V36.5H223V37.5H224H225H226ZM234 38.5H233V37.5V36.5V35.5H232H231H230H229V34.5V33.5H230V32.5H231V31.5H232V30.5H233V29.5H234H235V30.5V31.5V32.5V33.5V34.5H236V35.5H235V36.5V37.5V38.5H234ZM232 34.5H233V33.5V32.5V31.5H232V32.5H231V33.5H230V34.5H231H232ZM242 33.5H243V34.5H242H241H240H239H238V33.5H239H240H241H242ZM247 38.5H246V37.5V36.5V35.5V34.5V33.5V32.5V31.5H245V30.5H246V29.5H247H248V30.5V31.5V32.5V33.5V34.5V35.5V36.5V37.5V38.5H247ZM260 31.5V30.5H261V31.5H260ZM259 37.5H260V38.5H259H258H257H256V37.5H255V36.5V35.5V34.5V33.5V32.5V31.5V30.5H256V29.5H257H258H259H260V30.5H259H258H257V31.5V32.5V33.5V34.5V35.5V36.5V37.5H258H259ZM260 37.5V36.5H261V37.5H260ZM264 38.5H263V37.5V36.5V35.5V34.5V33.5V32.5V31.5V30.5V29.5H264H265V30.5V31.5V32.5V33.5V34.5V35.5V36.5V37.5V38.5H264ZM271 38.5H270H269H268V37.5H267V36.5V35.5V34.5V33.5V32.5H268V31.5H269H270H271H272V32.5H273V33.5V34.5V35.5V36.5V37.5H272V38.5H271ZM270 37.5H271V36.5V35.5V34.5V33.5V32.5H270H269V33.5V34.5V35.5V36.5V37.5H270ZM280 38.5H279H278H277H276V37.5H275V36.5V35.5V34.5V33.5V32.5V31.5H276H277V32.5V33.5V34.5V35.5V36.5V37.5H278H279V36.5V35.5V34.5V33.5V32.5V31.5H280H281V32.5V33.5V34.5V35.5V36.5V37.5V38.5H280ZM288 38.5H287H286H285H284V37.5H283V36.5V35.5V34.5V33.5V32.5H284V31.5H285H286H287V30.5V29.5H288H289V30.5V31.5V32.5V33.5V34.5V35.5V36.5V37.5V38.5H288ZM286 37.5H287V36.5V35.5V34.5V33.5V32.5H286H285V33.5V34.5V35.5V36.5V37.5H286ZM301 31.5V30.5H302V31.5H301ZM300 37.5H301V38.5H300H299H298H297V37.5H296V36.5V35.5V34.5V33.5V32.5V31.5V30.5H297V29.5H298H299H300H301V30.5H300H299H298V31.5V32.5V33.5V34.5V35.5V36.5V37.5H299H300ZM301 37.5V36.5H302V37.5H301ZM308 38.5H307H306H305V37.5H304V36.5V35.5V34.5V33.5V32.5H305V31.5H306H307H308H309V32.5H310V33.5V34.5V35.5V36.5V37.5H309V38.5H308ZM307 37.5H308V36.5V35.5V34.5V33.5V32.5H307H306V33.5V34.5V35.5V36.5V37.5H307ZM321 38.5H320V37.5V36.5V35.5V34.5V33.5V32.5H319H318V33.5V34.5V35.5V36.5V37.5V38.5H317H316V37.5V36.5V35.5V34.5V33.5V32.5H315H314V33.5V34.5V35.5V36.5V37.5V38.5H313H312V37.5V36.5V35.5V34.5V33.5V32.5V31.5H313H314H315H316H317V32.5H318V31.5H319H320H321V32.5H322V33.5V34.5V35.5V36.5V37.5V38.5H321ZM325 40.5H324V39.5V38.5V37.5V36.5V35.5V34.5V33.5V32.5V31.5H325H326H327H328H329V32.5H330V33.5V34.5V35.5V36.5V37.5H329V38.5H328H327H326V39.5V40.5H325ZM327 37.5H328V36.5V35.5V34.5V33.5V32.5H327H326V33.5V34.5V35.5V36.5V37.5H327ZM337 38.5H336H335H334H333V37.5H332V36.5V35.5V34.5V33.5V32.5V31.5H333H334V32.5V33.5V34.5V35.5V36.5V37.5H335H336V36.5V35.5V34.5V33.5V32.5V31.5H337H338V32.5V33.5V34.5V35.5V36.5V37.5V38.5H337ZM343 38.5H342V37.5H341V36.5V35.5V34.5V33.5V32.5H340V31.5H341V30.5V29.5H342H343V30.5V31.5H344V32.5H343V33.5V34.5V35.5V36.5V37.5H344V38.5H343ZM347 38.5H346V37.5V36.5V35.5V34.5V33.5V32.5V31.5H347H348V32.5V33.5V34.5V35.5V36.5V37.5V38.5H347ZM347 29.5H348V30.5H347H346V29.5H347ZM355 38.5H354V37.5V36.5V35.5V34.5V33.5V32.5H353H352V33.5V34.5V35.5V36.5V37.5V38.5H351H350V37.5V36.5V35.5V34.5V33.5V32.5V31.5H351H352H353H354H355V32.5H356V33.5V34.5V35.5V36.5V37.5V38.5H355ZM362 41.5H361H360H359V40.5H360H361H362V39.5V38.5H361H360H359V37.5H358V36.5V35.5V34.5V33.5V32.5H359V31.5H360H361H362H363H364V32.5V33.5V34.5V35.5V36.5V37.5V38.5V39.5V40.5H363V41.5H362ZM359 40.5H358V39.5H359V40.5ZM361 37.5H362V36.5V35.5V34.5V33.5V32.5H361H360V33.5V34.5V35.5V36.5V37.5H361ZM209.5 54.5H208.5V53.5V52.5V51.5V50.5V49.5V48.5V47.5V46.5H207.5H206.5V45.5H207.5H208.5H209.5H210.5H211.5H212.5V46.5H211.5H210.5V47.5V48.5V49.5V50.5V51.5V52.5V53.5V54.5H209.5ZM218.5 53.5H219.5V54.5H218.5H217.5H216.5H215.5V53.5H214.5V52.5V51.5V50.5V49.5V48.5H215.5V47.5H216.5H217.5H218.5H219.5V48.5H220.5V49.5V50.5V51.5H219.5H218.5H217.5H216.5V52.5V53.5H217.5H218.5ZM219.5 53.5V52.5H220.5V53.5H219.5ZM217.5 50.5H218.5V49.5V48.5H217.5H216.5V49.5V50.5H217.5ZM227.5 54.5H226.5H225.5H224.5H223.5V53.5H222.5V52.5V51.5V50.5H223.5V49.5H222.5V48.5H223.5V47.5H224.5H225.5H226.5H227.5V48.5H228.5V49.5V50.5V51.5V52.5V53.5V54.5H227.5ZM225.5 53.5H226.5V52.5V51.5V50.5H225.5H224.5V51.5V52.5V53.5H225.5ZM225.5 49.5H226.5V48.5H225.5H224.5H223.5V49.5H224.5H225.5ZM239.5 54.5H238.5V53.5V52.5V51.5V50.5V49.5V48.5H237.5H236.5V49.5V50.5V51.5V52.5V53.5V54.5H235.5H234.5V53.5V52.5V51.5V50.5V49.5V48.5H233.5H232.5V49.5V50.5V51.5V52.5V53.5V54.5H231.5H230.5V53.5V52.5V51.5V50.5V49.5V48.5V47.5H231.5H232.5H233.5H234.5H235.5V48.5H236.5V47.5H237.5H238.5H239.5V48.5H240.5V49.5V50.5V51.5V52.5V53.5V54.5H239.5ZM251.5 54.5H250.5H249.5H248.5H247.5V53.5V52.5V51.5V50.5V49.5V48.5V47.5V46.5V45.5H248.5H249.5H250.5H251.5H252.5V46.5H253.5V47.5V48.5V49.5V50.5V51.5V52.5V53.5H252.5V54.5H251.5ZM250.5 53.5H251.5V52.5V51.5V50.5V49.5V48.5V47.5V46.5H250.5H249.5V47.5V48.5V49.5V50.5V51.5V52.5V53.5H250.5ZM256.5 54.5H255.5V53.5V52.5H256.5H257.5V53.5V54.5H256.5ZM73 86.5H72V85.5V84.5V83.5V82.5V81.5V80.5V79.5V78.5H71H70V77.5H71H72H73H74H75H76V78.5H75H74V79.5V80.5V81.5V82.5V83.5V84.5V85.5V86.5H73ZM83 86.5H82V85.5V84.5V83.5V82.5V81.5V80.5H81H80V81.5V82.5V83.5V84.5V85.5V86.5H79H78V85.5V84.5V83.5V82.5V81.5V80.5V79.5V78.5V77.5H79H80V78.5V79.5H81H82H83V80.5H84V81.5V82.5V83.5V84.5V85.5V86.5H83ZM87 86.5H86V85.5V84.5V83.5V82.5V81.5V80.5V79.5H87H88V80.5V81.5V82.5V83.5V84.5V85.5V86.5H87ZM87 77.5H88V78.5H87H86V77.5H87ZM94 81.5V80.5H95V81.5H94ZM93 86.5H92H91V85.5H92H93V84.5H92V83.5H91V82.5H90V81.5V80.5H91V79.5H92H93H94V80.5H93H92V81.5H93V82.5H94V83.5H95V84.5V85.5H94V86.5H93ZM91 85.5H90V84.5H91V85.5ZM106 81.5V80.5H107V81.5H106ZM105 86.5H104H103V85.5H104H105V84.5H104V83.5H103V82.5H102V81.5V80.5H103V79.5H104H105H106V80.5H105H104V81.5H105V82.5H106V83.5H107V84.5V85.5H106V86.5H105ZM103 85.5H102V84.5H103V85.5ZM113 85.5H114V86.5H113H112H111H110V85.5H109V84.5V83.5V82.5V81.5V80.5H110V79.5H111H112H113H114V80.5H115V81.5V82.5V83.5H114H113H112H111V84.5V85.5H112H113ZM114 85.5V84.5H115V85.5H114ZM112 82.5H113V81.5V80.5H112H111V81.5V82.5H112ZM118 86.5H117V85.5V84.5V83.5V82.5V81.5V80.5V79.5H118H119V80.5H120V79.5H121H122V80.5V81.5H121H120H119V82.5V83.5V84.5V85.5V86.5H118ZM127 85.5H128V86.5H127H126H125H124V85.5V84.5V83.5V82.5V81.5V80.5V79.5H125H126V80.5V81.5V82.5V83.5V84.5V85.5H127ZM128 85.5V84.5V83.5V82.5V81.5V80.5V79.5H129H130V80.5V81.5V82.5V83.5V84.5H129V85.5H128ZM133 86.5H132V85.5V84.5V83.5V82.5V81.5V80.5V79.5H133H134V80.5V81.5V82.5V83.5V84.5V85.5V86.5H133ZM133 77.5H134V78.5H133H132V77.5H133ZM140 81.5V80.5H141V81.5H140ZM139 85.5H140V86.5H139H138H137V85.5H136V84.5V83.5V82.5V81.5V80.5H137V79.5H138H139H140V80.5H139H138V81.5V82.5V83.5V84.5V85.5H139ZM140 85.5V84.5H141V85.5H140ZM147 85.5H148V86.5H147H146H145H144V85.5H143V84.5V83.5V82.5V81.5V80.5H144V79.5H145H146H147H148V80.5H149V81.5V82.5V83.5H148H147H146H145V84.5V85.5H146H147ZM148 85.5V84.5H149V85.5H148ZM146 82.5H147V81.5V80.5H146H145V81.5V82.5H146ZM157 86.5H156V85.5V84.5V83.5V82.5V81.5V80.5V79.5H157H158V80.5V81.5V82.5V83.5V84.5V85.5V86.5H157ZM157 77.5H158V78.5H157H156V77.5H157ZM164 81.5V80.5H165V81.5H164ZM163 86.5H162H161V85.5H162H163V84.5H162V83.5H161V82.5H160V81.5V80.5H161V79.5H162H163H164V80.5H163H162V81.5H163V82.5H164V83.5H165V84.5V85.5H164V86.5H163ZM161 85.5H160V84.5H161V85.5ZM177 86.5H176H175H174H173V85.5H172V84.5V83.5V82.5V81.5V80.5H173V79.5H174H175H176V78.5V77.5H177H178V78.5V79.5V80.5V81.5V82.5V83.5V84.5V85.5V86.5H177ZM175 85.5H176V84.5V83.5V82.5V81.5V80.5H175H174V81.5V82.5V83.5V84.5V85.5H175ZM184 85.5H185V86.5H184H183H182H181V85.5H180V84.5V83.5V82.5V81.5V80.5H181V79.5H182H183H184H185V80.5H186V81.5V82.5V83.5H185H184H183H182V84.5V85.5H183H184ZM185 85.5V84.5H186V85.5H185ZM183 82.5H184V81.5V80.5H183H182V81.5V82.5H183ZM192 81.5V80.5H193V81.5H192ZM191 86.5H190H189V85.5H190H191V84.5H190V83.5H189V82.5H188V81.5V80.5H189V79.5H190H191H192V80.5H191H190V81.5H191V82.5H192V83.5H193V84.5V85.5H192V86.5H191ZM189 85.5H188V84.5H189V85.5ZM196 86.5H195V85.5V84.5V83.5V82.5V81.5V80.5V79.5H196H197V80.5V81.5V82.5V83.5V84.5V85.5V86.5H196ZM196 77.5H197V78.5H196H195V77.5H196ZM203 89.5H202H201H200V88.5H201H202H203V87.5V86.5H202H201H200V85.5H199V84.5V83.5V82.5V81.5V80.5H200V79.5H201H202H203H204H205V80.5V81.5V82.5V83.5V84.5V85.5V86.5V87.5V88.5H204V89.5H203ZM200 88.5H199V87.5H200V88.5ZM202 85.5H203V84.5V83.5V82.5V81.5V80.5H202H201V81.5V82.5V83.5V84.5V85.5H202ZM212 86.5H211V85.5V84.5V83.5V82.5V81.5V80.5H210H209V81.5V82.5V83.5V84.5V85.5V86.5H208H207V85.5V84.5V83.5V82.5V81.5V80.5V79.5H208H209H210H211H212V80.5H213V81.5V82.5V83.5V84.5V85.5V86.5H212ZM219 85.5H220V86.5H219H218H217H216V85.5H215V84.5V83.5V82.5V81.5V80.5H216V79.5H217H218H219H220V80.5H221V81.5V82.5V83.5H220H219H218H217V84.5V85.5H218H219ZM220 85.5V84.5H221V85.5H220ZM218 82.5H219V81.5V80.5H218H217V81.5V82.5H218ZM228 86.5H227H226H225H224V85.5H223V84.5V83.5V82.5V81.5V80.5H224V79.5H225H226H227V78.5V77.5H228H229V78.5V79.5V80.5V81.5V82.5V83.5V84.5V85.5V86.5H228ZM226 85.5H227V84.5V83.5V82.5V81.5V80.5H226H225V81.5V82.5V83.5V84.5V85.5H226ZM238 86.5H237V85.5V84.5V83.5V82.5V81.5V80.5H236V79.5H237V78.5H238V77.5H239H240H241V78.5H240H239V79.5H240V80.5H239V81.5V82.5V83.5V84.5V85.5V86.5H238ZM247 86.5H246H245H244V85.5H243V84.5V83.5V82.5V81.5V80.5H244V79.5H245H246H247H248V80.5H249V81.5V82.5V83.5V84.5V85.5H248V86.5H247ZM246 85.5H247V84.5V83.5V82.5V81.5V80.5H246H245V81.5V82.5V83.5V84.5V85.5H246ZM252 86.5H251V85.5V84.5V83.5V82.5V81.5V80.5V79.5H252H253V80.5H254V79.5H255H256V80.5V81.5H255H254H253V82.5V83.5V84.5V85.5V86.5H252ZM268 86.5H267H266H265H264V85.5H263V84.5V83.5V82.5V81.5V80.5V79.5H264H265V80.5V81.5V82.5V83.5V84.5V85.5H266H267V84.5V83.5V82.5V81.5V80.5V79.5H268H269V80.5V81.5V82.5V83.5V84.5V85.5V86.5H268ZM275 81.5V80.5H276V81.5H275ZM274 86.5H273H272V85.5H273H274V84.5H273V83.5H272V82.5H271V81.5V80.5H272V79.5H273H274H275V80.5H274H273V81.5H274V82.5H275V83.5H276V84.5V85.5H275V86.5H274ZM272 85.5H271V84.5H272V85.5ZM282 85.5H283V86.5H282H281H280H279V85.5H278V84.5V83.5V82.5V81.5V80.5H279V79.5H280H281H282H283V80.5H284V81.5V82.5V83.5H283H282H281H280V84.5V85.5H281H282ZM283 85.5V84.5H284V85.5H283ZM281 82.5H282V81.5V80.5H281H280V81.5V82.5H281ZM287 86.5H286V85.5V84.5V83.5V82.5V81.5V80.5V79.5H287H288V80.5H289V79.5H290H291V80.5V81.5H290H289H288V82.5V83.5V84.5V85.5V86.5H287ZM297 81.5V80.5H298V81.5H297ZM296 86.5H295H294V85.5H295H296V84.5H295V83.5H294V82.5H293V81.5V80.5H294V79.5H295H296H297V80.5H296H295V81.5H296V82.5H297V83.5H298V84.5V85.5H297V86.5H296ZM294 85.5H293V84.5H294V85.5ZM312 85.5H313V86.5H312H311H310H309H308H307H306H305V85.5V84.5V83.5V82.5V81.5V80.5V79.5H306H307V80.5V81.5V82.5V83.5V84.5V85.5H308H309V84.5V83.5V82.5V81.5V80.5V79.5H310H311V80.5V81.5V82.5V83.5V84.5V85.5H312ZM313 85.5V84.5V83.5V82.5V81.5V80.5V79.5H314H315V80.5V81.5V82.5V83.5V84.5H314V85.5H313ZM322 86.5H321V85.5V84.5V83.5V82.5V81.5V80.5H320H319V81.5V82.5V83.5V84.5V85.5V86.5H318H317V85.5V84.5V83.5V82.5V81.5V80.5V79.5V78.5V77.5H318H319V78.5V79.5H320H321H322V80.5H323V81.5V82.5V83.5V84.5V85.5V86.5H322ZM329 86.5H328H327H326V85.5H325V84.5V83.5V82.5V81.5V80.5H326V79.5H327H328H329H330V80.5H331V81.5V82.5V83.5V84.5V85.5H330V86.5H329ZM328 85.5H329V84.5V83.5V82.5V81.5V80.5H328H327V81.5V82.5V83.5V84.5V85.5H328ZM345 85.5H346V86.5H345H344H343H342H341H340H339H338V85.5V84.5V83.5V82.5V81.5V80.5V79.5H339H340V80.5V81.5V82.5V83.5V84.5V85.5H341H342V84.5V83.5V82.5V81.5V80.5V79.5H343H344V80.5V81.5V82.5V83.5V84.5V85.5H345ZM346 85.5V84.5V83.5V82.5V81.5V80.5V79.5H347H348V80.5V81.5V82.5V83.5V84.5H347V85.5H346ZM355 86.5H354H353H352H351V85.5H350V84.5V83.5V82.5H351V81.5H350V80.5H351V79.5H352H353H354H355V80.5H356V81.5V82.5V83.5V84.5V85.5V86.5H355ZM353 85.5H354V84.5V83.5V82.5H353H352V83.5V84.5V85.5H353ZM353 81.5H354V80.5H353H352H351V81.5H352H353ZM363 86.5H362V85.5V84.5V83.5V82.5V81.5V80.5H361H360V81.5V82.5V83.5V84.5V85.5V86.5H359H358V85.5V84.5V83.5V82.5V81.5V80.5V79.5H359H360H361H362H363V80.5H364V81.5V82.5V83.5V84.5V85.5V86.5H363ZM369 86.5H368V85.5H367V84.5V83.5V82.5V81.5V80.5H366V79.5H367V78.5V77.5H368H369V78.5V79.5H370V80.5H369V81.5V82.5V83.5V84.5V85.5H370V86.5H369ZM380 86.5H379V85.5H378V84.5V83.5V82.5V81.5V80.5H377V79.5H378V78.5V77.5H379H380V78.5V79.5H381V80.5H380V81.5V82.5V83.5V84.5V85.5H381V86.5H380ZM387 86.5H386H385H384V85.5H383V84.5V83.5V82.5V81.5V80.5H384V79.5H385H386H387H388V80.5H389V81.5V82.5V83.5V84.5V85.5H388V86.5H387ZM386 85.5H387V84.5V83.5V82.5V81.5V80.5H386H385V81.5V82.5V83.5V84.5V85.5H386ZM58 97.5V96.5H59V97.5H58ZM57 102.5H56H55V101.5H56H57V100.5H56V99.5H55V98.5H54V97.5V96.5H55V95.5H56H57H58V96.5H57H56V97.5H57V98.5H58V99.5H59V100.5V101.5H58V102.5H57ZM55 101.5H54V100.5H55V101.5ZM64 102.5H63V101.5H62V100.5V99.5V98.5V97.5V96.5H61V95.5H62V94.5V93.5H63H64V94.5V95.5H65V96.5H64V97.5V98.5V99.5V100.5V101.5H65V102.5H64ZM71 102.5H70H69H68V101.5H67V100.5V99.5V98.5V97.5V96.5H68V95.5H69H70H71H72V96.5H73V97.5V98.5V99.5V100.5V101.5H72V102.5H71ZM70 101.5H71V100.5V99.5V98.5V97.5V96.5H70H69V97.5V98.5V99.5V100.5V101.5H70ZM76 102.5H75V101.5V100.5V99.5V98.5V97.5V96.5V95.5H76H77V96.5H78V95.5H79H80V96.5V97.5H79H78H77V98.5V99.5V100.5V101.5V102.5H76ZM86 101.5H87V102.5H86H85H84H83V101.5H82V100.5V99.5V98.5V97.5V96.5H83V95.5H84H85H86H87V96.5H88V97.5V98.5V99.5H87H86H85H84V100.5V101.5H85H86ZM87 101.5V100.5H88V101.5H87ZM85 98.5H86V97.5V96.5H85H84V97.5V98.5H85ZM90 104.5V103.5H91V104.5H90ZM91 103.5V102.5H90V101.5V100.5H91H92V101.5V102.5V103.5H91ZM103 102.5H102H101H100V101.5H99V100.5V99.5V98.5V97.5V96.5H100V95.5H101H102H103H104V96.5H105V97.5V98.5V99.5V100.5V101.5H104V102.5H103ZM102 101.5H103V100.5V99.5V98.5V97.5V96.5H102H101V97.5V98.5V99.5V100.5V101.5H102ZM108 102.5H107V101.5V100.5V99.5V98.5V97.5V96.5V95.5H108H109V96.5H110V95.5H111H112V96.5V97.5H111H110H109V98.5V99.5V100.5V101.5V102.5H108ZM118 105.5H117H116H115V104.5H116H117H118V103.5V102.5H117H116H115V101.5H114V100.5V99.5V98.5V97.5V96.5H115V95.5H116H117H118H119H120V96.5V97.5V98.5V99.5V100.5V101.5V102.5V103.5V104.5H119V105.5H118ZM115 104.5H114V103.5H115V104.5ZM117 101.5H118V100.5V99.5V98.5V97.5V96.5H117H116V97.5V98.5V99.5V100.5V101.5H117ZM127 102.5H126H125H124H123V101.5H122V100.5V99.5V98.5H123V97.5H122V96.5H123V95.5H124H125H126H127V96.5H128V97.5V98.5V99.5V100.5V101.5V102.5H127ZM125 101.5H126V100.5V99.5V98.5H125H124V99.5V100.5V101.5H125ZM125 97.5H126V96.5H125H124H123V97.5H124H125ZM135 102.5H134V101.5V100.5V99.5V98.5V97.5V96.5H133H132V97.5V98.5V99.5V100.5V101.5V102.5H131H130V101.5V100.5V99.5V98.5V97.5V96.5V95.5H131H132H133H134H135V96.5H136V97.5V98.5V99.5V100.5V101.5V102.5H135ZM139 102.5H138V101.5V100.5V99.5V98.5V97.5V96.5V95.5H139H140V96.5V97.5V98.5V99.5V100.5V101.5V102.5H139ZM139 93.5H140V94.5H139H138V93.5H139ZM147 101.5H148V102.5H147H146H145H144H143H142V101.5V100.5H143V99.5H144V100.5V101.5H145H146H147ZM144 99.5V98.5H145V99.5H144ZM145 98.5V97.5H146V98.5H145ZM146 97.5V96.5H145H144H143H142V95.5H143H144H145H146H147H148V96.5H147V97.5H146ZM154 101.5H155V102.5H154H153H152H151V101.5H150V100.5V99.5V98.5V97.5V96.5H151V95.5H152H153H154H155V96.5H156V97.5V98.5V99.5H155H154H153H152V100.5V101.5H153H154ZM155 101.5V100.5H156V101.5H155ZM153 98.5H154V97.5V96.5H153H152V97.5V98.5H153ZM168 102.5H167H166H165H164V101.5H163V100.5V99.5V98.5H164V97.5H163V96.5H164V95.5H165H166H167H168V96.5H169V97.5V98.5V99.5V100.5V101.5V102.5H168ZM166 101.5H167V100.5V99.5V98.5H166H165V99.5V100.5V101.5H166ZM166 97.5H167V96.5H166H165H164V97.5H165H166ZM176 102.5H175V101.5V100.5V99.5V98.5V97.5V96.5H174H173V97.5V98.5V99.5V100.5V101.5V102.5H172H171V101.5V100.5V99.5V98.5V97.5V96.5V95.5H172H173H174H175H176V96.5H177V97.5V98.5V99.5V100.5V101.5V102.5H176ZM184 102.5H183H182H181H180V101.5H179V100.5V99.5V98.5V97.5V96.5H180V95.5H181H182H183V94.5V93.5H184H185V94.5V95.5V96.5V97.5V98.5V99.5V100.5V101.5V102.5H184ZM182 101.5H183V100.5V99.5V98.5V97.5V96.5H182H181V97.5V98.5V99.5V100.5V101.5H182ZM196 97.5V96.5H197V97.5H196ZM195 102.5H194H193V101.5H194H195V100.5H194V99.5H193V98.5H192V97.5V96.5H193V95.5H194H195H196V96.5H195H194V97.5H195V98.5H196V99.5H197V100.5V101.5H196V102.5H195ZM193 101.5H192V100.5H193V101.5ZM204 102.5H203H202H201H200V101.5H199V100.5V99.5V98.5V97.5V96.5V95.5H200H201V96.5V97.5V98.5V99.5V100.5V101.5H202H203V100.5V99.5V98.5V97.5V96.5V95.5H204H205V96.5V97.5V98.5V99.5V100.5V101.5V102.5H204ZM216 102.5H215V101.5V100.5V99.5V98.5V97.5V96.5H214H213V97.5V98.5V99.5V100.5V101.5V102.5H212H211V101.5V100.5V99.5V98.5V97.5V96.5H210H209V97.5V98.5V99.5V100.5V101.5V102.5H208H207V101.5V100.5V99.5V98.5V97.5V96.5V95.5H208H209H210H211H212V96.5H213V95.5H214H215H216V96.5H217V97.5V98.5V99.5V100.5V101.5V102.5H216ZM228 102.5H227V101.5V100.5V99.5V98.5V97.5V96.5H226H225V97.5V98.5V99.5V100.5V101.5V102.5H224H223V101.5V100.5V99.5V98.5V97.5V96.5H222H221V97.5V98.5V99.5V100.5V101.5V102.5H220H219V101.5V100.5V99.5V98.5V97.5V96.5V95.5H220H221H222H223H224V96.5H225V95.5H226H227H228V96.5H229V97.5V98.5V99.5V100.5V101.5V102.5H228ZM236 102.5H235H234H233H232V101.5H231V100.5V99.5V98.5H232V97.5H231V96.5H232V95.5H233H234H235H236V96.5H237V97.5V98.5V99.5V100.5V101.5V102.5H236ZM234 101.5H235V100.5V99.5V98.5H234H233V99.5V100.5V101.5H234ZM234 97.5H235V96.5H234H233H232V97.5H233H234ZM240 102.5H239V101.5V100.5V99.5V98.5V97.5V96.5V95.5H240H241V96.5H242V95.5H243H244V96.5V97.5H243H242H241V98.5V99.5V100.5V101.5V102.5H240ZM247 102.5H246V101.5V100.5V99.5V98.5V97.5V96.5V95.5H247H248V96.5V97.5V98.5V99.5V100.5V101.5V102.5H247ZM247 93.5H248V94.5H247H246V93.5H247ZM255 101.5H256V102.5H255H254H253H252H251H250V101.5V100.5H251V99.5H252V100.5V101.5H253H254H255ZM252 99.5V98.5H253V99.5H252ZM253 98.5V97.5H254V98.5H253ZM254 97.5V96.5H253H252H251H250V95.5H251H252H253H254H255H256V96.5H255V97.5H254ZM262 101.5H263V102.5H262H261H260H259V101.5H258V100.5V99.5V98.5V97.5V96.5H259V95.5H260H261H262H263V96.5H264V97.5V98.5V99.5H263H262H261H260V100.5V101.5H261H262ZM263 101.5V100.5H264V101.5H263ZM261 98.5H262V97.5V96.5H261H260V97.5V98.5H261ZM274 102.5H273V101.5H272V100.5V99.5V98.5V97.5V96.5H271V95.5H272V94.5V93.5H273H274V94.5V95.5H275V96.5H274V97.5V98.5V99.5V100.5V101.5H275V102.5H274ZM282 102.5H281V101.5V100.5V99.5V98.5V97.5V96.5H280H279V97.5V98.5V99.5V100.5V101.5V102.5H278H277V101.5V100.5V99.5V98.5V97.5V96.5V95.5V94.5V93.5H278H279V94.5V95.5H280H281H282V96.5H283V97.5V98.5V99.5V100.5V101.5V102.5H282ZM289 101.5H290V102.5H289H288H287H286V101.5H285V100.5V99.5V98.5V97.5V96.5H286V95.5H287H288H289H290V96.5H291V97.5V98.5V99.5H290H289H288H287V100.5V101.5H288H289ZM290 101.5V100.5H291V101.5H290ZM288 98.5H289V97.5V96.5H288H287V97.5V98.5H288ZM294 102.5H293V101.5V100.5V99.5V98.5V97.5V96.5V95.5H294H295V96.5V97.5V98.5V99.5V100.5V101.5V102.5H294ZM294 93.5H295V94.5H294H293V93.5H294ZM298 102.5H297V101.5V100.5V99.5V98.5V97.5V96.5V95.5H298H299V96.5H300V95.5H301H302V96.5V97.5H301H300H299V98.5V99.5V100.5V101.5V102.5H298ZM313 102.5H312H311H310V101.5H309V100.5V99.5V98.5V97.5V96.5H310V95.5H311H312H313H314V96.5H315V97.5V98.5V99.5V100.5V101.5H314V102.5H313ZM312 101.5H313V100.5V99.5V98.5V97.5V96.5H312H311V97.5V98.5V99.5V100.5V101.5H312ZM324 101.5H325V102.5H324H323H322H321H320H319H318H317V101.5V100.5V99.5V98.5V97.5V96.5V95.5H318H319V96.5V97.5V98.5V99.5V100.5V101.5H320H321V100.5V99.5V98.5V97.5V96.5V95.5H322H323V96.5V97.5V98.5V99.5V100.5V101.5H324ZM325 101.5V100.5V99.5V98.5V97.5V96.5V95.5H326H327V96.5V97.5V98.5V99.5V100.5H326V101.5H325ZM334 102.5H333V101.5V100.5V99.5V98.5V97.5V96.5H332H331V97.5V98.5V99.5V100.5V101.5V102.5H330H329V101.5V100.5V99.5V98.5V97.5V96.5V95.5H330H331H332H333H334V96.5H335V97.5V98.5V99.5V100.5V101.5V102.5H334ZM351 102.5H350V101.5V100.5V99.5V98.5V97.5V96.5H349H348V97.5V98.5V99.5V100.5V101.5V102.5H347H346V101.5V100.5V99.5V98.5V97.5V96.5H345H344V97.5V98.5V99.5V100.5V101.5V102.5H343H342V101.5V100.5V99.5V98.5V97.5V96.5V95.5H343H344H345H346H347V96.5H348V95.5H349H350H351V96.5H352V97.5V98.5V99.5V100.5V101.5V102.5H351ZM358 101.5H359V102.5H358H357H356H355V101.5H354V100.5V99.5V98.5V97.5V96.5H355V95.5H356H357H358H359V96.5H360V97.5V98.5V99.5H359H358H357H356V100.5V101.5H357H358ZM359 101.5V100.5H360V101.5H359ZM357 98.5H358V97.5V96.5H357H356V97.5V98.5H357ZM371 102.5H370V101.5V100.5V99.5V98.5V97.5V96.5H369H368V97.5V98.5V99.5V100.5V101.5V102.5H367H366V101.5V100.5V99.5V98.5V97.5V96.5H365H364V97.5V98.5V99.5V100.5V101.5V102.5H363H362V101.5V100.5V99.5V98.5V97.5V96.5V95.5H363H364H365H366H367V96.5H368V95.5H369H370H371V96.5H372V97.5V98.5V99.5V100.5V101.5V102.5H371ZM378 102.5H377H376H375V101.5H374V100.5V99.5V98.5V97.5V96.5H375V95.5H376H377H378H379V96.5H380V97.5V98.5V99.5V100.5V101.5H379V102.5H378ZM377 101.5H378V100.5V99.5V98.5V97.5V96.5H377H376V97.5V98.5V99.5V100.5V101.5H377ZM383 102.5H382V101.5V100.5V99.5V98.5V97.5V96.5V95.5H383H384V96.5H385V95.5H386H387V96.5V97.5H386H385H384V98.5V99.5V100.5V101.5V102.5H383ZM390 102.5H389V101.5V100.5V99.5V98.5V97.5V96.5V95.5H390H391V96.5V97.5V98.5V99.5V100.5V101.5V102.5H390ZM390 93.5H391V94.5H390H389V93.5H390ZM397 101.5H398V102.5H397H396H395H394V101.5H393V100.5V99.5V98.5V97.5V96.5H394V95.5H395H396H397H398V96.5H399V97.5V98.5V99.5H398H397H396H395V100.5V101.5H396H397ZM398 101.5V100.5H399V101.5H398ZM396 98.5H397V97.5V96.5H396H395V97.5V98.5H396ZM405 97.5V96.5H406V97.5H405ZM404 102.5H403H402V101.5H403H404V100.5H403V99.5H402V98.5H401V97.5V96.5H402V95.5H403H404H405V96.5H404H403V97.5H404V98.5H405V99.5H406V100.5V101.5H405V102.5H404ZM402 101.5H401V100.5H402V101.5ZM409 102.5H408V101.5V100.5H409H410V101.5V102.5H409Z" fill="black"/>
</g>
<defs>
<filter id="filter0_d_1_259" x="3" y="3.5" width="440" height="124" filterUnits="userSpaceOnUse" color-interpolation-filters="sRGB">
<feFlood flood-opacity="0" result="BackgroundImageFix"/>
<feColorMatrix in="SourceAlpha" type="matrix" values="0 0 0 0 0 0 0 0 0 0 0 0 0 0 0 0 0 0 127 0" result="hardAlpha"/>
<feOffset/>
<feColorMatrix type="matrix" values="0 0 0 0 1 0 0 0 0 1 0 0 0 0 1 0 0 0 1 0"/>
<feBlend mode="normal" in2="BackgroundImageFix" result="effect1_dropShadow_1_259"/>
<feBlend mode="normal" in="SourceGraphic" in2="effect1_dropShadow_1_259" result="shape"/>
</filter>
</defs>
</svg>
