<svg width="63" height="20" viewBox="0 0 63 20" fill="none" xmlns="http://www.w3.org/2000/svg">
<path fill-rule="evenodd" clip-rule="evenodd" d="M6 1H2V2H1V18H2V19H6V18V2V1Z" fill="#666666"/>
<rect y="2" width="1" height="16" fill="#262626"/>
<rect x="1" y="1" width="1" height="1" fill="#262626"/>
<rect opacity="0.4" x="3" y="1" width="3" height="1" fill="#262626"/>
<rect opacity="0.4" x="3" y="2" width="1" height="1" fill="#262626"/>
<rect x="2" width="4" height="1" fill="#262626"/>
<rect x="1" y="18" width="1" height="1" fill="#262626"/>
<rect x="2" y="19" width="4" height="1" fill="#262626"/>
<rect opacity="0.8" x="1" y="2" width="1" height="16" fill="#262626"/>
<rect opacity="0.4" x="2" y="1" width="1" height="18" fill="#262626"/>
<rect opacity="0.2" x="2" y="18" width="4" height="1" fill="white"/>
<rect width="51" height="18" transform="translate(6)" fill="#666666"/>
<g filter="url(#filter0_d_501_17507)">
<rect x="6" width="51" height="1" fill="#262626"/>
</g>
<path d="M7.5025 13.5H6.69V12.6875V11.875V11.0625V10.25V9.4375V8.625V7.8125V7V6.1875H7.5025H8.315H9.1275H9.94H10.7525V7H11.565V7.8125V8.625V9.4375H10.7525V10.25H9.94H9.1275H8.315V11.0625V11.875V12.6875V13.5H7.5025ZM9.1275 9.4375H9.94V8.625V7.8125V7H9.1275H8.315V7.8125V8.625V9.4375H9.1275ZM17.7075 13.5H16.895H16.0825H15.27H14.4575V12.6875H13.645V11.875V11.0625V10.25V9.4375V8.625V7.8125H14.4575H15.27V8.625V9.4375V10.25V11.0625V11.875V12.6875H16.0825H16.895V11.875V11.0625V10.25V9.4375V8.625V7.8125H17.7075H18.52V8.625V9.4375V10.25V11.0625V11.875V12.6875V13.5H17.7075ZM23.0375 13.5H22.225V12.6875H21.4125V11.875V11.0625V10.25V9.4375V8.625H20.6V7.8125H21.4125V7V6.1875H22.225H23.0375V7V7.8125H23.85V8.625H23.0375V9.4375V10.25V11.0625V11.875V12.6875H23.85V13.5H23.0375ZM33.6975 13.5H32.885H32.0725H31.26H30.4475V12.6875V11.875V11.0625V10.25V9.4375V8.625V7.8125V7V6.1875H31.26H32.0725H32.885H33.6975H34.51V7H35.3225V7.8125V8.625V9.4375H34.51V10.25H35.3225V11.0625V11.875V12.6875H34.51V13.5H33.6975ZM32.885 12.6875H33.6975V11.875V11.0625V10.25H32.885H32.0725V11.0625V11.875V12.6875H32.885ZM32.885 9.4375H33.6975V8.625V7.8125V7H32.885H32.0725V7.8125V8.625V9.4375H32.885ZM41.465 13.5H40.6525H39.84H39.0275H38.215V12.6875H37.4025V11.875V11.0625V10.25H38.215V9.4375H37.4025V8.625H38.215V7.8125H39.0275H39.84H40.6525H41.465V8.625H42.2775V9.4375V10.25V11.0625V11.875V12.6875V13.5H41.465ZM39.84 12.6875H40.6525V11.875V11.0625V10.25H39.84H39.0275V11.0625V11.875V12.6875H39.84ZM39.84 9.4375H40.6525V8.625H39.84H39.0275H38.215V9.4375H39.0275H39.84ZM47.6075 9.4375V8.625H48.42V9.4375H47.6075ZM46.795 12.6875H47.6075V13.5H46.795H45.9825H45.17V12.6875H44.3575V11.875V11.0625V10.25V9.4375V8.625H45.17V7.8125H45.9825H46.795H47.6075V8.625H46.795H45.9825V9.4375V10.25V11.0625V11.875V12.6875H46.795ZM47.6075 12.6875V11.875H48.42V12.6875H47.6075ZM54.5625 13.5H53.75V12.6875H52.9375V11.875H52.125V12.6875V13.5H51.3125H50.5V12.6875V11.875V11.0625V10.25V9.4375V8.625V7.8125V7V6.1875H51.3125H52.125V7V7.8125V8.625V9.4375H52.9375V8.625H53.75V7.8125H54.5625H55.375V8.625H54.5625V9.4375H53.75V10.25H52.9375H52.125V11.0625H52.9375H53.75V11.875H54.5625V12.6875H55.375V13.5H54.5625Z" fill="white"/>
<g filter="url(#filter1_d_501_17507)">
<rect x="6" y="19" width="51" height="1" fill="#262626"/>
</g>
<path fill-rule="evenodd" clip-rule="evenodd" d="M57 19L61 19L61 18L62 18L62 2L61 2L61 1L57 1L57 2L57 18L57 19Z" fill="#666666"/>
<rect opacity="0.2" x="59" y="17" width="1" height="1" fill="white"/>
<rect opacity="0.2" x="57" y="18" width="3" height="1" fill="white"/>
<rect x="63" y="18" width="1" height="16" transform="rotate(-180 63 18)" fill="#262626"/>
<rect x="62" y="19" width="1" height="1" transform="rotate(-180 62 19)" fill="#262626"/>
<rect x="61" y="20" width="4" height="1" transform="rotate(-180 61 20)" fill="#262626"/>
<rect x="62" y="2" width="1" height="1" transform="rotate(-180 62 2)" fill="#262626"/>
<rect x="61" y="1" width="4" height="1" transform="rotate(-180 61 1)" fill="#262626"/>
<rect opacity="0.3" x="62" y="18" width="1" height="16" transform="rotate(-180 62 18)" fill="white"/>
<rect opacity="0.2" x="61" y="19" width="1" height="18" transform="rotate(-180 61 19)" fill="white"/>
<rect opacity="0.4" x="57" y="1" width="4" height="1" fill="#262626"/>
<defs>
<filter id="filter0_d_501_17507" x="6" y="0" width="51" height="2" filterUnits="userSpaceOnUse" color-interpolation-filters="sRGB">
<feFlood flood-opacity="0" result="BackgroundImageFix"/>
<feColorMatrix in="SourceAlpha" type="matrix" values="0 0 0 0 0 0 0 0 0 0 0 0 0 0 0 0 0 0 127 0" result="hardAlpha"/>
<feOffset dy="1"/>
<feColorMatrix type="matrix" values="0 0 0 0 0.14902 0 0 0 0 0.14902 0 0 0 0 0.14902 0 0 0 0.4 0"/>
<feBlend mode="normal" in2="BackgroundImageFix" result="effect1_dropShadow_501_17507"/>
<feBlend mode="normal" in="SourceGraphic" in2="effect1_dropShadow_501_17507" result="shape"/>
</filter>
<filter id="filter1_d_501_17507" x="6" y="18" width="51" height="2" filterUnits="userSpaceOnUse" color-interpolation-filters="sRGB">
<feFlood flood-opacity="0" result="BackgroundImageFix"/>
<feColorMatrix in="SourceAlpha" type="matrix" values="0 0 0 0 0 0 0 0 0 0 0 0 0 0 0 0 0 0 127 0" result="hardAlpha"/>
<feOffset dy="-1"/>
<feColorMatrix type="matrix" values="0 0 0 0 0.521569 0 0 0 0 0.521569 0 0 0 0 0.521569 0 0 0 1 0"/>
<feBlend mode="normal" in2="BackgroundImageFix" result="effect1_dropShadow_501_17507"/>
<feBlend mode="normal" in="SourceGraphic" in2="effect1_dropShadow_501_17507" result="shape"/>
</filter>
</defs>
</svg>
