<svg width="22" height="24" viewBox="0 0 22 24" fill="none" xmlns="http://www.w3.org/2000/svg">
<path fill-rule="evenodd" clip-rule="evenodd" d="M13.6668 2.66667L8.3335 2.66667C7.35632 2.75911 7.08723 3.07246 7.00016 4C7.09261 4.97717 7.40596 5.24627 8.3335 5.33333H13.6668C14.644 5.24089 14.9131 4.92754 15.0002 4C14.9077 3.02283 14.5944 2.75373 13.6668 2.66667ZM7.00016 1.33333C6.9131 2.26087 6.644 2.57422 5.66683 2.66667H4.3335L4.3335 4C4.24643 4.92754 3.97734 5.24089 3.00016 5.33333H0.333496V8H4.3335H17.6668H21.6668V5.33333H19.0002C18.0726 5.24627 17.7593 4.97717 17.6668 4V2.66667H16.3335C15.406 2.5796 15.0926 2.31051 15.0002 1.33333V0H7.00016V1.33333ZM4.3335 10.6667V20C4.42594 20.9772 4.73929 21.2463 5.66683 21.3333H16.3335C17.3107 21.2409 17.5798 20.9275 17.6668 20V10.6667H20.3335V21.3333H19.0002C18.023 21.4258 17.7539 21.7391 17.6668 22.6667V24H4.3335V22.6667C4.24105 21.6895 3.9277 21.4204 3.00016 21.3333H1.66683L1.66683 10.6667H4.3335ZM7.00016 10.6667L7.00016 18.6667H9.66683L9.66683 10.6667H7.00016ZM12.3335 16V10.6667H15.0002V16H12.3335Z" fill="black"/>
</svg>
