<svg width="26" height="29" viewBox="0 0 26 29" fill="none" xmlns="http://www.w3.org/2000/svg">
<path d="M23.6874 20.7323H1.32124V7.58032H0V23.3662H1.32124V24.6874H9.21416V26H10.5268V24.6874H14.4732V26H15.7945V24.6874H23.6874V23.3662H25V7.58032H23.6874V20.7323Z" fill="white"/>
<path d="M23.6873 6.25903H18.4282V7.58028H23.6873V6.25903Z" fill="white"/>
<path d="M9.21397 27.3126V26H7.90137V28.6339H17.1069V26H15.7943V27.3126H9.21397Z" fill="white"/>
<path d="M14.4733 14.1606H10.5269V15.4733H14.4733V14.1606Z" fill="white"/>
<path d="M14.4733 16.7859H10.5269V18.1071H14.4733V16.7859Z" fill="white"/>
<path d="M11.8478 1V2.31261H10.5266V3.63385H9.21397V4.94646H7.90137V6.25907H10.5266V12.8394H14.473V6.25907H17.1069V4.94646H15.7943V3.63385H14.473V2.31261H13.1604V1H11.8478Z" fill="white"/>
<path d="M6.58036 6.25903H1.32129V7.58028H6.58036V6.25903Z" fill="white"/>
<path d="M24.6874 19.7323H2.32124V6.58032H1V22.3662H2.32124V23.6874H10.2142V25H11.5268V23.6874H15.4732V25H16.7945V23.6874H24.6874V22.3662H26V6.58032H24.6874V19.7323Z" fill="black"/>
<path d="M24.6873 5.25903H19.4282V6.58028H24.6873V5.25903Z" fill="black"/>
<path d="M10.214 26.3126V25H8.90137V27.6339H18.1069V25H16.7943V26.3126H10.214Z" fill="black"/>
<path d="M15.4733 13.1606H11.5269V14.4733H15.4733V13.1606Z" fill="black"/>
<path d="M15.4733 15.7859H11.5269V17.1071H15.4733V15.7859Z" fill="black"/>
<path d="M12.8478 0V1.31261H11.5266V2.63385H10.214V3.94646H8.90137V5.25907H11.5266V11.8394H15.473V5.25907H18.1069V3.94646H16.7943V2.63385H15.473V1.31261H14.1604V0H12.8478Z" fill="black"/>
<path d="M7.58036 5.25903H2.32129V6.58028H7.58036V5.25903Z" fill="black"/>
</svg>
