<svg width="301" height="162" viewBox="0 0 301 162" fill="none" xmlns="http://www.w3.org/2000/svg">
<g filter="url(#filter0_ii_169_7795)">
<rect x="1" y="1" width="299" height="160" fill="#CCCCCC"/>
<rect x="0.5" y="0.5" width="300" height="161" stroke="#262626"/>
<rect width="299" height="19" transform="translate(1 1)" fill="#CCCCCC"/>
<rect x="19.9044" y="4" width="84.2937" height="13" fill="#DDDDDD"/>
<rect x="19.9044" y="4" width="1" height="13" fill="#EEEEEE"/>
<rect x="103.904" y="4" width="1" height="13" fill="#C5C5C5"/>
<rect x="19.9044" y="5" width="84.7781" height="1" fill="#999999"/>
<rect x="19.9044" y="9" width="84.7781" height="1" fill="#999999"/>
<rect x="19.9044" y="13" width="84.7781" height="1" fill="#999999"/>
<rect x="19.9044" y="7" width="84.7781" height="1" fill="#999999"/>
<rect x="19.9044" y="11" width="84.7781" height="1" fill="#999999"/>
<rect x="19.9044" y="15" width="84.7781" height="1" fill="#999999"/>
<path d="M114.245 16H113.308H112.37H111.433V15.0625H110.495V14.125V13.1875V12.25V11.3125V10.375V9.4375V8.5V7.5625H111.433H112.37V8.5V9.4375V10.375V11.3125V12.25V13.1875V14.125V15.0625H113.308H114.245V14.125V13.1875V12.25V11.3125V10.375V9.4375V8.5V7.5625H115.183H116.12V8.5V9.4375V10.375V11.3125V12.25V13.1875V14.125V15.0625H115.183V16H114.245ZM119.458 17.875H118.52V16.9375V16V15.0625V14.125V13.1875V12.25V11.3125V10.375V9.4375H119.458H120.395H121.333H122.27H123.208V10.375H124.145V11.3125V12.25V13.1875V14.125V15.0625H123.208V16H122.27H121.333H120.395V16.9375V17.875H119.458ZM121.333 15.0625H122.27V14.125V13.1875V12.25V11.3125V10.375H121.333H120.395V11.3125V12.25V13.1875V14.125V15.0625H121.333ZM127.483 16H126.545V15.0625V14.125V13.1875V12.25V11.3125V10.375V9.4375V8.5V7.5625H127.483H128.42V8.5V9.4375V10.375V11.3125V12.25V13.1875V14.125V15.0625V16H127.483ZM134.57 16H133.633H132.695H131.758V15.0625H130.82V14.125V13.1875V12.25V11.3125V10.375H131.758V9.4375H132.695H133.633H134.57H135.508V10.375H136.445V11.3125V12.25V13.1875V14.125V15.0625H135.508V16H134.57ZM133.633 15.0625H134.57V14.125V13.1875V12.25V11.3125V10.375H133.633H132.695V11.3125V12.25V13.1875V14.125V15.0625H133.633ZM143.533 16H142.595H141.658H140.72H139.783V15.0625H138.845V14.125V13.1875V12.25H139.783V11.3125H138.845V10.375H139.783V9.4375H140.72H141.658H142.595H143.533V10.375H144.47V11.3125V12.25V13.1875V14.125V15.0625V16H143.533ZM141.658 15.0625H142.595V14.125V13.1875V12.25H141.658H140.72V13.1875V14.125V15.0625H141.658ZM141.658 11.3125H142.595V10.375H141.658H140.72H139.783V11.3125H140.72H141.658ZM151.558 16H150.62H149.683H148.745H147.808V15.0625H146.87V14.125V13.1875V12.25V11.3125V10.375H147.808V9.4375H148.745H149.683H150.62V8.5V7.5625H151.558H152.495V8.5V9.4375V10.375V11.3125V12.25V13.1875V14.125V15.0625V16H151.558ZM149.683 15.0625H150.62V14.125V13.1875V12.25V11.3125V10.375H149.683H148.745V11.3125V12.25V13.1875V14.125V15.0625H149.683ZM164.795 15.0625H165.733V16H164.795H163.858H162.92H161.983H161.045H160.108V15.0625V14.125V13.1875H161.045V12.25H161.983V11.3125H162.92V10.375H163.858V9.4375V8.5H162.92H161.983H161.045H160.108V7.5625H161.045H161.983H162.92H163.858H164.795H165.733V8.5V9.4375V10.375H164.795V11.3125H163.858V12.25H162.92V13.1875H161.983V14.125V15.0625H162.92H163.858H164.795ZM171.883 16H170.945H170.008H169.07V15.0625H168.133V14.125V13.1875V12.25V11.3125V10.375H169.07V9.4375H170.008H170.945H171.883H172.82V10.375H173.758V11.3125V12.25V13.1875V14.125V15.0625H172.82V16H171.883ZM170.945 15.0625H171.883V14.125V13.1875V12.25V11.3125V10.375H170.945H170.008V11.3125V12.25V13.1875V14.125V15.0625H170.945ZM180.845 16H179.908V15.0625V14.125V13.1875V12.25V11.3125V10.375H178.97H178.033V11.3125V12.25V13.1875V14.125V15.0625V16H177.095H176.158V15.0625V14.125V13.1875V12.25V11.3125V10.375V9.4375H177.095H178.033H178.97H179.908H180.845V10.375H181.783V11.3125V12.25V13.1875V14.125V15.0625V16H180.845ZM187.933 15.0625H188.87V16H187.933H186.995H186.058H185.12V15.0625H184.183V14.125V13.1875V12.25V11.3125V10.375H185.12V9.4375H186.058H186.995H187.933H188.87V10.375H189.808V11.3125V12.25V13.1875H188.87H187.933H186.995H186.058V14.125V15.0625H186.995H187.933ZM188.87 15.0625V14.125H189.808V15.0625H188.87ZM186.995 12.25H187.933V11.3125V10.375H186.995H186.058V11.3125V12.25H186.995Z" fill="#262626"/>
<rect x="195.683" y="4" width="84.2937" height="13" fill="#DDDDDD"/>
<rect x="195.683" y="4" width="1" height="13" fill="#EEEEEE"/>
<rect x="279.683" y="4" width="1" height="13" fill="#C5C5C5"/>
<rect x="195.683" y="5" width="84.7781" height="1" fill="#999999"/>
<rect x="195.683" y="9" width="84.7781" height="1" fill="#999999"/>
<rect x="195.683" y="13" width="84.7781" height="1" fill="#999999"/>
<rect x="195.683" y="7" width="84.7781" height="1" fill="#999999"/>
<rect x="195.683" y="11" width="84.7781" height="1" fill="#999999"/>
<rect x="195.683" y="15" width="84.7781" height="1" fill="#999999"/>
<rect x="285.961" y="5.5" width="10" height="10" fill="url(#paint0_linear_169_7795)" stroke="#262626"/>
<path fill-rule="evenodd" clip-rule="evenodd" d="M286.461 15L287.461 15L287.461 7L295.461 7L295.461 6L287.461 6L286.461 6L286.461 7L286.461 15Z" fill="white"/>
<path fill-rule="evenodd" clip-rule="evenodd" d="M295.461 6H294.461V14H286.461V15H294.461H295.461V14V6Z" fill="#808080"/>
<path fill-rule="evenodd" clip-rule="evenodd" d="M297.461 4H296.461V16H284.461V17H296.461H297.461V4Z" fill="white"/>
<path fill-rule="evenodd" clip-rule="evenodd" d="M284.461 16L285.461 16L285.461 5L296.461 5L296.461 4L285.461 4L284.461 4L284.461 16Z" fill="#808080"/>
<rect x="285.961" y="5.5" width="6" height="6" stroke="#262626"/>
<rect x="5.5" y="5.5" width="10" height="10" fill="url(#paint1_linear_169_7795)" stroke="#262626"/>
<path fill-rule="evenodd" clip-rule="evenodd" d="M6 15L7 15L7 7L15 7L15 6L7 6L6 6L6 7L6 15Z" fill="white"/>
<path fill-rule="evenodd" clip-rule="evenodd" d="M15 6H14V14H6V15H14H15V14V6Z" fill="#808080"/>
<path fill-rule="evenodd" clip-rule="evenodd" d="M17 4H16V16H4V17H16H17V4Z" fill="white"/>
<path fill-rule="evenodd" clip-rule="evenodd" d="M4 16L5 16L5 5L16 5L16 4L5 4L4 4L4 16Z" fill="#808080"/>
</g>
<defs>
<filter id="filter0_ii_169_7795" x="0" y="0" width="301" height="162" filterUnits="userSpaceOnUse" color-interpolation-filters="sRGB">
<feFlood flood-opacity="0" result="BackgroundImageFix"/>
<feBlend mode="normal" in="SourceGraphic" in2="BackgroundImageFix" result="shape"/>
<feColorMatrix in="SourceAlpha" type="matrix" values="0 0 0 0 0 0 0 0 0 0 0 0 0 0 0 0 0 0 127 0" result="hardAlpha"/>
<feOffset dx="-2" dy="-2"/>
<feComposite in2="hardAlpha" operator="arithmetic" k2="-1" k3="1"/>
<feColorMatrix type="matrix" values="0 0 0 0 0.14902 0 0 0 0 0.14902 0 0 0 0 0.14902 0 0 0 0.4 0"/>
<feBlend mode="normal" in2="shape" result="effect1_innerShadow_169_7795"/>
<feColorMatrix in="SourceAlpha" type="matrix" values="0 0 0 0 0 0 0 0 0 0 0 0 0 0 0 0 0 0 127 0" result="hardAlpha"/>
<feOffset dx="2" dy="2"/>
<feComposite in2="hardAlpha" operator="arithmetic" k2="-1" k3="1"/>
<feColorMatrix type="matrix" values="0 0 0 0 0.14902 0 0 0 0 0.14902 0 0 0 0 0.14902 0 0 0 0.1 0"/>
<feBlend mode="normal" in2="effect1_innerShadow_169_7795" result="effect2_innerShadow_169_7795"/>
</filter>
<linearGradient id="paint0_linear_169_7795" x1="286.461" y1="6" x2="295.461" y2="15" gradientUnits="userSpaceOnUse">
<stop stop-color="#9A9A9A"/>
<stop offset="1" stop-color="#F1F1F1"/>
</linearGradient>
<linearGradient id="paint1_linear_169_7795" x1="6" y1="6" x2="15" y2="15" gradientUnits="userSpaceOnUse">
<stop stop-color="#9A9A9A"/>
<stop offset="1" stop-color="#F1F1F1"/>
</linearGradient>
</defs>
</svg>
