<svg width="301" height="162" viewBox="0 0 301 162" fill="none" xmlns="http://www.w3.org/2000/svg">
<g filter="url(#filter0_ii_169_7795)">
<rect x="1" y="1" width="299" height="160" fill="#CCCCCC"/>
<rect x="0.5" y="0.5" width="300" height="161" stroke="#262626"/>
<rect width="299" height="19" transform="translate(1 1)" fill="#CCCCCC"/>
<rect x="20" y="4" width="84.0171" height="13" fill="#DDDDDD"/>
<rect x="20" y="4" width="1" height="13" fill="#EEEEEE"/>
<rect x="104" y="4" width="1" height="13" fill="#C5C5C5"/>
<rect x="20" y="5" width="84.5" height="1" fill="#999999"/>
<rect x="20" y="9" width="84.5" height="1" fill="#999999"/>
<rect x="20" y="13" width="84.5" height="1" fill="#999999"/>
<rect x="20" y="7" width="84.5" height="1" fill="#999999"/>
<rect x="20" y="11" width="84.5" height="1" fill="#999999"/>
<rect x="20" y="15" width="84.5" height="1" fill="#999999"/>
<path d="M114.062 16H113.125H112.188H111.25V15.0625H110.312V14.125V13.1875V12.25V11.3125V10.375V9.4375V8.5V7.5625H111.25H112.188V8.5V9.4375V10.375V11.3125V12.25V13.1875V14.125V15.0625H113.125H114.062V14.125V13.1875V12.25V11.3125V10.375V9.4375V8.5V7.5625H115H115.938V8.5V9.4375V10.375V11.3125V12.25V13.1875V14.125V15.0625H115V16H114.062ZM119.275 17.875H118.337V16.9375V16V15.0625V14.125V13.1875V12.25V11.3125V10.375V9.4375H119.275H120.212H121.15H122.087H123.025V10.375H123.962V11.3125V12.25V13.1875V14.125V15.0625H123.025V16H122.087H121.15H120.212V16.9375V17.875H119.275ZM121.15 15.0625H122.087V14.125V13.1875V12.25V11.3125V10.375H121.15H120.212V11.3125V12.25V13.1875V14.125V15.0625H121.15ZM127.3 16H126.362V15.0625V14.125V13.1875V12.25V11.3125V10.375V9.4375V8.5V7.5625H127.3H128.237V8.5V9.4375V10.375V11.3125V12.25V13.1875V14.125V15.0625V16H127.3ZM134.388 16H133.45H132.513H131.575V15.0625H130.638V14.125V13.1875V12.25V11.3125V10.375H131.575V9.4375H132.513H133.45H134.388H135.325V10.375H136.263V11.3125V12.25V13.1875V14.125V15.0625H135.325V16H134.388ZM133.45 15.0625H134.388V14.125V13.1875V12.25V11.3125V10.375H133.45H132.513V11.3125V12.25V13.1875V14.125V15.0625H133.45ZM143.35 16H142.413H141.475H140.538H139.6V15.0625H138.663V14.125V13.1875V12.25H139.6V11.3125H138.663V10.375H139.6V9.4375H140.538H141.475H142.413H143.35V10.375H144.288V11.3125V12.25V13.1875V14.125V15.0625V16H143.35ZM141.475 15.0625H142.413V14.125V13.1875V12.25H141.475H140.538V13.1875V14.125V15.0625H141.475ZM141.475 11.3125H142.413V10.375H141.475H140.538H139.6V11.3125H140.538H141.475ZM151.375 16H150.438H149.5H148.562H147.625V15.0625H146.688V14.125V13.1875V12.25V11.3125V10.375H147.625V9.4375H148.562H149.5H150.438V8.5V7.5625H151.375H152.312V8.5V9.4375V10.375V11.3125V12.25V13.1875V14.125V15.0625V16H151.375ZM149.5 15.0625H150.438V14.125V13.1875V12.25V11.3125V10.375H149.5H148.562V11.3125V12.25V13.1875V14.125V15.0625H149.5ZM164.612 15.0625H165.55V16H164.612H163.675H162.737H161.8H160.862H159.925V15.0625V14.125V13.1875H160.862V12.25H161.8V11.3125H162.737V10.375H163.675V9.4375V8.5H162.737H161.8H160.862H159.925V7.5625H160.862H161.8H162.737H163.675H164.612H165.55V8.5V9.4375V10.375H164.612V11.3125H163.675V12.25H162.737V13.1875H161.8V14.125V15.0625H162.737H163.675H164.612ZM171.7 16H170.763H169.825H168.888V15.0625H167.95V14.125V13.1875V12.25V11.3125V10.375H168.888V9.4375H169.825H170.763H171.7H172.638V10.375H173.575V11.3125V12.25V13.1875V14.125V15.0625H172.638V16H171.7ZM170.763 15.0625H171.7V14.125V13.1875V12.25V11.3125V10.375H170.763H169.825V11.3125V12.25V13.1875V14.125V15.0625H170.763ZM180.662 16H179.725V15.0625V14.125V13.1875V12.25V11.3125V10.375H178.787H177.85V11.3125V12.25V13.1875V14.125V15.0625V16H176.912H175.975V15.0625V14.125V13.1875V12.25V11.3125V10.375V9.4375H176.912H177.85H178.787H179.725H180.662V10.375H181.6V11.3125V12.25V13.1875V14.125V15.0625V16H180.662ZM187.75 15.0625H188.688V16H187.75H186.812H185.875H184.938V15.0625H184V14.125V13.1875V12.25V11.3125V10.375H184.938V9.4375H185.875H186.812H187.75H188.688V10.375H189.625V11.3125V12.25V13.1875H188.688H187.75H186.812H185.875V14.125V15.0625H186.812H187.75ZM188.688 15.0625V14.125H189.625V15.0625H188.688ZM186.812 12.25H187.75V11.3125V10.375H186.812H185.875V11.3125V12.25H186.812Z" fill="#262626"/>
<rect x="195.5" y="4" width="84.0171" height="13" fill="#DDDDDD"/>
<rect x="195.5" y="4" width="1" height="13" fill="#EEEEEE"/>
<rect x="279.5" y="4" width="1" height="13" fill="#C5C5C5"/>
<rect x="195.5" y="5" width="84.5" height="1" fill="#999999"/>
<rect x="195.5" y="9" width="84.5" height="1" fill="#999999"/>
<rect x="195.5" y="13" width="84.5" height="1" fill="#999999"/>
<rect x="195.5" y="7" width="84.5" height="1" fill="#999999"/>
<rect x="195.5" y="11" width="84.5" height="1" fill="#999999"/>
<rect x="195.5" y="15" width="84.5" height="1" fill="#999999"/>
<rect x="285.5" y="5.5" width="10" height="10" fill="url(#paint0_linear_169_7795)" stroke="#262626"/>
<path fill-rule="evenodd" clip-rule="evenodd" d="M286 15L287 15L287 7L295 7L295 6L287 6L286 6L286 7L286 15Z" fill="white"/>
<path fill-rule="evenodd" clip-rule="evenodd" d="M295 6H294V14H286V15H294H295V14V6Z" fill="#808080"/>
<path fill-rule="evenodd" clip-rule="evenodd" d="M297 4H296V16H284V17H296H297V4Z" fill="white"/>
<path fill-rule="evenodd" clip-rule="evenodd" d="M284 16L285 16L285 5L296 5L296 4L285 4L284 4L284 16Z" fill="#808080"/>
<rect x="285.5" y="5.5" width="6" height="6" stroke="#262626"/>
<rect x="5.5" y="5.5" width="10" height="10" fill="url(#paint1_linear_169_7795)" stroke="#262626"/>
<path fill-rule="evenodd" clip-rule="evenodd" d="M6 15L7 15L7 7L15 7L15 6L7 6L6 6L6 7L6 15Z" fill="white"/>
<path fill-rule="evenodd" clip-rule="evenodd" d="M15 6H14V14H6V15H14H15V14V6Z" fill="#808080"/>
<path fill-rule="evenodd" clip-rule="evenodd" d="M17 4H16V16H4V17H16H17V4Z" fill="white"/>
<path fill-rule="evenodd" clip-rule="evenodd" d="M4 16L5 16L5 5L16 5L16 4L5 4L4 4L4 16Z" fill="#808080"/>
</g>
<defs>
<filter id="filter0_ii_169_7795" x="0" y="0" width="301" height="162" filterUnits="userSpaceOnUse" color-interpolation-filters="sRGB">
<feFlood flood-opacity="0" result="BackgroundImageFix"/>
<feBlend mode="normal" in="SourceGraphic" in2="BackgroundImageFix" result="shape"/>
<feColorMatrix in="SourceAlpha" type="matrix" values="0 0 0 0 0 0 0 0 0 0 0 0 0 0 0 0 0 0 127 0" result="hardAlpha"/>
<feOffset dx="-2" dy="-2"/>
<feComposite in2="hardAlpha" operator="arithmetic" k2="-1" k3="1"/>
<feColorMatrix type="matrix" values="0 0 0 0 0.14902 0 0 0 0 0.14902 0 0 0 0 0.14902 0 0 0 0.4 0"/>
<feBlend mode="normal" in2="shape" result="effect1_innerShadow_169_7795"/>
<feColorMatrix in="SourceAlpha" type="matrix" values="0 0 0 0 0 0 0 0 0 0 0 0 0 0 0 0 0 0 127 0" result="hardAlpha"/>
<feOffset dx="2" dy="2"/>
<feComposite in2="hardAlpha" operator="arithmetic" k2="-1" k3="1"/>
<feColorMatrix type="matrix" values="0 0 0 0 0.14902 0 0 0 0 0.14902 0 0 0 0 0.14902 0 0 0 0.1 0"/>
<feBlend mode="normal" in2="effect1_innerShadow_169_7795" result="effect2_innerShadow_169_7795"/>
</filter>
<linearGradient id="paint0_linear_169_7795" x1="286" y1="6" x2="295" y2="15" gradientUnits="userSpaceOnUse">
<stop stop-color="#9A9A9A"/>
<stop offset="1" stop-color="#F1F1F1"/>
</linearGradient>
<linearGradient id="paint1_linear_169_7795" x1="6" y1="6" x2="15" y2="15" gradientUnits="userSpaceOnUse">
<stop stop-color="#9A9A9A"/>
<stop offset="1" stop-color="#F1F1F1"/>
</linearGradient>
</defs>
</svg>
