<svg width="23" height="25" viewBox="0 0 23 25" fill="none" xmlns="http://www.w3.org/2000/svg">
<rect x="3.6748" y="2.13123" width="1.71944" height="1.71944" fill="#1E1E1E"/>
<rect x="1.9541" y="3.85046" width="1.71944" height="1.71944" fill="#1E1E1E"/>
<rect x="0.235352" y="5.57019" width="1.71944" height="1.71944" fill="#1E1E1E"/>
<rect x="0.235352" y="7.28943" width="1.71944" height="1.71944" fill="#1E1E1E"/>
<rect x="0.235352" y="9.00891" width="1.71944" height="1.71944" fill="#1E1E1E"/>
<rect x="0.235352" y="10.7283" width="1.71944" height="1.71944" fill="#1E1E1E"/>
<rect x="1.9541" y="12.448" width="1.71944" height="1.71944" fill="#1E1E1E"/>
<rect x="3.6748" y="14.1672" width="1.71944" height="1.71944" fill="#1E1E1E"/>
<rect x="5.39355" y="15.8867" width="1.71944" height="1.71944" fill="#1E1E1E"/>
<rect x="7.11328" y="15.8867" width="1.71944" height="1.71944" fill="#1E1E1E"/>
<rect x="8.83301" y="15.8867" width="1.71944" height="1.71944" fill="#1E1E1E"/>
<rect x="10.5518" y="15.8867" width="1.71944" height="1.71944" fill="#1E1E1E"/>
<rect x="12.2715" y="14.1672" width="1.71944" height="1.71944" fill="#1E1E1E"/>
<rect x="13.9902" y="15.8867" width="1.71944" height="1.71944" fill="#1E1E1E"/>
<rect x="15.71" y="17.606" width="1.71944" height="1.71944" fill="#1E1E1E"/>
<rect x="17.4297" y="19.3257" width="1.71944" height="1.71944" fill="#1E1E1E"/>
<rect x="19.1484" y="21.0449" width="1.71944" height="1.71944" fill="#1E1E1E"/>
<rect x="20.8691" y="22.7644" width="1.71944" height="1.71944" fill="#1E1E1E"/>
<rect x="13.9902" y="12.448" width="1.71944" height="1.71944" fill="#1E1E1E"/>
<rect x="15.71" y="10.7283" width="1.71944" height="1.71944" fill="#1E1E1E"/>
<rect x="15.71" y="9.00891" width="1.71944" height="1.71944" fill="#1E1E1E"/>
<rect x="15.71" y="7.28943" width="1.71944" height="1.71944" fill="#1E1E1E"/>
<rect x="15.71" y="5.57019" width="1.71944" height="1.71944" fill="#1E1E1E"/>
<rect x="13.9902" y="3.85046" width="1.71944" height="1.71944" fill="#1E1E1E"/>
<rect x="12.2715" y="2.13123" width="1.71944" height="1.71944" fill="#1E1E1E"/>
<rect x="10.5518" y="0.411743" width="1.71944" height="1.71944" fill="#1E1E1E"/>
<rect x="8.83301" y="0.411743" width="1.71944" height="1.71944" fill="#1E1E1E"/>
<rect x="7.11328" y="0.411743" width="1.71944" height="1.71944" fill="#1E1E1E"/>
<rect x="5.39355" y="0.411743" width="1.71944" height="1.71944" fill="#1E1E1E"/>
</svg>
